<svg width="335" height="364" viewBox="0 0 335 364" fill="none" xmlns="http://www.w3.org/2000/svg">
<path d="M178.031 61.7687C179.531 56.2687 185.231 53.0687 190.731 54.5687L306.131 86.2687C311.631 87.7687 314.831 93.4687 313.331 98.9687L267.931 264.669C266.431 270.169 260.731 273.369 255.231 271.869L139.831 240.169C134.331 238.669 131.131 232.969 132.631 227.469L178.031 61.7687Z" fill="#1D1D1D" stroke="#1D1D1D" stroke-width="2" stroke-miterlimit="10" stroke-linecap="round" stroke-linejoin="round"/>
<path d="M173.731 60.5694C175.231 55.0694 180.931 51.8694 186.431 53.3694L301.831 85.0694C307.331 86.5694 310.531 92.2694 309.031 97.7694L263.731 263.369C262.231 268.869 256.531 272.069 251.031 270.569L135.631 238.869C130.131 237.369 126.931 231.669 128.431 226.169L173.731 60.5694Z" fill="#98C890" stroke="#1D1D1D" stroke-width="2"/>
<path d="M104.631 68.8695C104.831 63.1695 109.731 58.7694 115.431 58.9694L235.031 64.0695C240.731 64.2695 245.131 69.1695 244.931 74.8695L237.631 246.469C237.431 252.169 232.531 256.569 226.831 256.369L107.231 251.269C101.531 251.069 97.1308 246.169 97.3308 240.469L104.631 68.8695Z" fill="#1D1D1D" stroke="#1D1D1D" stroke-width="2" stroke-miterlimit="10" stroke-linecap="round" stroke-linejoin="round"/>
<path d="M100.131 68.6702C100.331 62.9702 105.231 58.5702 110.931 58.7702L230.531 63.8702C236.231 64.0702 240.631 68.9702 240.431 74.6702L233.131 246.27C232.931 251.97 228.031 256.37 222.331 256.17L102.731 251.07C97.0308 250.87 92.6308 245.97 92.8308 240.27L100.131 68.6702Z" fill="#E1ACED" stroke="#1D1D1D" stroke-width="2"/>
<path d="M26.6307 98.6702C25.4307 93.0702 29.0307 87.5702 34.6307 86.4702L151.731 61.6702C157.331 60.4702 162.831 64.0702 163.931 69.6702L199.531 237.77C200.731 243.37 197.131 248.87 191.531 249.97L74.4307 274.67C68.8307 275.87 63.3307 272.27 62.2307 266.67L26.6307 98.6702Z" fill="#1D1D1D" stroke="#1D1D1D" stroke-width="2" stroke-miterlimit="10" stroke-linecap="round" stroke-linejoin="round"/>
<path d="M22.2308 99.4691C21.0308 93.8691 24.6308 88.3691 30.2308 87.2691L147.331 62.4691C152.931 61.2691 158.431 64.8691 159.531 70.4691L195.131 238.569C196.331 244.169 192.731 249.669 187.131 250.769L70.0308 275.569C64.4308 276.769 58.9308 273.169 57.8308 267.569L22.2308 99.4691Z" fill="#88C2DC" stroke="#1D1D1D" stroke-width="2"/>
<path d="M139.031 84.9688L143.631 82.3688C143.931 82.1688 144.131 82.0688 144.231 82.0688C144.731 81.6688 144.831 81.0688 144.631 80.4688C144.631 80.3688 144.531 80.1688 144.331 79.8688C143.831 78.9688 143.531 78.4688 143.331 78.1688C142.131 76.7688 140.331 76.2688 138.531 76.8688C138.331 76.9688 138.131 76.9688 137.931 77.0688C138.031 77.1688 138.031 77.2688 138.031 77.4688L139.031 84.9688Z" fill="#1D1D1D"/>
<path d="M129.531 81.768L135.931 78.168L136.931 85.668C136.931 85.868 137.031 85.968 137.031 86.068L130.631 89.668L129.631 82.168C129.631 82.068 129.631 81.968 129.531 81.768Z" fill="#1D1D1D"/>
<path fill-rule="evenodd" clip-rule="evenodd" d="M141.831 88.7687L124.531 93.1687L126.331 100.369C127.331 104.469 127.831 106.469 129.431 107.469C131.031 108.469 133.031 107.869 137.131 106.869L142.931 105.369C147.031 104.369 149.031 103.869 150.031 102.269C150.931 100.669 150.431 98.6687 149.431 94.5687L149.031 93.1687C148.331 90.4687 148.031 89.0687 146.931 88.4687C145.831 87.7687 144.531 88.0687 141.831 88.7687ZM138.731 95.9687C140.131 96.4687 140.731 96.7687 140.931 97.3687C141.131 97.9687 140.631 98.5687 139.631 99.6687C138.731 100.769 138.231 101.369 137.731 101.169C137.231 100.969 137.031 100.169 136.631 98.4687C136.231 96.8687 136.031 95.9687 136.331 95.5687C136.731 95.1687 137.331 95.4687 138.731 95.9687Z" fill="#1D1D1D"/>
<path d="M128.531 90.3691C128.531 90.5691 128.631 90.6691 128.631 90.7691L124.531 93.0691C123.131 90.6691 122.531 89.4691 122.531 88.2691C122.531 87.4691 122.731 86.7691 123.131 86.0691C123.731 85.0691 124.931 84.3691 127.331 82.9691L127.431 82.8691L128.531 90.3691Z" fill="#1D1D1D"/>
<path d="M195.331 163.27C162.431 178.57 122.531 213.87 88.4307 270.27L61.3307 246.77C57.1307 243.07 50.4307 243.87 47.2307 248.47L32.1307 270.17C29.2307 274.47 30.2307 280.37 34.3307 283.47L94.4307 328.47C99.4307 332.27 106.531 330.17 109.031 324.27C131.531 268.87 157.831 226.27 204.331 175.67C210.131 169.47 203.031 159.77 195.331 163.27Z" fill="#F8F3EF" stroke="#1D1D1D" stroke-width="2" stroke-miterlimit="10" stroke-linecap="round" stroke-linejoin="round"/>
<path d="M210.731 74.3691L220.531 75.2691C220.831 75.2691 221.131 75.3691 221.331 75.3691C222.831 75.6691 224.031 76.6691 224.431 78.0691L206.331 76.3691C207.031 75.1691 208.331 74.3691 209.931 74.3691C210.131 74.3691 210.331 74.3691 210.731 74.3691Z" fill="#1D1D1D"/>
<path d="M207.231 77.9688C205.331 77.7688 203.531 78.7688 202.931 80.2688V80.3688C203.531 80.2688 204.131 80.1688 204.731 80.1688C206.231 80.0688 208.131 80.2688 210.431 80.4688L220.031 81.3688C222.231 81.5688 224.131 81.7688 225.631 82.0688C226.231 82.1688 226.731 82.3688 227.331 82.5688V82.4688C226.931 80.8688 225.431 79.5688 223.531 79.3688L207.231 77.9688Z" fill="#1D1D1D"/>
<path fill-rule="evenodd" clip-rule="evenodd" d="M210.131 82.1696L219.431 83.0696C224.131 83.4696 226.531 83.7696 227.731 85.2696C228.931 86.7696 228.431 88.8696 227.431 93.0696L226.431 97.0696C225.631 100.37 225.231 101.97 223.831 102.87C222.531 103.77 220.631 103.57 216.931 103.27L208.831 102.47C205.131 102.17 203.231 101.97 202.131 100.87C200.931 99.7696 200.931 98.0696 200.731 94.6696L200.531 90.5696C200.331 86.2696 200.231 84.0696 201.631 82.8696C203.131 81.4696 205.431 81.7696 210.131 82.1696ZM215.531 86.8696C215.631 86.2696 215.131 85.7696 214.631 85.7696C214.031 85.6696 213.531 86.1696 213.531 86.7696L212.931 92.8696C212.631 92.7696 212.231 92.6696 211.931 92.5696C210.231 92.3696 208.631 93.6696 208.531 95.4696C208.431 97.2696 209.631 98.7696 211.431 98.8696C213.231 98.9696 214.731 97.7696 214.831 95.9696L215.331 90.8696C216.231 91.6696 217.331 92.3696 218.331 92.4696C218.931 92.5696 219.431 92.0696 219.431 91.4696C219.431 90.8696 219.031 90.3696 218.531 90.3696C218.131 90.3696 217.331 89.9696 216.631 89.1696C215.831 88.4696 215.431 87.5696 215.531 86.8696Z" fill="#1D1D1D"/>
<path fill-rule="evenodd" clip-rule="evenodd" d="M280.431 94.4688L279.831 93.7688C278.931 92.6688 277.831 91.9688 276.531 91.5688L275.631 91.2688C275.031 91.0688 274.431 90.9688 273.831 90.9688C269.931 91.2688 266.231 95.1688 263.431 105.569C262.831 107.669 262.731 110.169 264.331 111.569C264.831 111.969 265.431 112.369 266.231 112.669C267.131 112.969 268.031 112.869 268.731 112.669C269.431 112.469 270.131 112.069 270.831 111.669C271.631 111.169 272.531 110.769 273.431 110.569C274.431 110.369 275.431 110.369 276.431 110.669L279.431 111.469C280.431 111.769 281.331 112.269 282.031 112.969C282.731 113.569 283.231 114.469 283.631 115.269C284.031 115.969 284.431 116.569 284.931 117.169C285.431 117.669 286.031 118.169 287.031 118.469C287.831 118.669 288.531 118.669 289.231 118.569C291.331 118.169 292.531 116.069 293.131 113.969C296.231 103.569 295.131 98.3688 291.931 96.0688C291.431 95.6688 290.831 95.4688 290.231 95.3688L289.331 95.0688C288.031 94.6688 286.631 94.7687 285.331 95.1687L284.431 95.4688C283.731 95.6687 283.031 95.7688 282.231 95.5688C281.531 95.4688 280.931 95.0687 280.431 94.4688ZM288.231 101.269C288.831 101.469 289.231 102.069 289.031 102.669C288.831 103.269 288.231 103.669 287.631 103.469C287.031 103.269 286.631 102.669 286.831 102.069C287.031 101.469 287.631 101.169 288.231 101.269ZM274.431 97.7688C275.031 97.9688 275.431 98.5687 275.231 99.1687L274.931 100.269L276.031 100.569C276.631 100.769 277.031 101.369 276.831 101.969C276.631 102.569 276.031 102.969 275.431 102.769L274.331 102.469L274.031 103.569C273.831 104.169 273.231 104.569 272.631 104.369C272.031 104.169 271.631 103.569 271.831 102.969L272.131 101.869L271.031 101.569C270.431 101.369 270.031 100.769 270.231 100.169C270.431 99.5687 271.031 99.1688 271.631 99.3688L272.731 99.6687L273.031 98.5688C273.231 97.9688 273.831 97.6688 274.431 97.7688ZM290.631 105.569C290.431 106.169 289.831 106.569 289.231 106.369C288.631 106.169 288.231 105.569 288.431 104.969C288.631 104.369 289.231 103.969 289.831 104.169C290.531 104.369 290.831 104.969 290.631 105.569ZM284.831 105.169C285.431 105.369 286.131 104.969 286.231 104.369C286.431 103.769 286.031 103.069 285.431 102.969C284.831 102.769 284.131 103.169 284.031 103.769C283.831 104.269 284.131 104.969 284.831 105.169ZM287.831 107.169C288.031 106.569 287.631 105.869 287.031 105.769C286.431 105.669 285.731 105.969 285.631 106.569C285.531 107.169 285.831 107.869 286.431 107.969C287.031 108.169 287.631 107.769 287.831 107.169Z" fill="#1D1D1D"/>
</svg>
