<svg width="25" height="24" viewBox="0 0 25 24" fill="none" xmlns="http://www.w3.org/2000/svg">
<path fill-rule="evenodd" clip-rule="evenodd" d="M12.5 22C18.0228 22 22.5 17.5228 22.5 12C22.5 6.47715 18.0228 2 12.5 2C6.97715 2 2.5 6.47715 2.5 12C2.5 17.5228 6.97715 22 12.5 22ZM14.4563 14.0949C14.263 14.2644 14.0167 14.3629 13.524 14.56C11.2142 15.4839 10.0594 15.9459 9.39971 15.4976C9.2433 15.3913 9.1084 15.2564 9.00212 15.1C8.55386 14.4404 9.01582 13.2855 9.93973 10.9757C10.1368 10.483 10.2353 10.2367 10.4048 10.0434C10.448 9.99419 10.4943 9.94782 10.5436 9.90464C10.7368 9.73517 10.9832 9.63663 11.4759 9.43956C13.7856 8.51565 14.9405 8.0537 15.6002 8.50196C15.7566 8.60824 15.8915 8.74314 15.9978 8.89954C16.446 9.5592 15.9841 10.7141 15.0602 13.0239C14.8631 13.5165 14.7646 13.7629 14.5951 13.9561C14.5519 14.0054 14.5055 14.0517 14.4563 14.0949Z" fill="#FFFFFF"/>
</svg>
