<svg width="25" height="24" viewBox="0 0 25 24" fill="none" xmlns="http://www.w3.org/2000/svg">
<path d="M2.5 5C2.5 4.05719 2.5 3.58579 2.79289 3.29289C3.08579 3 3.55719 3 4.5 3H20.5C21.4428 3 21.9142 3 22.2071 3.29289C22.5 3.58579 22.5 4.05719 22.5 5C22.5 5.94281 22.5 6.41421 22.2071 6.70711C21.9142 7 21.4428 7 20.5 7H4.5C3.55719 7 3.08579 7 2.79289 6.70711C2.5 6.41421 2.5 5.94281 2.5 5Z" fill="#1D1D1D"/>
<path fill-rule="evenodd" clip-rule="evenodd" d="M20.5689 8.50006C20.7101 8.50011 20.8551 8.50017 21 8.49817V13C21 16.7713 21 18.6569 19.8284 19.8284C18.6569 21 16.7712 21 13 21H12C8.22876 21 6.34315 21 5.17157 19.8284C4 18.6569 4 16.7713 4 13V8.49817C4.14488 8.50017 4.28999 8.50011 4.43114 8.50006H20.5689ZM9.5 12C9.5 11.5341 9.5 11.3011 9.57612 11.1173C9.67761 10.8723 9.87229 10.6776 10.1173 10.5761C10.3011 10.5 10.5341 10.5 11 10.5H14C14.4659 10.5 14.6989 10.5 14.8827 10.5761C15.1277 10.6776 15.3224 10.8723 15.4239 11.1173C15.5 11.3011 15.5 11.5341 15.5 12C15.5 12.4659 15.5 12.6989 15.4239 12.8827C15.3224 13.1277 15.1277 13.3224 14.8827 13.4239C14.6989 13.5 14.4659 13.5 14 13.5H11C10.5341 13.5 10.3011 13.5 10.1173 13.4239C9.87229 13.3224 9.67761 13.1277 9.57612 12.8827C9.5 12.6989 9.5 12.4659 9.5 12Z" fill="#1D1D1D"/>
</svg>
