<svg width="25" height="24" viewBox="0 0 25 24" fill="none" xmlns="http://www.w3.org/2000/svg">
<g clip-path="url(#clip0_9504_34432)">
<path d="M6.18359 11.5967C6.18359 11.3403 6.27588 11.1045 6.4707 10.9199L14.6021 2.96289C14.7764 2.78857 15.002 2.69629 15.2686 2.69629C15.8018 2.69629 16.2119 3.09619 16.2119 3.62939C16.2119 3.88574 16.0991 4.12158 15.9351 4.2959L8.47021 11.5967L15.9351 18.8975C16.0991 19.0718 16.2119 19.2974 16.2119 19.564C16.2119 20.0972 15.8018 20.4971 15.2686 20.4971C15.002 20.4971 14.7764 20.4048 14.6021 20.2202L6.4707 12.2734C6.27588 12.0786 6.18359 11.853 6.18359 11.5967Z" fill="#1D1D1D"/>
</g>
<defs>
<clipPath id="clip0_9504_34432">
<rect width="24" height="24" fill="white" transform="translate(0.5)"/>
</clipPath>
</defs>
</svg>
