<svg width="25" height="24" viewBox="0 0 25 24" fill="none" xmlns="http://www.w3.org/2000/svg">
<path d="M6.15517 2.22732C5.7225 2.34037 5.4438 2.50021 5.22718 2.71244C4.92179 3.01165 4.72268 3.43172 4.61382 4.225C4.50176 5.04159 4.5 6.12387 4.5 7.67568V16.2442C4.88867 15.9781 5.32674 15.7756 5.79899 15.6517C5.91296 15.6217 6.03103 15.5983 6.15517 15.5799V2.22732Z" fill="#1D1D1D"/>
<path d="M7.81034 15.5135C7.82206 15.5135 7.83382 15.5135 7.84563 15.5135L20.5 15.5135V7.67568C20.5 6.12387 20.4982 5.04159 20.3862 4.22499C20.2773 3.43172 20.0782 3.01165 19.7728 2.71244C19.4674 2.41324 19.0387 2.21816 18.229 2.11151C17.3955 2.00172 16.2908 2 14.7069 2H10.2931C9.29138 2 8.48133 2.00069 7.81034 2.02897V15.5135Z" fill="#1D1D1D"/>
<path d="M7.97341 17.1351C6.89395 17.1351 6.51657 17.1421 6.22738 17.218C5.43365 17.4264 4.80088 18.0044 4.52952 18.7558C4.5463 19.1382 4.57259 19.4746 4.61382 19.775C4.72268 20.5683 4.92179 20.9884 5.22718 21.2876C5.53258 21.5868 5.96135 21.7818 6.77103 21.8885C7.60452 21.9983 8.7092 22 10.2931 22H14.7069C16.2908 22 17.3955 21.9983 18.229 21.8885C19.0387 21.7818 19.4674 21.5868 19.7728 21.2876C20.0782 20.9884 20.2773 20.5683 20.3862 19.775C20.4776 19.1088 20.4956 18.2657 20.4991 17.1351H7.97341Z" fill="#1D1D1D"/>
</svg>
