<svg width="25" height="24" viewBox="0 0 25 24" fill="none" xmlns="http://www.w3.org/2000/svg">
<path fill-rule="evenodd" clip-rule="evenodd" d="M3.96447 3.46447C2.5 4.92893 2.5 7.28595 2.5 12C2.5 16.714 2.5 19.0711 3.96447 20.5355C5.42893 22 7.78595 22 12.5 22C17.214 22 19.5711 22 21.0355 20.5355C22.5 19.0711 22.5 16.714 22.5 12C22.5 7.28595 22.5 4.92893 21.0355 3.46447C19.5711 2 17.214 2 12.5 2C7.78595 2 5.42893 2 3.96447 3.46447ZM11.0431 7.51724C11.3288 7.2173 11.3172 6.74256 11.0172 6.4569C10.7173 6.17123 10.2426 6.18281 9.9569 6.48276L7.64286 8.9125L7.0431 8.28276C6.75744 7.98281 6.28271 7.97123 5.98276 8.2569C5.68281 8.54256 5.67123 9.01729 5.9569 9.31724L7.09976 10.5172C7.24131 10.6659 7.4376 10.75 7.64286 10.75C7.84812 10.75 8.0444 10.6659 8.18596 10.5172L11.0431 7.51724ZM13.5 8.25C13.0858 8.25 12.75 8.58579 12.75 9C12.75 9.41422 13.0858 9.75 13.5 9.75H18.5C18.9142 9.75 19.25 9.41422 19.25 9C19.25 8.58579 18.9142 8.25 18.5 8.25H13.5ZM11.0431 14.5172C11.3288 14.2173 11.3172 13.7426 11.0172 13.4569C10.7173 13.1712 10.2426 13.1828 9.9569 13.4828L7.64286 15.9125L7.0431 15.2828C6.75744 14.9828 6.28271 14.9712 5.98276 15.2569C5.68281 15.5426 5.67123 16.0173 5.9569 16.3172L7.09976 17.5172C7.24131 17.6659 7.4376 17.75 7.64286 17.75C7.84812 17.75 8.0444 17.6659 8.18596 17.5172L11.0431 14.5172ZM13.5 15.25C13.0858 15.25 12.75 15.5858 12.75 16C12.75 16.4142 13.0858 16.75 13.5 16.75H18.5C18.9142 16.75 19.25 16.4142 19.25 16C19.25 15.5858 18.9142 15.25 18.5 15.25H13.5Z" fill="#1D1D1D"/>
</svg>
