<svg width="25" height="24" viewBox="0 0 25 24" fill="none" xmlns="http://www.w3.org/2000/svg">
<path d="M15.3412 8.09511L18.7487 7.18208C18.9731 7.12195 19.0853 7.09188 19.1736 7.04832C19.5364 6.86943 19.7557 6.48964 19.7292 6.08604C19.7228 5.98776 19.6927 5.87556 19.6326 5.65114C19.4522 4.97791 19.362 4.64129 19.2313 4.37629C18.6946 3.28804 17.5553 2.63022 16.3445 2.70958C16.2213 2.71766 16.0907 2.73811 15.9314 2.77235C15.9505 2.85465 15.9558 2.94159 15.9452 3.0303L15.3412 8.09511Z" fill="#1D1D1D"/>
<path d="M9.65025 4.44361L14.4184 3.16598L13.818 8.19993C13.8058 8.30276 13.8149 8.40322 13.842 8.49682L9.06266 9.77744L9.66673 4.71262C9.67779 4.61993 9.67143 4.52917 9.65025 4.44361Z" fill="#1D1D1D"/>
<path fill-rule="evenodd" clip-rule="evenodd" d="M16.5 11H4.5V16C4.5 18.8284 4.5 20.2426 5.37868 21.1213C6.25736 22 7.67157 22 10.5 22H14.5C17.3284 22 18.7426 22 19.6213 21.1213C20.5 20.2426 20.5 18.8284 20.5 16V15C20.5 13.1144 20.5 12.1716 19.9142 11.5858C19.3284 11 18.3856 11 16.5 11ZM13.3084 15.2235C14.1028 15.793 14.5 16.0778 14.5 16.5C14.5 16.9222 14.1028 17.207 13.3084 17.7765C12.5031 18.3538 12.1005 18.6425 11.8002 18.4305C11.5 18.2186 11.5 17.6457 11.5 16.5C11.5 15.3543 11.5 14.7814 11.8002 14.5695C12.1005 14.3575 12.5031 14.6462 13.3084 15.2235Z" fill="#1D1D1D"/>
<path d="M7.53953 9.88225C7.52727 9.98509 7.53643 10.0855 7.56349 10.1791L4.50128 10.9997C4.01749 9.19412 3.77559 8.29135 3.98364 7.51489C4.11994 7.00623 4.38773 6.5424 4.7601 6.17003C5.32851 5.60162 6.23128 5.35973 8.03682 4.87593L8.13992 4.84831L7.53953 9.88225Z" fill="#1D1D1D"/>
</svg>
