<svg width="28" height="28" viewBox="0 0 28 28" fill="none" xmlns="http://www.w3.org/2000/svg">
<path d="M14 1C21.1797 1 27 6.8203 27 14C27 21.1797 21.1797 27 14 27C6.8203 27 1 21.1797 1 14C1 6.8203 6.8203 1 14 1Z" fill="#C7A3FF"/>
<path d="M14 1C21.1797 1 27 6.8203 27 14C27 21.1797 21.1797 27 14 27C6.8203 27 1 21.1797 1 14C1 6.8203 6.8203 1 14 1Z" stroke="#F8F3EF" stroke-width="2"/>
<path d="M12.8105 18.8488C13.0226 18.6833 13.215 18.4909 13.5997 18.1061L18.5303 13.1756C17.8593 12.8963 17.0645 12.4375 16.3128 11.6858C15.561 10.934 15.1022 10.1391 14.8229 9.46797L9.89222 14.3986L9.8922 14.3987C9.50745 14.7834 9.31506 14.9758 9.14961 15.1879C8.95443 15.4382 8.7871 15.7089 8.65057 15.9954C8.53483 16.2382 8.44879 16.4963 8.27671 17.0126L7.36931 19.7348C7.28463 19.9888 7.35074 20.2689 7.5401 20.4583C7.72945 20.6476 8.00953 20.7137 8.26357 20.6291L10.9858 19.7217C11.502 19.5496 11.7601 19.4635 12.003 19.3478C12.2895 19.2113 12.5602 19.0439 12.8105 18.8488Z" fill="#1D1D1D"/>
<path d="M19.8985 11.8074C20.9223 10.7836 20.9223 9.12369 19.8985 8.09988C18.8747 7.07608 17.2148 7.07608 16.191 8.09988L15.5996 8.69124C15.6077 8.7157 15.6161 8.74049 15.6248 8.7656C15.8416 9.39036 16.2505 10.2094 17.0199 10.9787C17.7892 11.7481 18.6082 12.157 19.233 12.3738C19.258 12.3824 19.2827 12.3908 19.307 12.3989L19.8985 11.8074Z" fill="#1D1D1D"/>
</svg>
