<svg width="25" height="24" viewBox="0 0 25 24" fill="none" xmlns="http://www.w3.org/2000/svg">
<path fill-rule="evenodd" clip-rule="evenodd" d="M22.7954 6.31059C23.1761 6.47376 23.3524 6.91467 23.1893 7.29539L22.4999 6.99995C23.1893 7.29539 23.1894 7.29521 23.1893 7.29539L23.1886 7.29707L23.1875 7.29955L23.1843 7.30691L23.1736 7.33099C23.1646 7.35112 23.1518 7.37934 23.1352 7.41502C23.1019 7.48637 23.0533 7.58769 22.9888 7.7141C22.8599 7.96675 22.6675 8.32063 22.4084 8.73641C21.9828 9.41945 21.3724 10.2776 20.5619 11.1301L21.5303 12.0985C21.8231 12.3913 21.8231 12.8662 21.5303 13.1591C21.2374 13.452 20.7625 13.452 20.4696 13.1591L19.469 12.1585C18.8093 12.7112 18.0528 13.23 17.195 13.6562L18.1286 15.0909C18.3545 15.4381 18.2562 15.9027 17.909 16.1286C17.5618 16.3545 17.0972 16.2562 16.8713 15.909L15.7821 14.2351C15.0028 14.4896 14.159 14.6626 13.2499 14.7246V16.4999C13.2499 16.9142 12.9141 17.2499 12.4999 17.2499C12.0857 17.2499 11.7499 16.9142 11.7499 16.4999V14.7246C10.8689 14.6645 10.0491 14.5002 9.28982 14.2584L8.21575 15.9091C7.98984 16.2562 7.52526 16.3546 7.17807 16.1287C6.83089 15.9027 6.73257 15.4382 6.95847 15.091L7.87089 13.6887C7.0065 13.2666 6.24381 12.7501 5.57842 12.1982L4.61744 13.1592C4.32455 13.4521 3.84968 13.4521 3.55678 13.1592C3.26389 12.8663 3.26389 12.3914 3.55678 12.0985L4.48055 11.1748C3.65599 10.3151 3.03525 9.4465 2.60277 8.75462C2.33984 8.33398 2.1446 7.97559 2.01388 7.71964C1.94848 7.59157 1.8991 7.48889 1.86537 7.41658C1.8485 7.38042 1.83553 7.35183 1.82641 7.33143L1.81562 7.30704L1.81238 7.29959L1.81129 7.29708L1.81088 7.29613C1.81081 7.29595 1.81056 7.29539 2.49992 6.99995L1.81088 7.29613C1.64772 6.91541 1.82376 6.47376 2.20448 6.31059C2.58489 6.14756 3.02539 6.3235 3.18888 6.70357C3.18882 6.70344 3.18894 6.7037 3.18888 6.70357L3.18983 6.70576L3.19591 6.71947C3.2018 6.73267 3.2114 6.75386 3.22472 6.78243C3.25139 6.83959 3.29296 6.9262 3.34976 7.03742C3.46345 7.26004 3.63762 7.58022 3.87472 7.95955C4.35033 8.72042 5.07157 9.70704 6.05561 10.6215C6.92151 11.4263 7.98259 12.1675 9.25165 12.6558C10.2061 13.023 11.2854 13.2499 12.4999 13.2499C13.7416 13.2499 14.842 13.0127 15.8124 12.6308C17.0738 12.1343 18.1277 11.3882 18.9866 10.5819C19.9562 9.67191 20.6668 8.69511 21.1354 7.94315C21.369 7.56825 21.5405 7.25221 21.6525 7.03262C21.7085 6.9229 21.7494 6.83752 21.7757 6.78119C21.7888 6.75304 21.7983 6.73217 21.8041 6.71919L21.81 6.70571L21.8106 6.70451C21.8105 6.70461 21.8106 6.70441 21.8106 6.70451M22.7954 6.31059C22.4147 6.14746 21.9738 6.32399 21.8106 6.70451L22.7954 6.31059ZM3.18888 6.70357C3.18882 6.70344 3.18894 6.7037 3.18888 6.70357V6.70357Z" fill="#1D1D1D"/>
</svg>
