<svg width="25" height="24" viewBox="0 0 25 24" fill="none" xmlns="http://www.w3.org/2000/svg">
<path fill-rule="evenodd" clip-rule="evenodd" d="M3.96447 3.46447C2.5 4.92893 2.5 7.28595 2.5 12C2.5 16.714 2.5 19.0711 3.96447 20.5355C5.42893 22 7.78595 22 12.5 22C17.214 22 19.5711 22 21.0355 20.5355C22.5 19.0711 22.5 16.714 22.5 12C22.5 7.28595 22.5 4.92893 21.0355 3.46447C19.5711 2 17.214 2 12.5 2C7.78595 2 5.42893 2 3.96447 3.46447ZM14.25 10C14.25 10.4142 14.5858 10.75 15 10.75H15.6893L13.6768 12.7626C13.5791 12.8602 13.4209 12.8602 13.3232 12.7626L11.7374 11.1768C11.054 10.4934 9.94598 10.4934 9.26256 11.1768L6.96967 13.4697C6.67678 13.7626 6.67678 14.2374 6.96967 14.5303C7.26256 14.8232 7.73744 14.8232 8.03033 14.5303L10.3232 12.2374C10.4209 12.1398 10.5791 12.1398 10.6768 12.2374L12.2626 13.8232C12.946 14.5066 14.054 14.5066 14.7374 13.8232L16.75 11.8107V12.5C16.75 12.9142 17.0858 13.25 17.5 13.25C17.9142 13.25 18.25 12.9142 18.25 12.5V10C18.25 9.58579 17.9142 9.25 17.5 9.25H15C14.5858 9.25 14.25 9.58579 14.25 10Z" fill="#1D1D1D"/>
</svg>
