<svg width="25" height="24" viewBox="0 0 25 24" fill="none" xmlns="http://www.w3.org/2000/svg">
<path fill-rule="evenodd" clip-rule="evenodd" d="M22.5 12C22.5 17.5228 18.0228 22 12.5 22C6.97715 22 2.5 17.5228 2.5 12C2.5 6.47715 6.97715 2 12.5 2C18.0228 2 22.5 6.47715 22.5 12ZM12.5 17.75C12.9142 17.75 13.25 17.4142 13.25 17V11C13.25 10.5858 12.9142 10.25 12.5 10.25C12.0858 10.25 11.75 10.5858 11.75 11V17C11.75 17.4142 12.0858 17.75 12.5 17.75ZM12.5 7C13.0523 7 13.5 7.44772 13.5 8C13.5 8.55228 13.0523 9 12.5 9C11.9477 9 11.5 8.55228 11.5 8C11.5 7.44772 11.9477 7 12.5 7Z" fill="#1D1D1D"/>
</svg>
