<svg width="25" height="24" viewBox="0 0 25 24" fill="none" xmlns="http://www.w3.org/2000/svg">
<path d="M16.6429 1.25C16.2286 1.25 15.8929 1.58579 15.8929 2C15.8929 2.41421 16.2286 2.75 16.6429 2.75H20.6893L14.9697 8.46967C14.6768 8.76256 14.6768 9.23744 14.9697 9.53033C15.2626 9.82322 15.7374 9.82322 16.0303 9.53033L21.75 3.81066V7.85714C21.75 8.27136 22.0858 8.60714 22.5 8.60714C22.9142 8.60714 23.25 8.27136 23.25 7.85714V2C23.25 1.58579 22.9142 1.25 22.5 1.25H16.6429Z" fill="#1D1D1D"/>
<path d="M8.35714 22.75C8.77136 22.75 9.10714 22.4142 9.10714 22C9.10714 21.5858 8.77136 21.25 8.35714 21.25H4.31066L10.0303 15.5303C10.3232 15.2374 10.3232 14.7626 10.0303 14.4697C9.73744 14.1768 9.26256 14.1768 8.96967 14.4697L3.25 20.1893V16.1429C3.25 15.7286 2.91421 15.3929 2.5 15.3929C2.08579 15.3929 1.75 15.7286 1.75 16.1429V22C1.75 22.4142 2.08579 22.75 2.5 22.75H8.35714Z" fill="#1D1D1D"/>
</svg>
