<svg width="25" height="24" viewBox="0 0 25 24" fill="none" xmlns="http://www.w3.org/2000/svg">
<path d="M9.00989 2.00001H15.99C16.2225 1.99995 16.4007 1.99991 16.5565 2.01515C17.6643 2.12352 18.5711 2.78958 18.9556 3.68678H6.04428C6.42879 2.78958 7.33555 2.12352 8.44337 2.01515C8.59917 1.99991 8.77741 1.99995 9.00989 2.00001Z" fill="#1D1D1D"/>
<path d="M6.81052 4.72312C5.41989 4.72312 4.27963 5.56287 3.8991 6.67691C3.89117 6.70013 3.88356 6.72348 3.87629 6.74693C4.27444 6.62636 4.68881 6.54759 5.10827 6.49382C6.18865 6.35531 7.55399 6.35538 9.14002 6.35547H16.0321C17.6181 6.35538 18.9835 6.35531 20.0639 6.49382C20.4833 6.54759 20.8977 6.62636 21.2958 6.74693C21.2886 6.72348 21.281 6.70013 21.273 6.67691C20.8925 5.56287 19.7522 4.72312 18.3616 4.72312H6.81052Z" fill="#1D1D1D"/>
<path d="M11.75 17C11.75 16.5858 11.4142 16.25 11 16.25C10.5858 16.25 10.25 16.5858 10.25 17C10.25 17.4142 10.5858 17.75 11 17.75C11.4142 17.75 11.75 17.4142 11.75 17Z" fill="#1D1D1D"/>
<path fill-rule="evenodd" clip-rule="evenodd" d="M9.17239 7.54204H15.8276C19.2024 7.54204 20.8898 7.54204 21.8377 8.52887C22.7855 9.51569 22.5625 11.0404 22.1165 14.0896L21.6935 16.9811C21.3437 19.3724 21.1689 20.568 20.2717 21.284C19.3745 22 18.0512 22 15.4046 22H9.59534C6.9488 22 5.62553 22 4.72834 21.284C3.83115 20.568 3.65626 19.3724 3.30648 16.9811L2.88351 14.0896C2.43748 11.0403 2.21447 9.5157 3.16232 8.52887C4.11017 7.54204 5.79758 7.54204 9.17239 7.54204ZM13.25 10.5C13.25 10.0858 12.9142 9.75 12.5 9.75C12.0858 9.75 11.75 10.0858 11.75 10.5V14.878C11.5154 14.7951 11.263 14.75 11 14.75C9.75736 14.75 8.75 15.7574 8.75 17C8.75 18.2426 9.75736 19.25 11 19.25C12.2426 19.25 13.25 18.2426 13.25 17V13.3197C13.9202 13.8634 14.7617 14.25 15.5 14.25C15.9142 14.25 16.25 13.9142 16.25 13.5C16.25 13.0858 15.9142 12.75 15.5 12.75C15.1946 12.75 14.6145 12.5314 14.0835 12.0603C13.5654 11.6006 13.25 11.0386 13.25 10.5Z" fill="#1D1D1D"/>
</svg>
