<svg width="25" height="24" viewBox="0 0 25 24" fill="none" xmlns="http://www.w3.org/2000/svg">
<path d="M2.5 16.1436V4.9978C2.5 3.89963 3.3863 3.00752 4.4824 3.07489C5.45877 3.1349 6.61349 3.25351 7.5 3.48744C8.54921 3.76431 9.79611 4.35401 10.7823 4.87546C11.0893 5.03782 11.4158 5.15044 11.75 5.21394L11.75 20.3926C11.4471 20.3258 11.1515 20.218 10.8724 20.0692C9.87293 19.5365 8.58145 18.9187 7.5 18.6334C6.62329 18.402 5.48428 18.2835 4.51486 18.2228C3.40605 18.1535 2.5 17.2546 2.5 16.1436Z" fill="#1D1D1D"/>
<path d="M13.25 20.3926C13.5529 20.3258 13.8485 20.218 14.1276 20.0692C15.1271 19.5365 16.4185 18.9187 17.5 18.6334C18.3767 18.402 19.5157 18.2835 20.4851 18.2228C21.594 18.1535 22.5 17.2546 22.5 16.1436V4.93319C22.5 3.86075 21.6538 2.98041 20.582 3.01775C19.4534 3.05706 18.0469 3.17403 17 3.48744C16.0924 3.75916 15.0353 4.30418 14.1738 4.80275C13.8824 4.97145 13.5708 5.09535 13.25 5.17391L13.25 20.3926Z" fill="#1D1D1D"/>
</svg>
