<svg width="25" height="24" viewBox="0 0 25 24" fill="none" xmlns="http://www.w3.org/2000/svg">
<path fill-rule="evenodd" clip-rule="evenodd" d="M3.67157 5.17157C2.5 6.34315 2.5 8.22876 2.5 12C2.5 15.7712 2.5 17.6569 3.67157 18.8284C4.84315 20 6.72876 20 10.5 20H14.5C18.2712 20 20.1569 20 21.3284 18.8284C22.5 17.6569 22.5 15.7712 22.5 12C22.5 8.22876 22.5 6.34315 21.3284 5.17157C20.1569 4 18.2712 4 14.5 4H10.5C6.72876 4 4.84315 4 3.67157 5.17157ZM8.5 13C9.05228 13 9.5 12.5523 9.5 12C9.5 11.4477 9.05228 11 8.5 11C7.94772 11 7.5 11.4477 7.5 12C7.5 12.5523 7.94772 13 8.5 13ZM13.5 12C13.5 12.5523 13.0523 13 12.5 13C11.9477 13 11.5 12.5523 11.5 12C11.5 11.4477 11.9477 11 12.5 11C13.0523 11 13.5 11.4477 13.5 12ZM16.5 13C17.0523 13 17.5 12.5523 17.5 12C17.5 11.4477 17.0523 11 16.5 11C15.9477 11 15.5 11.4477 15.5 12C15.5 12.5523 15.9477 13 16.5 13Z" fill="#1D1D1D"/>
</svg>
