<svg width="25" height="24" viewBox="0 0 25 24" fill="none" xmlns="http://www.w3.org/2000/svg">
<path fill-rule="evenodd" clip-rule="evenodd" d="M2.75 6C2.75 5.58579 3.08579 5.25 3.5 5.25H20.5C20.9142 5.25 21.25 5.58579 21.25 6C21.25 6.41421 20.9142 6.75 20.5 6.75H3.5C3.08579 6.75 2.75 6.41421 2.75 6ZM2.75 11C2.75 10.5858 3.08579 10.25 3.5 10.25H10.5C10.9142 10.25 11.25 10.5858 11.25 11C11.25 11.4142 10.9142 11.75 10.5 11.75H3.5C3.08579 11.75 2.75 11.4142 2.75 11ZM2.75 16C2.75 15.5858 3.08579 15.25 3.5 15.25H10.5C10.9142 15.25 11.25 15.5858 11.25 16C11.25 16.4142 10.9142 16.75 10.5 16.75H3.5C3.08579 16.75 2.75 16.4142 2.75 16Z" fill="#1D1D1D"/>
<path d="M19.625 10.6854C21.267 11.6334 22.088 12.1074 22.3478 12.7346C22.5507 13.2247 22.5507 13.7753 22.3478 14.2654C22.088 14.8926 21.267 15.3666 19.625 16.3146C17.983 17.2626 17.162 17.7366 16.4889 17.648C15.9631 17.5787 15.4862 17.3034 15.1633 16.8826C14.75 16.344 14.75 15.396 14.75 13.5C14.75 11.604 14.75 10.656 15.1633 10.1174C15.4862 9.69659 15.9631 9.42128 16.4889 9.35205C17.162 9.26343 17.983 9.73743 19.625 10.6854Z" fill="#1D1D1D"/>
</svg>
