<svg width="25" height="24" viewBox="0 0 25 24" fill="none" xmlns="http://www.w3.org/2000/svg">
<path d="M11.3372 10.5455C11.3372 10.1438 11.0248 9.81818 10.6395 9.81818H9.08141C9.40462 8.15837 10.8124 6.90909 12.5 6.90909C14.1876 6.90909 15.5954 8.15837 15.9186 9.81818H13.4302C13.0449 9.81818 12.7326 10.1438 12.7326 10.5455C12.7326 10.9471 13.0449 11.2727 13.4302 11.2727H15.9884V12.7273H13.4302C13.0449 12.7273 12.7326 13.0529 12.7326 13.4545C12.7326 13.8562 13.0449 14.1818 13.4302 14.1818H15.9186C15.6411 15.6066 14.5645 16.7289 13.1977 17.0182V19.2727C13.1977 19.6744 12.8853 20 12.5 20C12.1147 20 11.8023 19.6744 11.8023 19.2727V17.0182C10.4355 16.7289 9.35886 15.6066 9.08141 14.1818H10.6395C11.0248 14.1818 11.3372 13.8562 11.3372 13.4545C11.3372 13.0529 11.0248 12.7273 10.6395 12.7273H9.01163V11.2727H10.6395C11.0248 11.2727 11.3372 10.9471 11.3372 10.5455Z" fill="#1D1D1D"/>
<path d="M12.5 4C9.17054 4 6.44634 6.70128 6.23422 10.1161C5.88211 9.92573 5.48218 9.81818 5.05814 9.81818C3.64532 9.81818 2.5 11.0121 2.5 12.4848V14.4242C2.5 15.897 3.64532 17.0909 5.05814 17.0909C5.10616 17.0909 5.15388 17.0895 5.20125 17.0868V17.0909C6.53503 17.0909 7.61628 15.9638 7.61628 14.5734V10.5454C7.61628 7.73382 9.80279 5.45455 12.5 5.45455C15.1972 5.45455 17.3837 7.73382 17.3837 10.5454V14.5734C17.3837 15.9638 18.4649 17.0909 19.7987 17.0909V17.0868C19.8461 17.0895 19.8938 17.0909 19.9419 17.0909C21.3547 17.0909 22.5 15.897 22.5 14.4242V12.4848C22.5 11.0121 21.3547 9.81818 19.9419 9.81818C19.5178 9.81818 19.1179 9.92574 18.7657 10.1161C18.5536 6.70129 15.8294 4 12.5 4Z" fill="#1D1D1D"/>
</svg>
