<svg width="25" height="24" viewBox="0 0 25 24" fill="none" xmlns="http://www.w3.org/2000/svg">
<path d="M8.5 5.5H16.5C18.1569 5.5 19.5 4.15685 19.5 2.5C19.5 2.22386 19.2761 2 19 2H6C5.72386 2 5.5 2.22386 5.5 2.5C5.5 4.15685 6.84315 5.5 8.5 5.5Z" fill="#1D1D1D"/>
<path d="M5.5 11.5C5.5 9.61438 5.5 8.67157 6.08579 8.08579C6.67157 7.5 7.61438 7.5 9.5 7.5H15.5C17.3856 7.5 18.3284 7.5 18.9142 8.08579C19.5 8.67157 19.5 9.61438 19.5 11.5V12.5C19.5 14.3856 19.5 15.3284 18.9142 15.9142C18.3284 16.5 17.3856 16.5 15.5 16.5H9.5C7.61438 16.5 6.67157 16.5 6.08579 15.9142C5.5 15.3284 5.5 14.3856 5.5 12.5V11.5Z" fill="#1D1D1D"/>
<path d="M16.5 18.5H8.5C6.84315 18.5 5.5 19.8431 5.5 21.5C5.5 21.7761 5.72386 22 6 22L19 22C19.2761 22 19.5 21.7761 19.5 21.5C19.5 19.8431 18.1569 18.5 16.5 18.5Z" fill="#1D1D1D"/>
</svg>
