<svg width="25" height="24" viewBox="0 0 25 24" fill="none" xmlns="http://www.w3.org/2000/svg">
<path d="M3.5 6.52381C3.5 6.12932 3.82671 5.80952 4.22973 5.80952H9.01787C9.02437 4.9683 9.11554 3.81504 9.95037 3.01668C10.6074 2.38839 11.5081 2 12.5 2C13.4919 2 14.3926 2.38839 15.0496 3.01668C15.8844 3.81504 15.9756 4.9683 15.9821 5.80952H20.7703C21.1733 5.80952 21.5 6.12932 21.5 6.52381C21.5 6.9183 21.1733 7.2381 20.7703 7.2381H4.22973C3.82671 7.2381 3.5 6.9183 3.5 6.52381Z" fill="#1D1D1D"/>
<path d="M12.1066 22H12.8935C15.601 22 16.9547 22 17.8349 21.1368C18.7151 20.2736 18.8052 18.8576 18.9853 16.0257L19.2448 11.9452C19.3425 10.4086 19.3913 9.64037 18.9498 9.15352C18.5082 8.66667 17.7625 8.66667 16.2712 8.66667H8.72884C7.2375 8.66667 6.49183 8.66667 6.05026 9.15352C5.6087 9.64037 5.65756 10.4086 5.75528 11.9452L6.01479 16.0257C6.19489 18.8576 6.28494 20.2736 7.16513 21.1368C8.04532 22 9.39906 22 12.1066 22Z" fill="#1D1D1D"/>
</svg>
