<svg width="25" height="24" viewBox="0 0 25 24" fill="none" xmlns="http://www.w3.org/2000/svg">
<path d="M9.75 14C11.4069 14 12.75 15.3431 12.75 17C12.75 18.6569 11.4069 20 9.75 20C8.09315 20 6.75 18.6569 6.75 17C6.75 15.3431 8.09315 14 9.75 14Z" fill="#1D1D1D"/>
<path d="M14.75 4C13.0931 4 11.75 5.34315 11.75 7C11.75 8.65685 13.0931 10 14.75 10C16.4069 10 17.75 8.65685 17.75 7C17.75 5.34315 16.4069 4 14.75 4Z" fill="#1D1D1D"/>
<path d="M9.25 6.20852C9.66421 6.20852 10 6.54431 10 6.95852C10 7.37273 9.66421 7.70852 9.25 7.70852L2.25 7.70852C1.83579 7.70852 1.5 7.37273 1.5 6.95852C1.5 6.54431 1.83579 6.20852 2.25 6.20852H9.25Z" fill="#1D1D1D"/>
<path d="M15.25 16.2085C14.8358 16.2085 14.5 16.5443 14.5 16.9585C14.5 17.3727 14.8358 17.7085 15.25 17.7085H22.25C22.6642 17.7085 23 17.3727 23 16.9585C23 16.5443 22.6642 16.2085 22.25 16.2085H15.25Z" fill="#1D1D1D"/>
<path d="M1.5 16.9585C1.5 16.5443 1.83579 16.2085 2.25 16.2085H4.25C4.66421 16.2085 5 16.5443 5 16.9585C5 17.3727 4.66421 17.7085 4.25 17.7085H2.25C1.83579 17.7085 1.5 17.3727 1.5 16.9585Z" fill="#1D1D1D"/>
<path d="M22.25 6.20852C22.6642 6.20852 23 6.54431 23 6.95852C23 7.37273 22.6642 7.70852 22.25 7.70852L20.25 7.70852C19.8358 7.70852 19.5 7.37273 19.5 6.95852C19.5 6.54431 19.8358 6.20852 20.25 6.20852H22.25Z" fill="#1D1D1D"/>
</svg>
