<svg width="25" height="24" viewBox="0 0 25 24" fill="none" xmlns="http://www.w3.org/2000/svg">
<path fill-rule="evenodd" clip-rule="evenodd" d="M12.5 15.75C12.9142 15.75 13.25 15.4142 13.25 15V4.02744L14.9306 5.98809C15.2001 6.30259 15.6736 6.33901 15.9881 6.06944C16.3026 5.79988 16.339 5.3264 16.0694 5.01191L13.0694 1.51191C12.927 1.34567 12.7189 1.25 12.5 1.25C12.2811 1.25 12.073 1.34567 11.9306 1.51191L8.93056 5.01191C8.66099 5.3264 8.69741 5.79988 9.01191 6.06944C9.3264 6.33901 9.79988 6.30259 10.0694 5.98809L11.75 4.02744L11.75 15C11.75 15.4142 12.0858 15.75 12.5 15.75Z" fill="#1D1D1D"/>
<path d="M16.5 9C15.7978 9 15.4467 9 15.1945 9.16851C15.0853 9.24148 14.9915 9.33525 14.9186 9.44446C14.75 9.69667 14.75 10.0478 14.75 10.75L14.75 15C14.75 16.2426 13.7427 17.25 12.5 17.25C11.2574 17.25 10.25 16.2426 10.25 15L10.25 10.75C10.25 10.0478 10.25 9.69664 10.0815 9.4444C10.0085 9.33523 9.91481 9.2415 9.80564 9.16855C9.55341 9 9.20227 9 8.5 9C5.67157 9 4.25736 9 3.37868 9.87868C2.5 10.7574 2.5 12.1714 2.5 14.9998V15.9998C2.5 18.8282 2.5 20.2424 3.37868 21.1211C4.25736 21.9998 5.67157 21.9998 8.5 21.9998H16.5C19.3284 21.9998 20.7426 21.9998 21.6213 21.1211C22.5 20.2424 22.5 18.8282 22.5 15.9998V14.9998C22.5 12.1714 22.5 10.7574 21.6213 9.87868C20.7426 9 19.3284 9 16.5 9Z" fill="#1D1D1D"/>
</svg>
