<svg width="25" height="24" viewBox="0 0 25 24" fill="none" xmlns="http://www.w3.org/2000/svg">
<path fill-rule="evenodd" clip-rule="evenodd" d="M2.5 12C2.5 7.28595 2.5 4.92893 3.96447 3.46447C5.42893 2 7.78595 2 12.5 2C17.214 2 19.5711 2 21.0355 3.46447C22.5 4.92893 22.5 7.28595 22.5 12C22.5 16.714 22.5 19.0711 21.0355 20.5355C19.5711 22 17.214 22 12.5 22C7.78595 22 5.42893 22 3.96447 20.5355C2.5 19.0711 2.5 16.714 2.5 12ZM12.5 17.75C12.9142 17.75 13.25 17.4142 13.25 17V11.8107L14.9697 13.5303C15.2626 13.8232 15.7374 13.8232 16.0303 13.5303C16.3232 13.2374 16.3232 12.7626 16.0303 12.4697L13.0303 9.46967C12.8897 9.32902 12.6989 9.25 12.5 9.25C12.3011 9.25 12.1103 9.32902 11.9697 9.46967L8.96967 12.4697C8.67678 12.7626 8.67678 13.2374 8.96967 13.5303C9.26256 13.8232 9.73744 13.8232 10.0303 13.5303L11.75 11.8107V17C11.75 17.4142 12.0858 17.75 12.5 17.75ZM8.5 7.75C8.08579 7.75 7.75 7.41421 7.75 7C7.75 6.58579 8.08579 6.25 8.5 6.25H16.5C16.9142 6.25 17.25 6.58579 17.25 7C17.25 7.41421 16.9142 7.75 16.5 7.75H8.5Z" fill="#1D1D1D"/>
</svg>
