<svg width="25" height="24" viewBox="0 0 25 24" fill="none" xmlns="http://www.w3.org/2000/svg">
<g clip-path="url(#clip0_22907_2368)">
<path fill-rule="evenodd" clip-rule="evenodd" d="M8.77446 13.1711C7.99795 13.742 6.87689 14.0454 5.91011 14.0454C4.5525 14.0454 3.33374 13.5465 2.40809 12.7083C2.3361 12.6415 2.39781 12.554 2.48523 12.6055C3.48287 13.1866 4.71706 13.5363 5.98725 13.5363C6.84604 13.5363 7.79225 13.3563 8.66133 12.9912C8.79503 12.9346 8.90303 13.0734 8.77446 13.1711Z" fill="#F49800"/>
<path fill-rule="evenodd" clip-rule="evenodd" d="M9.09839 12.7996C9.00068 12.6711 8.4453 12.7379 8.19332 12.7688C8.11618 12.7791 8.1059 12.7122 8.17275 12.6659C8.615 12.3522 9.34523 12.4448 9.42751 12.5477C9.51493 12.6505 9.40694 13.3807 8.9904 13.7304C8.92869 13.7818 8.86698 13.7561 8.89269 13.6841C8.9904 13.4527 9.1961 12.9282 9.09839 12.7996Z" fill="#F49800"/>
<path fill-rule="evenodd" clip-rule="evenodd" d="M8.20822 10.4667V10.1633C8.20822 10.117 8.24422 10.0862 8.28536 10.0862H9.64297C9.68411 10.0862 9.72011 10.117 9.72011 10.1633V10.4256C9.72011 10.4667 9.68411 10.5284 9.61726 10.6159L8.91789 11.6186C9.18015 11.6135 9.4527 11.6495 9.6944 11.7832C9.74582 11.8141 9.76125 11.8552 9.76639 11.9015V12.2254C9.76639 12.2717 9.72011 12.3232 9.66869 12.2923C9.25215 12.0712 8.69676 12.0506 8.23394 12.2974C8.18765 12.3232 8.13623 12.2717 8.13623 12.2254V11.9169C8.13623 11.8655 8.13623 11.7832 8.18766 11.7112L9.00016 10.5439H8.2905C8.24422 10.5439 8.21337 10.513 8.20822 10.4667Z" fill="#13110C"/>
<path fill-rule="evenodd" clip-rule="evenodd" d="M3.26122 12.3578H2.84983C2.80869 12.3527 2.77783 12.3269 2.77783 12.2858V10.1671C2.77783 10.126 2.81383 10.09 2.85497 10.09H3.24065C3.28179 10.09 3.31265 10.1208 3.31779 10.162V10.4397H3.32808C3.42578 10.1722 3.61605 10.0488 3.87318 10.0488C4.1303 10.0488 4.29486 10.1722 4.40799 10.4397C4.5057 10.1722 4.73711 10.0488 4.97881 10.0488C5.15365 10.0488 5.33878 10.1208 5.45706 10.2802C5.58562 10.4602 5.55991 10.7173 5.55991 10.9436V12.2807C5.55991 12.3218 5.52391 12.3578 5.48277 12.3578H5.07137C5.03023 12.3527 4.99938 12.3218 4.99938 12.2807V11.1596C4.99938 11.0722 5.00452 10.8459 4.98909 10.7636C4.95824 10.6196 4.86567 10.5785 4.7474 10.5785C4.64969 10.5785 4.5417 10.6454 4.50056 10.7533C4.45942 10.8613 4.46456 11.0362 4.46456 11.1596V12.2807C4.46456 12.3218 4.42856 12.3578 4.38742 12.3578H3.97603C3.93489 12.3527 3.90403 12.3218 3.90403 12.2807V11.1596C3.90403 10.923 3.94003 10.5734 3.65205 10.5734C3.35379 10.5734 3.36922 10.9128 3.36922 11.1596V12.2807C3.33836 12.3218 3.30236 12.3578 3.26122 12.3578Z" fill="#13110C"/>
<path fill-rule="evenodd" clip-rule="evenodd" d="M10.8932 10.0438C11.5051 10.0438 11.8394 10.5684 11.8394 11.2369C11.8394 11.8848 11.4743 12.3939 10.8932 12.3939C10.2915 12.3939 9.9624 11.8694 9.9624 11.2112C9.9624 10.5581 10.2967 10.0438 10.8932 10.0438ZM10.8983 10.4758C10.5949 10.4758 10.5744 10.8923 10.5744 11.1495C10.5744 11.4066 10.5692 11.962 10.8932 11.962C11.212 11.962 11.2274 11.5146 11.2274 11.242C11.2274 11.062 11.2223 10.8512 11.1657 10.6815C11.1195 10.5375 11.0269 10.4758 10.8983 10.4758Z" fill="#13110C"/>
<path fill-rule="evenodd" clip-rule="evenodd" d="M12.6313 12.3577H12.2199C12.1788 12.3525 12.1479 12.3217 12.1479 12.2805V10.1618C12.1531 10.1207 12.1839 10.095 12.2251 10.095H12.6056C12.6416 10.095 12.6725 10.1207 12.6776 10.1567V10.4807H12.6879C12.801 10.1927 12.9656 10.0538 13.2484 10.0538C13.4336 10.0538 13.6136 10.1207 13.7318 10.3058C13.8398 10.4755 13.8398 10.7584 13.8398 10.964V12.2908C13.8347 12.3268 13.8038 12.3577 13.7627 12.3577H13.3513C13.3153 12.3577 13.2844 12.3268 13.2793 12.2908V11.1389C13.2793 10.9075 13.305 10.5681 13.0222 10.5681C12.9245 10.5681 12.8319 10.6349 12.7856 10.7378C12.729 10.8663 12.7188 10.9949 12.7188 11.1389V12.2805C12.7136 12.3217 12.6776 12.3577 12.6313 12.3577Z" fill="#13110C"/>
<path fill-rule="evenodd" clip-rule="evenodd" d="M7.12866 11.3454C7.12866 11.5048 7.1338 11.6385 7.05152 11.7825C6.98467 11.9008 6.88182 11.9728 6.76355 11.9728C6.60413 11.9728 6.51156 11.8545 6.51156 11.6745C6.51156 11.3248 6.82526 11.258 7.12352 11.258V11.3454H7.12866ZM7.5452 12.3533C7.51949 12.379 7.47835 12.379 7.44749 12.3636C7.30865 12.2505 7.28808 12.1991 7.21094 12.0859C6.98467 12.3173 6.82526 12.3842 6.53214 12.3842C6.18245 12.3842 5.91504 12.1682 5.91504 11.7414C5.91504 11.4071 6.09502 11.1757 6.35729 11.0677C6.58356 10.97 6.89211 10.9494 7.1338 10.9237V10.8723C7.1338 10.7746 7.13895 10.6563 7.08238 10.574C7.03095 10.4969 6.93325 10.466 6.85097 10.466C6.69155 10.466 6.5527 10.5483 6.51671 10.7129C6.51156 10.7489 6.48071 10.7849 6.44471 10.79L6.0436 10.7489C6.0076 10.7437 5.97161 10.7129 5.98189 10.6615C6.07445 10.1781 6.51156 10.0289 6.90753 10.0289C7.10809 10.0289 7.37036 10.0804 7.52977 10.2346C7.73033 10.4249 7.70976 10.6717 7.70976 10.9443V11.5871C7.70976 11.7825 7.79204 11.8648 7.86403 11.9676C7.88975 12.0036 7.89489 12.0499 7.86403 12.0756C7.77661 12.1476 7.62748 12.2762 7.5452 12.3533Z" fill="#13110C"/>
<path fill-rule="evenodd" clip-rule="evenodd" d="M1.71362 11.3454C1.71362 11.5048 1.71876 11.6385 1.63648 11.7825C1.56963 11.9008 1.46678 11.9728 1.34851 11.9728C1.18909 11.9728 1.09653 11.8545 1.09653 11.6745C1.09653 11.3248 1.41022 11.258 1.70848 11.258V11.3454H1.71362ZM2.13016 12.3533C2.10445 12.379 2.06331 12.379 2.03245 12.3636C1.89361 12.2505 1.87304 12.1991 1.7959 12.0859C1.56963 12.3173 1.41022 12.3842 1.1171 12.3842C0.767408 12.3842 0.5 12.1682 0.5 11.7414C0.5 11.4071 0.679986 11.1757 0.942252 11.0677C1.16852 10.97 1.47707 10.9494 1.71876 10.9237V10.8723C1.71876 10.7746 1.72905 10.6563 1.66734 10.574C1.61591 10.4969 1.51821 10.466 1.43593 10.466C1.27651 10.466 1.13767 10.5483 1.10167 10.7129C1.09653 10.7489 1.06567 10.7849 1.02967 10.79L0.628562 10.7489C0.592564 10.7437 0.556567 10.7129 0.566852 10.6615C0.659416 10.1781 1.09653 10.0289 1.4925 10.0289C1.69305 10.0289 1.95532 10.0804 2.11473 10.2346C2.31529 10.4249 2.29472 10.6717 2.29472 10.9443V11.5871C2.29472 11.7825 2.377 11.8648 2.44899 11.9676C2.47471 12.0036 2.47985 12.0499 2.44899 12.0756C2.36671 12.1476 2.21758 12.2762 2.13016 12.3533Z" fill="#13110C"/>
<path d="M15.7527 12.358L14.7911 11.1907H14.786V12.358H14.4414V9H14.786V10.9079H14.7911L15.6139 10.1159H16.0664L15.0791 11.0313L16.195 12.358H15.7527Z" fill="#F49800"/>
<path d="M16.5962 9.64282C16.4625 9.64282 16.3545 9.53482 16.3545 9.40112C16.3545 9.26742 16.4625 9.15942 16.5962 9.15942C16.7299 9.15942 16.8379 9.26742 16.8379 9.40112C16.8379 9.53482 16.7299 9.64282 16.5962 9.64282ZM16.4265 12.358V10.1159H16.771V12.358H16.4265Z" fill="#F49800"/>
<path d="M18.7196 12.3575V10.9793C18.7196 10.7016 18.6734 10.388 18.3288 10.388C18.0563 10.388 17.8043 10.5834 17.6346 10.7274V12.3575H17.29V10.1154H17.5729L17.6192 10.388C17.866 10.1977 18.1077 10.0588 18.4214 10.0588C18.7454 10.0588 19.0642 10.2902 19.0642 10.8508V12.3575H18.7196Z" fill="#F49800"/>
<path d="M20.5919 12.4043C19.9645 12.4043 19.4399 12.0392 19.4399 11.2678C19.4399 10.5685 19.9439 10.0593 20.597 10.0593C20.7564 10.0593 20.8695 10.0748 20.9621 10.0953V9H21.3067V12.2449C21.1678 12.322 20.9055 12.4043 20.5919 12.4043ZM20.9621 10.4193C20.8695 10.3885 20.7924 10.3628 20.6176 10.3628C20.1753 10.3628 19.7948 10.7073 19.7948 11.2473C19.7948 11.7564 20.0725 12.1163 20.6587 12.1163C20.7718 12.1163 20.8953 12.0906 20.9673 12.0598V10.4193H20.9621Z" fill="#F49800"/>
<path d="M22.2063 12.4043C21.9337 12.4043 21.8154 12.2295 21.8154 11.9929V9H22.16V11.8335C22.16 12.0443 22.2114 12.0906 22.3451 12.0906C22.3708 12.0906 22.4068 12.0906 22.4634 12.0752L22.5045 12.3272C22.4017 12.3786 22.3194 12.4043 22.2063 12.4043Z" fill="#F49800"/>
<path d="M23.0651 11.293C23.0651 11.7199 23.3119 12.1055 23.7953 12.1055C24.001 12.1055 24.2067 12.0233 24.3404 11.941L24.4484 12.1878C24.2838 12.301 23.9959 12.4038 23.7542 12.4038C23.0394 12.4038 22.6948 11.8278 22.6948 11.1902C22.6948 10.5422 23.0651 10.0588 23.605 10.0588C24.181 10.0588 24.4998 10.5165 24.4998 11.2159C24.4998 11.2416 24.4998 11.2673 24.4998 11.2982H23.0651V11.293ZM23.6102 10.352C23.2759 10.352 23.0702 10.6451 23.0702 10.9999H24.1296C24.1244 10.6862 23.9496 10.352 23.6102 10.352Z" fill="#F49800"/>
</g>
<defs>
<clipPath id="clip0_22907_2368">
<rect width="24" height="24" fill="white" transform="translate(0.5)"/>
</clipPath>
</defs>
</svg>
