<svg width="25" height="24" viewBox="0 0 25 24" fill="none" xmlns="http://www.w3.org/2000/svg">
<g clip-path="url(#clip0_22907_2170)">
<path d="M5.5276 8.46091C5.86664 8.05273 6.03465 7.52924 5.99646 7C5.47685 7.05015 4.99719 7.30068 4.65916 7.69849C4.49083 7.88903 4.36182 8.11096 4.27953 8.35152C4.19724 8.59208 4.16329 8.84653 4.17965 9.10025C4.43849 9.10533 4.69498 9.05022 4.92889 8.93927C5.16281 8.82832 5.36776 8.66457 5.5276 8.46091ZM5.96449 9.19669C5.21859 9.15353 4.5899 9.62292 4.23293 9.62292C3.87596 9.62292 3.33251 9.22013 2.74645 9.23079C2.3627 9.2416 1.98852 9.35294 1.66128 9.55367C1.33405 9.75441 1.06523 10.0375 0.881687 10.3747C0.0825038 11.7599 0.668571 13.8234 1.44644 14.9513C1.82472 15.4873 2.27759 16.1261 2.87964 16.1054C3.4817 16.0846 3.66817 15.7324 4.35547 15.7324C5.04277 15.7324 5.24523 16.1054 5.84195 16.092C6.43867 16.0787 6.85425 15.555 7.2272 14.9732C7.49622 14.5758 7.70619 14.1415 7.85056 13.6838C7.4923 13.5252 7.18752 13.2664 6.97295 12.9386C6.75837 12.6108 6.64314 12.2279 6.64113 11.8361C6.64555 11.4885 6.73712 11.1475 6.90746 10.8444C7.0778 10.5414 7.32147 10.2859 7.61614 10.1014C7.42891 9.83366 7.18252 9.6127 6.89608 9.45562C6.60965 9.29855 6.29087 9.20958 5.96449 9.19562M10.7223 8.12152V9.64263H11.9371V10.6469H10.7223V14.2459C10.7223 14.783 10.962 15.0568 11.4948 15.0568C11.6409 15.0542 11.7868 15.0435 11.9317 15.0249V16.0372C11.694 16.0757 11.4533 16.0935 11.2125 16.0904C9.95508 16.0904 9.47024 15.6019 9.47024 14.377V10.6709H8.51655V9.66394H9.4436V8.12259L10.7223 8.12152ZM16.1834 16.035H14.8514L12.6137 9.66394H13.9403L15.5121 14.783H15.544L17.1158 9.66394H18.4158L16.1834 16.035ZM22.0334 16.035H20.8826V13.4244H18.4104V12.2746H20.8772V9.66394H22.0281V12.2746H24.5002V13.4244H22.0334V16.035Z" fill="#1D1D1D"/>
</g>
<defs>
<clipPath id="clip0_22907_2170">
<rect width="24" height="24" fill="white" transform="translate(0.5)"/>
</clipPath>
</defs>
</svg>
