<svg width="25" height="24" viewBox="0 0 25 24" fill="none" xmlns="http://www.w3.org/2000/svg">
<path d="M21.2646 11.2072L5.54128 2.27102C4.8689 1.89347 4.26737 1.93073 3.90334 2.2833C3.64086 2.53309 3.5 2.93069 3.5 3.4491V21.2842C3.5 21.8067 3.65356 22.2051 3.90252 22.4541C4.28007 22.8189 4.8689 22.8566 5.54046 22.4663L21.2687 13.5302C22.3969 12.893 22.3969 11.8542 21.2646 11.2072Z" fill="#0B5E9F"/>
<path fill-rule="evenodd" clip-rule="evenodd" d="M21.2687 11.2069L17.3274 8.96657L17.2587 8.92071L17.2542 8.92521L5.54128 2.27478C4.88979 1.90133 4.30054 1.93041 3.9275 2.26659L3.86526 2.32024C3.63267 2.5692 3.5 2.95494 3.5 3.45696V21.2838C3.5 21.7859 3.63267 22.1716 3.87754 22.4124L3.86935 22.4206C4.23707 22.8145 4.8513 22.8604 5.54742 22.4746L17.2546 15.816L17.2591 15.8201C17.2591 15.8201 17.3295 15.7742 17.3336 15.7742L21.2716 13.5339C22.3969 12.8927 22.3969 11.8416 21.2687 11.2069Z" fill="url(#paint0_linear_22907_2125)"/>
<path opacity="0.25" fill-rule="evenodd" clip-rule="evenodd" d="M5.54128 2.39069L21.2655 11.3224C21.7757 11.609 22.0619 11.9861 22.1074 12.3723C22.1074 11.953 21.8293 11.53 21.2655 11.2065L5.54128 2.2744C4.41274 1.627 3.5 2.1667 3.5 3.45658V3.57287C3.5 2.28259 4.41274 1.75435 5.54128 2.39069Z" fill="white"/>
<path d="M18.3606 4.91321H9.13818V20.4212L19.2152 14.6945V5.77231C19.2157 5.54507 19.126 5.32692 18.9657 5.16582C18.8055 5.00472 18.5878 4.91386 18.3606 4.91321Z" fill="#40DCFF"/>
<path d="M18.3606 4.91321H9.13818V20.4126L19.2152 14.6917V5.77231C19.2157 5.54507 19.126 5.32692 18.9657 5.16582C18.8055 5.00472 18.5878 4.91386 18.3606 4.91321Z" fill="url(#paint1_linear_22907_2125)"/>
<path d="M9.13785 4.91321H6.41602V21.9637L9.13785 20.4208V4.91321Z" fill="#009BF0"/>
<path opacity="0.15" d="M18.3602 4.91321H6.41602V5.00903H18.3602C18.8332 5.00903 19.2202 5.29567 19.2202 5.76821C19.2182 5.5412 19.1269 5.32411 18.9659 5.16404C18.8049 5.00398 18.5873 4.91385 18.3602 4.91321Z" fill="white"/>
<path d="M14.332 9.19027L15.7341 8.32298L17.1861 9.19027V4.91321H14.332V9.19027Z" fill="#FAFAFA"/>
<defs>
<linearGradient id="paint0_linear_22907_2125" x1="12.8096" y1="22.6826" x2="12.8096" y2="1.94187" gradientUnits="userSpaceOnUse">
<stop stop-color="white" stop-opacity="0"/>
<stop offset="1" stop-color="white" stop-opacity="0.1"/>
</linearGradient>
<linearGradient id="paint1_linear_22907_2125" x1="16.188" y1="14.4256" x2="18.8595" y2="19.5051" gradientUnits="userSpaceOnUse">
<stop stop-color="#5B7C8C" stop-opacity="0"/>
<stop offset="1" stop-color="#5B7C8C" stop-opacity="0.4"/>
</linearGradient>
</defs>
</svg>
