<svg width="25" height="24" viewBox="0 0 25 24" fill="none" xmlns="http://www.w3.org/2000/svg">
<g clip-path="url(#clip0_22907_2090)">
<path d="M15.2068 16H17.1188V8H15.2068V16ZM11.8497 13.7191C11.8497 14 11.6163 14.236 11.3384 14.236H10.2267C9.94882 14.236 9.71538 14 9.71538 13.7191V10.4944H7.80338V13.8764C7.80338 15.2584 8.68157 15.9888 9.97105 15.9888H11.8386C13.028 15.9888 13.7506 15.1236 13.7506 13.8764V10.4944H11.8386C11.8497 10.4944 11.8497 13.618 11.8497 13.7191ZM22.5991 10.4944V13.7191C22.5991 14 22.3657 14.236 22.0878 14.236H20.9761C20.6982 14.236 20.4648 14 20.4648 13.7191V10.4944H18.5528V13.8764C18.5528 15.2584 19.431 15.9888 20.7205 15.9888H22.588C23.7774 15.9888 24.5 15.1236 24.5 13.8764V10.4944H22.5991ZM4.27953 10.4944H3.05674C2.62321 10.4944 2.412 10.6067 2.412 10.6067V8H0.5V15.9888H2.40088V12.7753C2.40088 12.4944 2.63432 12.2584 2.91223 12.2584H4.02385C4.30176 12.2584 4.5352 12.4944 4.5352 12.7753V16H6.4472V12.5169C6.4472 11.0562 5.48008 10.4944 4.27953 10.4944Z" fill="#1CE783"/>
</g>
<defs>
<clipPath id="clip0_22907_2090">
<rect width="24" height="24" fill="white" transform="translate(0.5)"/>
</clipPath>
</defs>
</svg>
