<svg width="25" height="24" viewBox="0 0 25 24" fill="none" xmlns="http://www.w3.org/2000/svg">
<g clip-path="url(#clip0_22907_2124)">
<path fill-rule="evenodd" clip-rule="evenodd" d="M13.0176 6.66546L13.0024 20.6269L9.26172 19.4103V3L14.0365 4.26238C17.0928 5.08381 18.9632 6.68054 18.9328 9.47896C18.9024 12.7337 17.397 14.0415 14.4622 13.1898V6.77172C14.4622 5.99604 13.0176 5.95062 13.0176 6.66546Z" fill="#DE0029"/>
<path fill-rule="evenodd" clip-rule="evenodd" d="M7.54347 16.7028L5.77951 17.2961C4.63889 17.6916 3.66583 16.7639 4.71504 16.3835L5.56653 16.0795L2.35799 15.0603C1.36951 15.395 0.441876 16.1098 0.502848 17.1137C0.563679 18.1325 2.89015 18.376 4.68465 18.665C6.35724 18.9386 7.87788 18.7865 9.26182 18.2999V17.2504L7.54347 16.7028ZM13.0329 20.6268L16.3023 19.4861L13.0025 18.4368V20.5507L13.0329 20.6268Z" fill="#F3C202"/>
<path fill-rule="evenodd" clip-rule="evenodd" d="M21.7309 17.5707L21.7917 17.5553C23.2211 17.0536 23.8294 16.3538 23.6774 15.7C23.4341 14.6051 21.6853 14.0118 18.9937 13.814C17.0626 13.6772 15.1618 14.103 13.3067 14.7417L13.0025 14.8482L16.3327 15.8824L18.2791 15.2284C20.3167 14.8482 21.138 15.5173 19.1763 16.141L18.2031 16.4754L21.7309 17.5707ZM9.26179 12.7344L7.78662 13.2361L9.26179 13.6924V12.7344Z" fill="#326DB3"/>
<path fill-rule="evenodd" clip-rule="evenodd" d="M16.3022 19.487L21.7309 17.5709L18.2029 16.4756L13.0024 18.255V18.4377L16.3022 19.487ZM9.26175 16.1258L7.5434 16.7037L9.26175 17.2513V16.1258ZM13.0024 17.0234V14.8485L16.3326 15.8826L13.0024 17.0234ZM5.56646 16.0804L9.2617 14.7572V13.6926L7.78658 13.2363L2.43391 15.0462C2.41869 15.0462 2.3883 15.0612 2.35791 15.0612L5.56646 16.0804Z" fill="#00AA9E"/>
</g>
<defs>
<clipPath id="clip0_22907_2124">
<rect width="24" height="24" fill="white" transform="translate(0.5)"/>
</clipPath>
</defs>
</svg>
