<svg width="25" height="24" viewBox="0 0 25 24" fill="none" xmlns="http://www.w3.org/2000/svg">
<g clip-path="url(#clip0_22907_2127)">
<path d="M0.846344 12.7652C0.781844 12.7682 0.718544 12.7469 0.669344 12.7052C0.627344 12.6551 0.607844 12.59 0.615344 12.5252V6.40523C0.607844 6.34043 0.627344 6.27533 0.669344 6.22523C0.719144 6.18743 0.780944 6.16943 0.843344 6.17423H1.50934C1.63534 6.16163 1.74874 6.25013 1.76734 6.37523L1.83334 6.61523C2.02504 6.43013 2.25154 6.28433 2.49934 6.18623C2.75284 6.08363 3.02374 6.03053 3.29734 6.03023C3.84274 6.01223 4.36414 6.25493 4.70134 6.68423C5.07274 7.19603 5.25724 7.81973 5.22334 8.45123C5.23354 8.90963 5.14564 9.36473 4.96534 9.78623C4.81654 10.1372 4.57474 10.4411 4.26634 10.6652C3.96814 10.8686 3.61324 10.9736 3.25234 10.9652C3.00724 10.9664 2.76364 10.9259 2.53234 10.8452C2.31964 10.7738 2.12314 10.6616 1.95334 10.5152V12.5312C1.95994 12.5954 1.94194 12.6599 1.90234 12.7112C1.85104 12.7508 1.78654 12.7688 1.72234 12.7622L0.846344 12.7652ZM2.86534 9.95723C3.16174 9.97853 3.44854 9.84593 3.62434 9.60623C3.81124 9.27083 3.89584 8.88803 3.86734 8.50523C3.89614 8.11883 3.81274 7.73243 3.62734 7.39223C3.45094 7.15013 3.16114 7.01723 2.86234 7.04123C2.54524 7.04153 2.23444 7.12733 1.96234 7.29023V9.70523C2.23234 9.87323 2.54434 9.96143 2.86234 9.96023L2.86534 9.95723Z" fill="#00A8E1"/>
<path d="M6.36328 10.8692C6.25588 10.8893 6.15238 10.8185 6.13228 10.7108C6.12778 10.6868 6.12778 10.6622 6.13228 10.6382V6.40517C6.12478 6.34037 6.14428 6.27527 6.18628 6.22517C6.23608 6.18737 6.29788 6.16937 6.36028 6.17417H7.02328C7.14928 6.16157 7.26268 6.25007 7.28128 6.37517L7.40128 6.86717C7.59838 6.63647 7.83388 6.44147 8.09728 6.29117C8.31208 6.17867 8.55088 6.12017 8.79328 6.12017H8.92228C8.98738 6.11447 9.05248 6.13247 9.10528 6.17117C9.14728 6.22127 9.16678 6.28637 9.15928 6.35117V7.12517C9.16438 7.18757 9.14638 7.24937 9.10828 7.29917C9.05818 7.34117 8.99308 7.36067 8.92828 7.35317H8.76328C8.69518 7.35317 8.60938 7.35317 8.50528 7.35317C8.33188 7.35677 8.15908 7.37687 7.98928 7.41317C7.81228 7.44587 7.63948 7.49717 7.47328 7.56617V10.6412C7.47808 10.7036 7.46008 10.7654 7.42228 10.8152C7.37218 10.8572 7.30708 10.8767 7.24228 10.8692H6.36328Z" fill="#00A8E1"/>
<path d="M10.4883 5.44232C10.2837 5.45253 10.083 5.38383 9.92727 5.25032C9.78267 5.11503 9.70497 4.92303 9.71427 4.72533C9.70407 4.52643 9.78177 4.33323 9.92727 4.19733C10.2561 3.93423 10.7235 3.93423 11.0523 4.19733C11.1969 4.33263 11.2746 4.52463 11.2653 4.72233C11.2746 4.92003 11.1969 5.11202 11.0523 5.24732C10.8963 5.38262 10.6944 5.45253 10.4883 5.44232ZM10.0473 10.8723C9.93987 10.8924 9.83637 10.8216 9.81627 10.7139C9.81177 10.6899 9.81177 10.6653 9.81627 10.6413V6.40532C9.80877 6.34052 9.82827 6.27542 9.87027 6.22533C9.92007 6.18753 9.98187 6.16953 10.0443 6.17432H10.9293C10.9935 6.16773 11.058 6.18572 11.1093 6.22533C11.1489 6.27663 11.1669 6.34113 11.1603 6.40532V10.6413C11.1654 10.7037 11.1474 10.7655 11.1093 10.8153C11.0592 10.8573 10.9941 10.8768 10.9293 10.8693L10.0473 10.8723Z" fill="#00A8E1"/>
<path d="M12.5312 10.8689C12.4238 10.889 12.3203 10.8182 12.3002 10.7105C12.2958 10.6865 12.2958 10.6619 12.3002 10.6379V6.40493C12.2928 6.34013 12.3122 6.27503 12.3542 6.22493C12.404 6.18713 12.4658 6.16913 12.5282 6.17393H13.1912C13.3172 6.16133 13.4306 6.24983 13.4492 6.37493L13.5242 6.62393C13.7972 6.43583 14.0924 6.28283 14.4032 6.16793C14.6597 6.07853 14.9294 6.03203 15.2012 6.02993C15.674 5.98943 16.1282 6.22253 16.3712 6.62993C16.6451 6.44153 16.9427 6.29033 17.2562 6.17993C17.5328 6.08783 17.8226 6.04133 18.1142 6.04193C18.4826 6.01973 18.8438 6.14993 19.1132 6.40193C19.3616 6.67433 19.4894 7.03583 19.4672 7.40393V10.6409C19.472 10.7033 19.454 10.7651 19.4162 10.8149C19.3661 10.8569 19.301 10.8764 19.2362 10.8689H18.3632C18.2558 10.889 18.1523 10.8182 18.1322 10.7105C18.1277 10.6865 18.1277 10.6619 18.1322 10.6379V7.68593C18.1322 7.26803 17.9453 7.05893 17.5712 7.05893C17.2226 7.06283 16.8791 7.14503 16.5662 7.29893V10.6409C16.5713 10.7033 16.5533 10.7651 16.5152 10.8149C16.4651 10.8569 16.4 10.8764 16.3352 10.8689H15.4532C15.3458 10.889 15.2423 10.8182 15.2222 10.7105C15.2177 10.6865 15.2177 10.6619 15.2222 10.6379V7.68593C15.2222 7.26803 15.0353 7.05893 14.6612 7.05893C14.3084 7.06103 13.961 7.14653 13.6472 7.30793V10.6379C13.652 10.7003 13.634 10.7621 13.5962 10.8119C13.5461 10.8539 13.481 10.8734 13.4162 10.8659L12.5312 10.8689Z" fill="#00A8E1"/>
<path d="M22.6773 11.0081C22.0308 11.0504 21.3957 10.8236 20.9223 10.3811C20.4894 9.88548 20.2731 9.23718 20.3223 8.58108C20.2791 7.90098 20.4981 7.22988 20.9343 6.70608C21.3888 6.23688 22.0251 5.98818 22.6773 6.02508C23.1597 5.99628 23.6361 6.14358 24.0183 6.43908C24.3417 6.71508 24.5199 7.12458 24.5013 7.54908C24.5232 7.96458 24.3249 8.36118 23.9793 8.59308C23.514 8.85888 22.9809 8.98188 22.4463 8.94708C22.1433 8.95068 21.8409 8.91648 21.5463 8.84508C21.5481 9.17688 21.6819 9.49428 21.9183 9.72708C22.1982 9.92568 22.539 10.0202 22.8813 9.99408C23.0487 9.99408 23.2161 9.98298 23.3823 9.96108C23.6109 9.92568 23.8371 9.87738 24.0603 9.81708H24.1143H24.1593C24.2634 9.81708 24.3153 9.88818 24.3153 10.0301V10.4531C24.321 10.5248 24.3066 10.5965 24.2733 10.6601C24.2307 10.7102 24.1743 10.7465 24.1113 10.7651C23.6523 10.934 23.1663 11.0165 22.6773 11.0081ZM22.3773 8.11908C22.6134 8.13618 22.8495 8.08638 23.0583 7.97508C23.2017 7.87698 23.2827 7.71048 23.2713 7.53708C23.2713 7.15098 23.0412 6.95808 22.5813 6.95808C21.9912 6.95808 21.6504 7.32018 21.5583 8.04408C21.8262 8.09538 22.0986 8.12058 22.3713 8.11908H22.3773Z" fill="#00A8E1"/>
<path d="M22.1943 16.0383C19.5663 17.9763 15.7563 19.0053 12.4773 19.0053C8.09551 19.0287 3.86251 17.4168 0.606306 14.4843C0.360306 14.2623 0.579306 13.9593 0.876306 14.1303C4.49371 16.1958 8.58781 17.2806 12.7533 17.2773C15.8616 17.2608 18.9363 16.6317 21.8013 15.4263C22.2573 15.2373 22.6293 15.7053 22.1943 16.0383Z" fill="#00A8E1"/>
<path d="M23.3014 14.8063C22.9654 14.3773 21.0814 14.6023 20.2324 14.7043C19.9744 14.7343 19.9324 14.5123 20.1664 14.3503C21.6664 13.2943 24.1354 13.6003 24.4204 13.9543C24.7054 14.3083 24.3454 16.7773 22.9204 17.9563C22.7044 18.1363 22.4974 18.0403 22.5934 17.8003C22.9144 16.9933 23.6254 15.2233 23.3014 14.8063Z" fill="#00A8E1"/>
</g>
<defs>
<clipPath id="clip0_22907_2127">
<rect width="24" height="24" fill="white" transform="translate(0.5)"/>
</clipPath>
</defs>
</svg>
