<svg width="25" height="24" viewBox="0 0 25 24" fill="none" xmlns="http://www.w3.org/2000/svg">
<path d="M12.5 1C6.42467 1 1.5 5.92467 1.5 12C1.5 18.0753 6.42467 23 12.5 23C18.5753 23 23.5 18.0753 23.5 12C23.5 5.92542 18.5753 1.00075 12.5 1ZM17.5448 16.8646C17.3474 17.1889 16.9248 17.2902 16.602 17.0928C14.0192 15.5143 10.7676 15.1578 6.93883 16.0322C6.56953 16.117 6.20174 15.8858 6.11767 15.5165C6.03286 15.1473 6.26329 14.7795 6.63333 14.6954C10.8232 13.7384 14.4178 14.1505 17.3173 15.9219C17.6401 16.1208 17.7429 16.5419 17.5448 16.8646ZM18.8906 13.8705C18.6421 14.2743 18.1137 14.4004 17.7106 14.1527C14.7548 12.3355 10.2467 11.8093 6.74968 12.8707C6.29632 13.0081 5.81743 12.7521 5.67932 12.2995C5.54272 11.8461 5.79867 11.368 6.25128 11.2299C10.246 10.0177 15.2127 10.6046 18.6076 12.6913C19.0114 12.9397 19.139 13.4674 18.8906 13.8705ZM19.0062 10.751C15.4604 8.64558 9.6117 8.45193 6.22651 9.47874C5.68308 9.64388 5.10812 9.33688 4.94374 8.79345C4.77936 8.25002 5.0856 7.67506 5.62979 7.50993C9.51563 6.33074 15.9745 6.55817 20.0563 8.9811C20.5449 9.27158 20.7055 9.90283 20.4158 10.3907C20.1268 10.8801 19.4941 11.0415 19.0062 10.751Z" fill="#2EBD59"/>
</svg>
