<svg width="25" height="24" viewBox="0 0 25 24" fill="none" xmlns="http://www.w3.org/2000/svg">
<path d="M11.5033 21.9964C9.96353 21.8496 8.40375 21.2955 7.06204 20.4189C5.93838 19.6846 5.68472 19.3842 5.68472 18.7812C5.68472 17.573 7.01309 15.4547 9.28266 13.0428C10.5732 11.6721 12.3688 10.0656 12.5624 10.1079C12.9407 10.1924 15.9601 13.1429 17.0904 14.5291C18.8794 16.7275 19.7027 18.5253 19.2843 19.3264C18.9662 19.936 16.997 21.1264 15.5507 21.5826C14.358 21.9608 12.7916 22.121 11.5033 21.9964ZM4.16945 17.5263C3.23714 16.0933 2.76543 14.6804 2.53624 12.64C2.46059 11.9658 2.48729 11.5809 2.70758 10.1969C2.98126 8.47246 3.96029 6.4788 5.13958 5.25056C5.64244 4.72767 5.68694 4.71432 6.29884 4.92125C7.04201 5.17268 7.83414 5.72005 9.0646 6.83481L9.7833 7.48453L9.39169 7.96737C7.56935 10.2058 5.64912 13.3787 4.92597 15.3413C4.53213 16.4071 4.37415 17.4795 4.54326 17.9246C4.65674 18.2249 4.55216 18.1137 4.16945 17.5263ZM20.546 17.7688C20.6372 17.3193 20.5215 16.4916 20.2478 15.6572C19.6582 13.8505 17.6801 10.4862 15.8644 8.201L15.2926 7.48231L15.9111 6.91269C16.7188 6.16951 17.2796 5.7245 17.8848 5.34846C18.3632 5.0503 19.044 4.78775 19.3378 4.78775C19.518 4.78775 20.1544 5.44859 20.6683 6.17174C21.4649 7.28872 22.0501 8.64602 22.346 10.0567C22.5374 10.969 22.553 12.9204 22.3772 13.8282C22.2326 14.5736 21.9255 15.5415 21.6273 16.2001C21.4026 16.6919 20.8463 17.6464 20.6016 17.9579C20.477 18.1137 20.477 18.1137 20.546 17.7688ZM11.6679 4.44508C10.8291 4.01787 9.53632 3.56173 8.82207 3.43713C8.57064 3.39485 8.14565 3.37038 7.87196 3.38373C7.28232 3.41265 7.30902 3.38373 8.25468 2.93649C9.04012 2.5649 9.69652 2.34684 10.5865 2.15994C11.5878 1.94856 13.468 1.94633 14.4537 2.15549C15.5173 2.38022 16.77 2.84748 17.4754 3.28137L17.6845 3.41043L17.2039 3.38595C16.2471 3.337 14.8542 3.72416 13.3568 4.45398C12.9051 4.67427 12.5135 4.85005 12.4845 4.84337C12.4578 4.83892 12.0885 4.65869 11.6679 4.44508Z" fill="#107C10"/>
</svg>
