<svg width="25" height="24" viewBox="0 0 25 24" fill="none" xmlns="http://www.w3.org/2000/svg">
<path d="M21.7923 18.7033C21.426 19.5418 20.9925 20.3136 20.4902 21.0232C19.8055 21.9906 19.2449 22.6602 18.8128 23.032C18.1431 23.6424 17.4255 23.955 16.6571 23.9728C16.1055 23.9728 15.4403 23.8172 14.6659 23.5017C13.889 23.1876 13.175 23.032 12.5221 23.032C11.8374 23.032 11.1031 23.1876 10.3177 23.5017C9.53104 23.8172 8.89734 23.9816 8.41282 23.9979C7.67597 24.0291 6.9415 23.7076 6.20838 23.032C5.74046 22.6276 5.15519 21.9343 4.45406 20.9521C3.70181 19.9033 3.08335 18.687 2.59884 17.3004C2.07994 15.8026 1.81982 14.3523 1.81982 12.9482C1.81982 11.3398 2.17054 9.95259 2.87301 8.79011C3.42509 7.85636 4.15956 7.11979 5.0788 6.57906C5.99804 6.03834 6.99128 5.76279 8.06092 5.74516C8.64619 5.74516 9.41369 5.92456 10.3675 6.27715C11.3185 6.63091 11.9292 6.81032 12.197 6.81032C12.3971 6.81032 13.0756 6.60054 14.2256 6.18233C15.3132 5.79449 16.2311 5.63391 16.983 5.69716C19.0206 5.86012 20.5515 6.6561 21.5695 8.09013C19.7472 9.18432 18.8457 10.7169 18.8637 12.6829C18.8801 14.2142 19.4407 15.4886 20.5425 16.5004C21.0418 16.97 21.5994 17.333 22.2198 17.5907C22.0853 17.9774 21.9433 18.3477 21.7923 18.7033ZM17.1191 0.480137C17.1191 1.68041 16.6766 2.8011 15.7946 3.8384C14.7302 5.07155 13.4427 5.78412 12.0466 5.67168C12.0288 5.52769 12.0185 5.37614 12.0185 5.21688C12.0185 4.06462 12.5247 2.83147 13.4236 1.82321C13.8724 1.3127 14.4431 0.888228 15.1353 0.549615C15.826 0.216055 16.4792 0.031589 17.0937 0C17.1116 0.160458 17.1191 0.320926 17.1191 0.480121V0.480137Z" fill="black"/>
</svg>
