<svg width="25" height="24" viewBox="0 0 25 24" fill="none" xmlns="http://www.w3.org/2000/svg">
<g clip-path="url(#clip0_9004_39044)">
<path d="M20.7415 5.18563C19.2257 4.49012 17.6003 3.9777 15.9007 3.68421C15.8698 3.67855 15.8389 3.69271 15.8229 3.72102C15.6139 4.09283 15.3823 4.57788 15.2202 4.95913C13.3922 4.68547 11.5736 4.68547 9.78318 4.95913C9.62099 4.56941 9.38103 4.09283 9.17104 3.72102C9.1551 3.69365 9.12418 3.67949 9.09323 3.68421C7.39465 3.97676 5.76918 4.48918 4.25245 5.18563C4.23932 5.19129 4.22807 5.20074 4.2206 5.213C1.13744 9.81917 0.292831 14.3121 0.707167 18.7494C0.709041 18.7711 0.721228 18.7919 0.738101 18.8051C2.77228 20.2989 4.74273 21.2058 6.67659 21.8069C6.70754 21.8164 6.74034 21.8051 6.76003 21.7796C7.21749 21.1549 7.62527 20.4962 7.9749 19.8035C7.99553 19.7629 7.97584 19.7148 7.93366 19.6987C7.28686 19.4534 6.67097 19.1542 6.07852 18.8145C6.03166 18.7871 6.02791 18.7201 6.07102 18.688C6.19569 18.5946 6.3204 18.4974 6.43944 18.3992C6.46098 18.3813 6.49099 18.3775 6.51631 18.3889C10.4084 20.1659 14.6221 20.1659 18.4683 18.3889C18.4936 18.3766 18.5236 18.3804 18.5461 18.3983C18.6652 18.4965 18.7898 18.5946 18.9154 18.688C18.9585 18.7201 18.9557 18.7871 18.9089 18.8145C18.3164 19.1608 17.7005 19.4534 17.0528 19.6978C17.0106 19.7138 16.9919 19.7629 17.0125 19.8035C17.3696 20.4952 17.7774 21.1539 18.2264 21.7786C18.2452 21.8051 18.2789 21.8164 18.3099 21.8069C20.2531 21.2058 22.2235 20.2989 24.2577 18.8051C24.2755 18.7919 24.2868 18.772 24.2887 18.7503C24.7845 13.6204 23.4581 9.16426 20.7724 5.21394C20.7659 5.20074 20.7546 5.19129 20.7415 5.18563ZM8.55612 16.0476C7.38433 16.0476 6.41881 14.9718 6.41881 13.6506C6.41881 12.3294 7.36561 11.2536 8.55612 11.2536C9.75598 11.2536 10.7122 12.3388 10.6934 13.6506C10.6934 14.9718 9.7466 16.0476 8.55612 16.0476ZM16.4585 16.0476C15.2867 16.0476 14.3212 14.9718 14.3212 13.6506C14.3212 12.3294 15.268 11.2536 16.4585 11.2536C17.6584 11.2536 18.6145 12.3388 18.5958 13.6506C18.5958 14.9718 17.6584 16.0476 16.4585 16.0476Z" fill="#5865F2"/>
</g>
<defs>
<clipPath id="clip0_9004_39044">
<rect width="24" height="24" fill="white" transform="translate(0.5)"/>
</clipPath>
</defs>
</svg>
