<svg width="25" height="24" viewBox="0 0 25 24" fill="none" xmlns="http://www.w3.org/2000/svg">
<g clip-path="url(#clip0_9004_39025)">
<path d="M12.02 23.625C18.4403 23.625 23.645 18.4203 23.645 12C23.645 5.57969 18.4403 0.375 12.02 0.375C5.59971 0.375 0.39502 5.57969 0.39502 12C0.39502 18.4203 5.59971 23.625 12.02 23.625Z" fill="#EA4C89"/>
<path fill-rule="evenodd" clip-rule="evenodd" d="M12.02 0C5.39529 0 0.0200195 5.37528 0.0200195 12C0.0200195 18.6248 5.39529 24 12.02 24C18.6317 24 24.02 18.6248 24.02 12C24.02 5.37528 18.6317 0 12.02 0ZM19.9463 5.53146C21.3779 7.27549 22.237 9.50108 22.263 11.9089C21.9246 11.8439 18.5406 11.154 15.1307 11.5835C15.0526 11.4143 14.9875 11.2321 14.9094 11.0499C14.7011 10.5554 14.4669 10.0478 14.2326 9.56618C18.007 8.0304 19.725 5.81779 19.9463 5.53146ZM12.02 1.77007C14.6231 1.77007 17.0048 2.74621 18.814 4.34708C18.6317 4.60738 17.0829 6.6768 13.4387 8.04338C11.7597 4.95878 9.89857 2.43384 9.61222 2.04338C10.3801 1.86117 11.1871 1.77007 12.02 1.77007ZM7.65997 2.73319C7.93327 3.09761 9.7554 5.63558 11.4604 8.65508C6.67078 9.9306 2.44085 9.90458 1.98531 9.90458C2.64909 6.72885 4.79659 4.08677 7.65997 2.73319ZM1.76406 12.0131C1.76406 11.9089 1.76406 11.8048 1.76406 11.7007C2.20657 11.7137 7.17838 11.7788 12.2933 10.243C12.5927 10.8156 12.866 11.4013 13.1264 11.987C12.9962 12.026 12.853 12.0651 12.7228 12.1041C7.43868 13.8091 4.6274 18.4685 4.39312 18.859C2.76622 17.0499 1.76406 14.6421 1.76406 12.0131ZM12.02 22.256C9.65122 22.256 7.46471 21.449 5.73369 20.0954C5.9159 19.718 7.9983 15.7094 13.7771 13.692C13.8031 13.679 13.8161 13.679 13.8422 13.666C15.2868 17.4013 15.8726 20.5379 16.0287 21.436C14.7923 21.9696 13.4387 22.256 12.02 22.256ZM17.7337 20.4989C17.6296 19.8742 17.0829 16.8807 15.7424 13.1974C18.9572 12.6898 21.7684 13.5228 22.1198 13.64C21.6773 16.4903 20.0374 18.9501 17.7337 20.4989Z" fill="#C32361"/>
</g>
<defs>
<clipPath id="clip0_9004_39025">
<rect width="24" height="24" fill="white" transform="translate(0.0200195)"/>
</clipPath>
</defs>
</svg>
