<svg width="25" height="24" viewBox="0 0 25 24" fill="none" xmlns="http://www.w3.org/2000/svg">
<g clip-path="url(#clip0_9004_39024)">
<path d="M8.22028 24.0001C10.4283 24.0001 12.2203 22.208 12.2203 20V16H8.22028C6.01226 16 4.22021 17.792 4.22021 20C4.22021 22.208 6.01226 24.0001 8.22028 24.0001Z" fill="#0ACF83"/>
<path d="M4.22021 12C4.22021 9.79203 6.01226 8 8.22028 8H12.2203V16H8.22028C6.01226 16.0001 4.22021 14.208 4.22021 12Z" fill="#A259FF"/>
<path d="M4.22021 4.00003C4.22021 1.79203 6.01226 0 8.22028 0H12.2203V7.99996H8.22028C6.01226 7.99996 4.22021 6.20803 4.22021 4.00003Z" fill="#F24E1E"/>
<path d="M12.2202 0H16.2203C18.4283 0 20.2203 1.79203 20.2203 4.00003C20.2203 6.20803 18.4283 7.99996 16.2203 7.99996H12.2202V0Z" fill="#FF7262"/>
<path d="M20.2203 12C20.2203 14.208 18.4283 16.0001 16.2203 16.0001C14.0123 16.0001 12.2202 14.208 12.2202 12C12.2202 9.79203 14.0123 8 16.2203 8C18.4283 8 20.2203 9.79203 20.2203 12Z" fill="#1ABCFE"/>
</g>
<defs>
<clipPath id="clip0_9004_39024">
<rect width="24" height="24" fill="white" transform="translate(0.0200195)"/>
</clipPath>
</defs>
</svg>
