<svg width="25" height="24" viewBox="0 0 25 24" fill="none" xmlns="http://www.w3.org/2000/svg">
<g clip-path="url(#clip0_9004_39023)">
<path fill-rule="evenodd" clip-rule="evenodd" d="M12.0157 0.599976C9.18471 0.601444 6.44651 1.60414 4.29077 3.42876C2.13502 5.25339 0.702304 7.78096 0.248789 10.5595C-0.204727 13.3381 0.350533 16.1865 1.81529 18.5953C3.28005 21.0042 5.55879 22.8164 8.24404 23.7081C8.83645 23.818 9.0596 23.4508 9.0596 23.1387C9.0596 22.8265 9.04774 21.9213 9.0438 20.9317C5.7263 21.6484 5.02528 19.5318 5.02528 19.5318C4.48421 18.1573 3.70223 17.7961 3.70223 17.7961C2.62009 17.0617 3.7832 17.0755 3.7832 17.0755C4.98184 17.1599 5.61177 18.2987 5.61177 18.2987C6.67416 20.111 8.40202 19.5867 9.08132 19.2804C9.18795 18.5127 9.49798 17.9904 9.83961 17.694C7.18956 17.3955 4.40522 16.3784 4.40522 11.835C4.3888 10.6566 4.82855 9.51712 5.63349 8.65217C5.51106 8.35372 5.10229 7.14815 5.74999 5.51062C5.74999 5.51062 6.75118 5.19254 9.02998 6.72601C10.9846 6.19452 13.0469 6.19452 15.0015 6.72601C17.2783 5.19254 18.2775 5.51062 18.2775 5.51062C18.9272 7.14422 18.5184 8.3498 18.396 8.65217C19.2035 9.51726 19.6442 10.6588 19.6262 11.8389C19.6262 16.3922 16.836 17.3955 14.182 17.6881C14.6085 18.0572 14.9896 18.7778 14.9896 19.8852C14.9896 21.4717 14.9758 22.7479 14.9758 23.1387C14.9758 23.4548 15.191 23.8239 15.7953 23.7081C18.4809 22.8163 20.7598 21.0037 22.2246 18.5945C23.6893 16.1852 24.2443 13.3364 23.7902 10.5576C23.3362 7.77877 21.9028 5.25117 19.7463 3.42686C17.5899 1.60255 14.851 0.600513 12.0197 0.599976H12.0157Z" fill="#191717"/>
<path d="M4.60657 17.6252C4.5809 17.6842 4.48612 17.7018 4.4091 17.6606C4.33209 17.6194 4.27483 17.5428 4.30247 17.4819C4.33012 17.421 4.42293 17.4053 4.49994 17.4466C4.57696 17.4878 4.63619 17.5663 4.60657 17.6252Z" fill="#191717"/>
<path d="M5.09029 18.1613C5.0494 18.1818 5.00261 18.1875 4.95794 18.1774C4.91327 18.1674 4.8735 18.1423 4.84543 18.1063C4.76842 18.0238 4.75261 17.9099 4.81185 17.8589C4.87109 17.8078 4.97774 17.8314 5.05475 17.9139C5.13176 17.9963 5.14953 18.1102 5.09029 18.1613Z" fill="#191717"/>
<path d="M5.55993 18.8425C5.48687 18.8936 5.36246 18.8425 5.29334 18.7404C5.27423 18.7221 5.25903 18.7002 5.24865 18.6759C5.23827 18.6516 5.23291 18.6255 5.23291 18.5991C5.23291 18.5727 5.23827 18.5465 5.24865 18.5223C5.25903 18.498 5.27423 18.476 5.29334 18.4577C5.36641 18.4086 5.49082 18.4577 5.55993 18.5578C5.62905 18.658 5.63102 18.7915 5.55993 18.8425Z" fill="#191717"/>
<path d="M6.19823 19.5023C6.13306 19.575 6.00076 19.5553 5.89215 19.4572C5.78354 19.359 5.75787 19.2255 5.82303 19.1548C5.8882 19.0841 6.0205 19.1037 6.13306 19.1999C6.24562 19.2961 6.26734 19.4316 6.19823 19.5023Z" fill="#191717"/>
<path d="M7.09235 19.8871C7.06273 19.9794 6.92845 20.0206 6.79417 19.9813C6.65989 19.9421 6.57103 19.8321 6.5967 19.7379C6.62237 19.6436 6.75863 19.6004 6.89488 19.6436C7.03114 19.6868 7.11803 19.7909 7.09235 19.8871Z" fill="#191717"/>
<path d="M8.06808 19.954C8.06808 20.0502 7.95751 20.1326 7.81533 20.1346C7.67315 20.1366 7.55664 20.058 7.55664 19.9618C7.55664 19.8656 7.66722 19.7831 7.8094 19.7812C7.95158 19.7792 8.06808 19.8558 8.06808 19.954Z" fill="#191717"/>
<path d="M8.9763 19.8027C8.99407 19.8989 8.89533 19.999 8.75316 20.0226C8.61098 20.0461 8.48657 19.9892 8.4688 19.8949C8.45103 19.8007 8.55371 19.6986 8.69194 19.6731C8.83017 19.6476 8.95853 19.7065 8.9763 19.8027Z" fill="#191717"/>
</g>
<defs>
<clipPath id="clip0_9004_39023">
<rect width="24" height="24" fill="white" transform="translate(0.0200195)"/>
</clipPath>
</defs>
</svg>
