<svg width="57" height="56" viewBox="0 0 57 56" fill="none" xmlns="http://www.w3.org/2000/svg">
<path d="M28.5 0.5C43.5497 0.5 55.7598 12.9391 55.7598 28C55.7598 43.0609 43.5497 55.5 28.5 55.5C13.4504 55.4999 1.24024 43.0608 1.24023 28C1.24023 12.9392 13.4504 0.500128 28.5 0.5Z" fill="white"/>
<path d="M28.5 0.5C43.5497 0.5 55.7598 12.9391 55.7598 28C55.7598 43.0609 43.5497 55.5 28.5 55.5C13.4504 55.4999 1.24024 43.0608 1.24023 28C1.24023 12.9392 13.4504 0.500128 28.5 0.5Z" stroke="#F0EAE6"/>
<g clip-path="url(#clip0_22904_311)">
<path fill-rule="evenodd" clip-rule="evenodd" d="M40.2602 28.2729C40.2602 27.422 40.1839 26.6038 40.0421 25.8184H28.7402V30.4602H35.1984C34.9202 31.9602 34.0748 33.2311 32.8039 34.082V37.0929H36.6821C38.9511 35.0038 40.2602 31.9274 40.2602 28.2729Z" fill="#4285F4"/>
<path fill-rule="evenodd" clip-rule="evenodd" d="M28.7402 39.9993C31.9802 39.9993 34.6966 38.9248 36.6821 37.092L32.8039 34.0811C31.7293 34.8011 30.3548 35.2266 28.7402 35.2266C25.6148 35.2266 22.9693 33.1157 22.0257 30.2793H18.0166V33.3884C19.9911 37.3102 24.0493 39.9993 28.7402 39.9993Z" fill="#34A853"/>
<path fill-rule="evenodd" clip-rule="evenodd" d="M22.0257 30.2804C21.7857 29.5604 21.6493 28.7913 21.6493 28.0004C21.6493 27.2095 21.7857 26.4404 22.0257 25.7204V22.6113H18.0166C17.2039 24.2313 16.7402 26.0641 16.7402 28.0004C16.7402 29.9368 17.2039 31.7695 18.0166 33.3895L22.0257 30.2804Z" fill="#FBBC05"/>
<path fill-rule="evenodd" clip-rule="evenodd" d="M28.7402 20.7727C30.5021 20.7727 32.0839 21.3782 33.3275 22.5673L36.7693 19.1255C34.6911 17.1891 31.9748 16 28.7402 16C24.0493 16 19.9911 18.6891 18.0166 22.6109L22.0257 25.72C22.9693 22.8836 25.6148 20.7727 28.7402 20.7727Z" fill="#EA4335"/>
</g>
<defs>
<clipPath id="clip0_22904_311">
<rect width="23.52" height="24" fill="white" transform="translate(16.7402 16)"/>
</clipPath>
</defs>
</svg>
