<svg width="25" height="24" viewBox="0 0 25 24" fill="none" xmlns="http://www.w3.org/2000/svg">
<g clip-path="url(#clip0_9004_39029)">
<path d="M12.7374 23.7659C10.2784 23.7659 7.99687 23.0098 6.10328 21.7211C5.21566 22.1879 3.2103 22.2931 2.33583 22.1879C1.07344 22.0367 -0.26128 20.9847 1.02084 19.959C3.01305 18.3744 2.4739 17.7498 2.4739 17.7498C1.52053 16.0469 0.974812 14.0876 0.974812 12.0033C0.981387 5.50067 6.24793 0.234131 12.7374 0.234131C19.2335 0.234131 24.5 5.50067 24.5 11.9967C24.5 18.4928 19.2335 23.7659 12.7374 23.7659ZM12.7374 1.95677C7.15527 1.95677 2.6317 6.48692 2.6317 12.0691C2.6317 13.9889 3.17085 15.7905 4.09792 17.3224C4.09792 17.3224 4.76199 19.0385 3.05907 20.3206C4.12422 20.6822 6.37285 20.0182 6.48463 20.0182C8.20727 21.3726 10.377 22.1813 12.7374 22.1813C18.3196 22.1813 22.8497 17.6512 22.8497 12.0691C22.8497 6.48692 18.3261 1.95677 12.7374 1.95677ZM18.1486 14.962C16.9125 14.962 15.9591 14.1467 15.9591 12.7792C15.9591 11.4116 16.8599 10.5371 18.2209 10.5371C19.5228 10.5371 20.3841 11.4313 20.3841 12.7068C20.3841 14.2519 19.2861 14.962 18.1486 14.962ZM18.1881 11.4707C17.5569 11.4707 17.3202 12.1217 17.3202 12.7463C17.3202 13.4761 17.6226 14.0218 18.1881 14.0218C18.7009 14.0218 19.0296 13.509 19.0296 12.7463C19.0231 12.1151 18.7864 11.4707 18.1881 11.4707ZM14.5061 14.87C14.5061 14.87 14.0064 14.87 13.796 14.87C13.4607 14.87 13.5264 14.3834 13.5264 14.3834V12.5622C13.5264 11.9441 13.3292 11.5891 12.9018 11.5891C12.5993 11.5891 12.3824 11.7995 12.2969 12.0493C12.264 12.148 12.2443 12.286 12.2443 12.3847V14.4492C12.2443 14.4492 12.2509 14.8634 11.8827 14.8634C11.6131 14.8634 11.2975 14.8634 11.2975 14.8634C11.2975 14.8634 10.9622 14.8371 10.9622 14.4097C10.9622 13.7194 10.9622 12.4833 10.9622 12.4833C10.9622 11.9441 10.7715 11.5825 10.3573 11.5825C10.022 11.5825 9.81813 11.8455 9.73923 12.0625C9.69321 12.1677 9.68663 12.286 9.68663 12.3912V14.4097C9.68663 14.4097 9.73266 14.8634 9.39076 14.8634C9.21981 14.8634 9.00941 14.8634 8.82531 14.8634C8.40451 14.8634 8.40451 14.4097 8.40451 14.4097V11.977C8.40451 11.5628 8.37822 10.879 8.37822 10.879C8.37822 10.879 8.37164 10.6226 8.64779 10.6226C8.81874 10.6226 9.02914 10.6226 9.20008 10.6226C9.46308 10.6226 9.50911 10.879 9.50911 10.879L9.54198 11.1946H9.56828C9.75238 10.925 10.1206 10.5239 10.8504 10.5239C11.3961 10.5239 11.8301 10.8001 12.0142 11.2406H12.0339C12.1917 11.0236 12.3824 10.8527 12.5796 10.7278C12.8163 10.5897 13.0727 10.5174 13.3883 10.5174C14.2036 10.5174 14.8151 11.0894 14.8151 12.3584C14.8151 12.3584 14.8151 13.6865 14.8151 14.4032C14.8085 14.8371 14.5061 14.87 14.5061 14.87ZM6.3334 9.74809C5.91918 9.74809 5.64303 9.45222 5.64961 9.0906C5.64303 8.70925 5.91918 8.41995 6.33998 8.41995C6.76735 8.41995 7.03035 8.70925 7.0435 9.0906C7.0435 9.4588 6.76735 9.74809 6.3334 9.74809ZM5.95206 10.6291C6.2545 10.6291 6.71475 10.6291 6.71475 10.6291C6.71475 10.6291 7.00405 10.6291 7.00405 10.9579C7.00405 11.7272 7.00405 14.4886 7.00405 14.4886C7.00405 14.4886 7.02377 14.87 6.7016 14.87C6.37943 14.87 5.91918 14.87 5.91918 14.87C5.91918 14.87 5.68906 14.8568 5.68906 14.5412C5.68906 13.5944 5.68906 10.8987 5.68906 10.8987C5.68906 10.8987 5.68248 10.6291 5.95206 10.6291Z" fill="#339FF8"/>
</g>
<defs>
<clipPath id="clip0_9004_39029">
<rect width="24" height="24" fill="white" transform="translate(0.5)"/>
</clipPath>
</defs>
</svg>
