<svg width="25" height="24" viewBox="0 0 25 24" fill="none" xmlns="http://www.w3.org/2000/svg">
<g clip-path="url(#clip0_9004_39040)">
<path d="M12.5 2.16276C15.706 2.16276 16.0824 2.17705 17.3496 2.23422C18.5215 2.28662 19.155 2.48194 19.579 2.64867C20.1411 2.8678 20.5413 3.12505 20.9605 3.54426C21.3797 3.96348 21.6417 4.36364 21.8561 4.92576C22.0181 5.34974 22.2182 5.98333 22.2706 7.15522C22.3277 8.42239 22.342 8.79873 22.342 12.0048C22.342 15.2108 22.3277 15.5871 22.2706 16.8543C22.2182 18.0262 22.0228 18.6598 21.8561 19.0838C21.637 19.6459 21.3797 20.046 20.9605 20.4653C20.5413 20.8845 20.1411 21.1465 19.579 21.3609C19.155 21.5228 18.5215 21.7229 17.3496 21.7753C16.0824 21.8325 15.706 21.8468 12.5 21.8468C9.29397 21.8468 8.91763 21.8325 7.65046 21.7753C6.47857 21.7229 5.84498 21.5276 5.421 21.3609C4.85888 21.1417 4.45872 20.8845 4.0395 20.4653C3.62029 20.046 3.35828 19.6459 3.14391 19.0838C2.98194 18.6598 2.78186 18.0262 2.72946 16.8543C2.67229 15.5871 2.658 15.2108 2.658 12.0048C2.658 8.79873 2.67229 8.42239 2.72946 7.15522C2.78186 5.98333 2.97718 5.34974 3.14391 4.92576C3.36304 4.36364 3.62029 3.96348 4.0395 3.54426C4.45872 3.12505 4.85888 2.86304 5.421 2.64867C5.84498 2.4867 6.47857 2.28662 7.65046 2.23422C8.91763 2.17229 9.29874 2.16276 12.5 2.16276ZM12.5 0C9.24157 0 8.83188 0.0142914 7.55042 0.0714569C6.27372 0.128622 5.40195 0.333466 4.63974 0.628821C3.84895 0.933704 3.18202 1.34815 2.51509 2.01509C1.84815 2.68202 1.43847 3.35371 1.12882 4.13974C0.833466 4.90195 0.628623 5.77372 0.571457 7.05518C0.514291 8.33188 0.5 8.74156 0.5 12C0.5 15.2584 0.514291 15.6681 0.571457 16.9496C0.628623 18.2263 0.833466 19.0981 1.12882 19.865C1.4337 20.6558 1.84815 21.3227 2.51509 21.9897C3.18202 22.6566 3.85371 23.0663 4.63974 23.3759C5.40195 23.6713 6.27372 23.8761 7.55519 23.9333C8.83665 23.9905 9.24157 24.0048 12.5048 24.0048C15.768 24.0048 16.1729 23.9905 17.4544 23.9333C18.7311 23.8761 19.6028 23.6713 20.3698 23.3759C21.1606 23.0711 21.8275 22.6566 22.4945 21.9897C23.1614 21.3227 23.5711 20.6511 23.8807 19.865C24.1761 19.1028 24.3809 18.231 24.4381 16.9496C24.4953 15.6681 24.5095 15.2632 24.5095 12C24.5095 8.7368 24.4953 8.33188 24.4381 7.05042C24.3809 5.77372 24.1761 4.90195 23.8807 4.13497C23.5758 3.34418 23.1614 2.67725 22.4945 2.01032C21.8275 1.34339 21.1558 0.933704 20.3698 0.624057C19.6076 0.328702 18.7358 0.123859 17.4544 0.0666931C16.1681 0.0142914 15.7584 0 12.5 0Z" fill="black"/>
<path d="M12.4998 5.84045C9.09845 5.84045 6.33545 8.59869 6.33545 12.0048C6.33545 15.4109 9.09369 18.1692 12.4998 18.1692C15.9059 18.1692 18.6642 15.4109 18.6642 12.0048C18.6642 8.59869 15.9059 5.84045 12.4998 5.84045ZM12.4998 16.0016C10.2894 16.0016 8.49821 14.2104 8.49821 12C8.49821 9.78964 10.2894 7.99845 12.4998 7.99845C14.7102 7.99845 16.5014 9.78964 16.5014 12C16.5014 14.2104 14.7102 16.0016 12.4998 16.0016Z" fill="black"/>
<path d="M18.9074 7.03139C19.702 7.03139 20.3461 6.38727 20.3461 5.59272C20.3461 4.79817 19.702 4.15405 18.9074 4.15405C18.1129 4.15405 17.4688 4.79817 17.4688 5.59272C17.4688 6.38727 18.1129 7.03139 18.9074 7.03139Z" fill="black"/>
</g>
<defs>
<clipPath id="clip0_9004_39040">
<rect width="24" height="24" fill="white" transform="translate(0.5)"/>
</clipPath>
</defs>
</svg>
