<svg width="25" height="24" viewBox="0 0 25 24" fill="none" xmlns="http://www.w3.org/2000/svg">
<g clip-path="url(#clip0_9004_39041)">
<path d="M14.0374 12.2277C14.0374 15.9984 11.0069 19.0552 7.26883 19.0552C3.53073 19.0552 0.5 15.9977 0.5 12.2277C0.5 8.4577 3.5305 5.40002 7.26883 5.40002C11.0072 5.40002 14.0374 8.45701 14.0374 12.2277Z" fill="black"/>
<path d="M21.4627 12.2277C21.4627 15.777 19.9474 18.6554 18.0783 18.6554C16.2091 18.6554 14.6938 15.777 14.6938 12.2277C14.6938 8.67836 16.2089 5.79993 18.078 5.79993C19.9472 5.79993 21.4625 8.67744 21.4625 12.2277" fill="black"/>
<path d="M24.5 12.2277C24.5 15.4071 23.9672 17.986 23.3097 17.986C22.6522 17.986 22.1196 15.4077 22.1196 12.2277C22.1196 9.04772 22.6525 6.46948 23.3097 6.46948C23.967 6.46948 24.5 9.04749 24.5 12.2277Z" fill="black"/>
</g>
<defs>
<clipPath id="clip0_9004_39041">
<rect width="24" height="24" fill="white" transform="translate(0.5)"/>
</clipPath>
</defs>
</svg>
