<svg width="25" height="24" viewBox="0 0 25 24" fill="none" xmlns="http://www.w3.org/2000/svg">
<path d="M23.3002 12.1808C23.3002 10.7953 22.2373 9.67091 20.9276 9.67091C20.2823 9.67091 19.7128 9.93194 19.2953 10.3737C17.6819 9.14887 15.4422 8.34572 12.9747 8.24533L14.0566 2.8843L17.568 3.66737C17.606 4.61107 18.3462 5.37407 19.2573 5.37407C20.1874 5.37407 20.9466 4.57092 20.9466 3.58706C20.9466 2.6032 20.1874 1.80005 19.2573 1.80005C18.593 1.80005 18.0236 2.20162 17.7578 2.80399L13.8288 1.92052C13.715 1.90044 13.6011 1.92052 13.5062 1.98076C13.4113 2.04099 13.3543 2.14139 13.3164 2.26186L12.1206 8.24533C9.59615 8.32564 7.33745 9.10871 5.70512 10.3737C5.28754 9.95202 4.69914 9.67091 4.07278 9.67091C2.76311 9.67091 1.7002 10.7953 1.7002 12.1808C1.7002 13.2048 2.26962 14.0682 3.10476 14.4697C3.0668 14.7107 3.04782 14.9717 3.04782 15.2327C3.04782 19.0878 7.28051 22.2001 12.5192 22.2001C17.7578 22.2001 21.9905 19.0878 21.9905 15.2327C21.9905 14.9717 21.9715 14.7308 21.9336 14.4898C22.7118 14.0882 23.3002 13.2048 23.3002 12.1808ZM7.07172 13.9678C7.07172 12.9839 7.83095 12.1808 8.761 12.1808C9.69106 12.1808 10.4503 12.9839 10.4503 13.9678C10.4503 14.9516 9.69106 15.7548 8.761 15.7548C7.83095 15.7548 7.07172 14.9516 7.07172 13.9678ZM16.5051 18.6863C15.3473 19.9111 13.1455 19.9914 12.5002 19.9914C11.8549 19.9914 9.63411 19.891 8.49527 18.6863C8.32445 18.5056 8.32445 18.2044 8.49527 18.0237C8.6661 17.843 8.95081 17.843 9.12164 18.0237C9.8429 18.7867 11.3993 19.0678 12.5192 19.0678C13.639 19.0678 15.1765 18.7867 15.9167 18.0237C16.0875 17.843 16.3723 17.843 16.5431 18.0237C16.6759 18.2245 16.6759 18.5056 16.5051 18.6863ZM16.2014 15.7548C15.2714 15.7548 14.5121 14.9516 14.5121 13.9678C14.5121 12.9839 15.2714 12.1808 16.2014 12.1808C17.1315 12.1808 17.8907 12.9839 17.8907 13.9678C17.8907 14.9516 17.1315 15.7548 16.2014 15.7548Z" fill="#FF4500"/>
</svg>
