<svg width="25" height="24" viewBox="0 0 25 24" fill="none" xmlns="http://www.w3.org/2000/svg">
<g clip-path="url(#clip0_9004_39038)">
<path d="M9.6191 0.350321L9.88844 1.44131C8.8269 1.70366 7.81091 2.12431 6.87459 2.68912L6.29842 1.72428C7.32903 1.10015 8.4488 0.636839 9.6191 0.350321ZM15.3809 0.350321L15.1115 1.44131C16.1731 1.70366 17.1891 2.12431 18.1254 2.68912L18.7084 1.72428C17.6751 1.1007 16.5531 0.637445 15.3809 0.350321ZM2.22427 5.79502C1.60072 6.82715 1.13746 7.94795 0.850307 9.11912L1.94129 9.38845C2.20365 8.32692 2.6243 7.31092 3.18911 6.37461L2.22427 5.79502ZM1.62422 12C1.62414 11.4545 1.66517 10.9097 1.74696 10.3703L0.635519 10.1999C0.454827 11.392 0.454827 12.6046 0.635519 13.7967L1.74696 13.6297C1.6653 13.0903 1.62427 12.5455 1.62422 12ZM18.7016 22.2723L18.1254 21.3109C17.1905 21.8762 16.1756 22.2969 15.1149 22.5587L15.3843 23.6497C16.5532 23.3604 17.6716 22.896 18.7016 22.2723ZM23.3757 12C23.3757 12.5455 23.3347 13.0903 23.253 13.6297L24.3645 13.7967C24.5451 12.6046 24.5451 11.392 24.3645 10.1999L23.253 10.3703C23.3348 10.9097 23.3758 11.4545 23.3757 12ZM24.1497 14.8775L23.0587 14.6081C22.7969 15.671 22.3763 16.6882 21.8109 17.6254L22.7757 18.205C23.3999 17.1719 23.8631 16.0499 24.1497 14.8775ZM14.1296 22.753C13.0494 22.9167 11.9506 22.9167 10.8703 22.753L10.7033 23.8645C11.8943 24.0452 13.1057 24.0452 14.2967 23.8645L14.1296 22.753ZM21.2551 18.4505C20.6071 19.3292 19.8301 20.105 18.9504 20.7517L19.6187 21.6586C20.5876 20.9453 21.4448 20.0916 22.162 19.1255L21.2551 18.4505ZM18.9504 3.24484C19.8302 3.89279 20.6072 4.66977 21.2551 5.54955L22.162 4.8745C21.4474 3.90755 20.5924 3.05263 19.6255 2.33796L18.9504 3.24484ZM3.74483 5.54955C4.39277 4.66977 5.16975 3.89279 6.04953 3.24484L5.37449 2.33796C4.40754 3.05263 3.55262 3.90755 2.83795 4.8745L3.74483 5.54955ZM22.7757 5.79502L21.8109 6.37461C22.3762 7.30944 22.7969 8.32439 23.0587 9.38504L24.1497 9.11571C23.8625 7.94562 23.3992 6.82595 22.7757 5.79502ZM10.8703 1.24698C11.9506 1.08331 13.0494 1.08331 14.1296 1.24698L14.2967 0.135533C13.1057 -0.0451778 11.8943 -0.0451778 10.7033 0.135533L10.8703 1.24698ZM4.321 21.9586L1.99925 22.4973L2.54133 20.1756L1.44694 19.9199L0.904856 22.2416C0.870939 22.3856 0.865733 22.5348 0.889538 22.6808C0.913343 22.8267 0.965691 22.9665 1.04359 23.0923C1.12148 23.218 1.2234 23.3271 1.34351 23.4134C1.46361 23.4997 1.59955 23.5614 1.74355 23.5951C1.91195 23.6326 2.08655 23.6326 2.25495 23.5951L4.5767 23.0599L4.321 21.9586ZM1.67877 18.9175L2.77658 19.1698L3.1516 17.5606C2.60394 16.6419 2.19604 15.6469 1.94129 14.6081L0.850307 14.8775C1.0957 15.8718 1.46691 16.8307 1.95493 17.7311L1.67877 18.9175ZM6.92914 21.3518L5.31994 21.7268L5.57564 22.8246L6.75868 22.5485C7.65837 23.038 8.6175 23.4092 9.61228 23.6531L9.88162 22.5621C8.84611 22.304 7.85458 21.8939 6.93937 21.345L6.92914 21.3518ZM12.5 2.24932C7.11325 2.25273 2.75271 6.62008 2.75271 12.0034C2.75568 13.837 3.27433 15.6328 4.24941 17.1856L3.31184 21.1881L7.31099 20.2506C11.8693 23.1178 17.8901 21.7507 20.7574 17.1958C23.6246 12.641 22.2609 6.62008 17.706 3.74942C16.1467 2.76883 14.342 2.24882 12.5 2.24932Z" fill="#3A76F0"/>
</g>
<defs>
<clipPath id="clip0_9004_39038">
<rect width="24" height="24" fill="white" transform="translate(0.5)"/>
</clipPath>
</defs>
</svg>
