<svg width="25" height="24" viewBox="0 0 25 24" fill="none" xmlns="http://www.w3.org/2000/svg">
<g clip-path="url(#clip0_9004_39026)">
<path d="M12.0686 19.2229C8.08178 19.2229 6.26024 17.192 6.26024 15.7023C6.25971 15.347 6.40555 15.0071 6.66347 14.7626C6.92139 14.5182 7.26861 14.3907 7.62343 14.4103C9.33038 14.4103 8.88388 16.9707 12.0686 16.9707C13.6965 16.9707 14.6527 15.9908 14.6527 15.0701C14.6527 14.517 14.3366 13.8848 13.2619 13.6319L9.70575 12.7349C6.84898 12.0079 6.35112 10.4195 6.35112 8.94568C6.35112 5.8874 9.14862 4.78105 11.8118 4.78105C14.2655 4.78105 17.1815 6.13633 17.1815 7.96972C17.1815 8.75997 16.5217 9.18275 15.7551 9.18275C14.2971 9.18275 14.5421 7.136 11.6103 7.136C10.1522 7.136 9.38569 7.81957 9.38569 8.77577C9.38569 9.73198 10.5197 10.056 11.5154 10.2733L14.1391 10.866C17.0156 11.514 17.7821 13.2012 17.7821 14.8173C17.7821 17.3026 15.8579 19.2229 12.0647 19.2229H12.0686ZM23.0768 13.9638C23.1907 13.3114 23.2476 12.6504 23.2467 11.9882C23.2607 8.66163 21.799 5.50012 19.2558 3.35585C16.7126 1.21157 13.3495 0.305235 10.0732 0.881148C9.06619 0.301352 7.92406 -0.00258049 6.76205 1.65041e-05C4.37691 0.0145868 2.17838 1.2929 0.985818 3.35855C-0.206746 5.42419 -0.214461 7.96733 0.965549 10.0402C0.307113 13.6581 1.4605 17.3693 4.05367 19.9766C6.64684 22.584 10.3517 23.7576 13.9731 23.1189C14.9789 23.6982 16.1196 24.0021 17.2803 24C19.6642 23.9846 21.8614 22.7069 23.0537 20.6425C24.2461 18.5781 24.2548 16.0364 23.0768 13.9638Z" fill="#0078D7"/>
</g>
<defs>
<clipPath id="clip0_9004_39026">
<rect width="24" height="24" fill="white" transform="translate(0.0200195)"/>
</clipPath>
</defs>
</svg>
