<svg width="25" height="24" viewBox="0 0 25 24" fill="none" xmlns="http://www.w3.org/2000/svg">
<path d="M21.5999 16.8183C18.283 15.2126 17.7543 12.7335 17.7308 12.5496C17.7023 12.3269 17.67 12.1518 17.9158 11.9252C18.1527 11.7063 19.204 11.0556 19.4957 10.852C19.9779 10.5149 20.1902 10.1783 20.0337 9.76461C19.9242 9.47839 19.6577 9.37058 19.377 9.37058C19.2884 9.37085 19.2001 9.38076 19.1137 9.40014C18.584 9.51506 18.0695 9.78048 17.7718 9.85218C17.7361 9.8614 17.6993 9.86636 17.6624 9.86695C17.5037 9.86695 17.4435 9.79635 17.4588 9.60536C17.496 9.02635 17.5748 7.89625 17.4834 6.84058C17.3581 5.38814 16.8896 4.66849 16.3342 4.03202C16.0655 3.72336 14.8177 2.39734 12.4097 2.39734C10.0018 2.39734 8.75564 3.72336 8.48858 4.02819C7.93146 4.66466 7.46355 5.38431 7.33932 6.83675C7.24793 7.89242 7.33002 9.02198 7.36395 9.60153C7.3749 9.78322 7.31907 9.86312 7.16037 9.86312C7.12343 9.86249 7.0867 9.85753 7.05091 9.84835C6.75375 9.77665 6.23932 9.51123 5.70957 9.3963C5.62316 9.37693 5.53489 9.36702 5.44634 9.36675C5.16449 9.36675 4.89907 9.4762 4.78962 9.76078C4.6331 10.1745 4.84434 10.5111 5.32813 10.8482C5.61982 11.0518 6.67111 11.7019 6.90808 11.9214C7.15325 12.148 7.12151 12.3231 7.09305 12.5458C7.06952 12.7324 6.54032 15.2115 3.22389 16.8145C3.02961 16.9086 2.69907 17.1078 3.2819 17.4296C4.19693 17.9353 4.80604 17.8811 5.27942 18.1859C5.68111 18.4448 5.4436 19.003 5.73584 19.2044C6.09484 19.4523 7.15599 19.1869 8.52689 19.6395C9.67614 20.0182 10.3745 21.0881 12.4125 21.0881C14.4505 21.0881 15.169 20.0132 16.298 19.6395C17.6662 19.1869 18.7295 19.4523 19.0891 19.2044C19.3808 19.003 19.1438 18.4448 19.5455 18.1859C20.0189 17.8811 20.6275 17.9353 21.543 17.4296C22.1248 17.1116 21.7942 16.9124 21.5999 16.8183Z" fill="white"/>
<path d="M23.0432 16.6295C22.8944 16.2245 22.6109 16.0078 22.288 15.8283C22.2273 15.7927 22.1714 15.7643 22.1238 15.7424C22.0275 15.6926 21.929 15.6444 21.831 15.5935C20.8246 15.06 20.0388 14.3868 19.4937 13.5889C19.3389 13.3643 19.2046 13.1262 19.0925 12.8775C19.046 12.7445 19.0482 12.669 19.0816 12.6C19.1147 12.5469 19.1585 12.5012 19.2102 12.4659C19.3831 12.3516 19.5615 12.2355 19.6825 12.1573C19.8981 12.0177 20.0689 11.9072 20.1789 11.8289C20.592 11.54 20.881 11.2329 21.0616 10.8898C21.1876 10.6527 21.2611 10.3913 21.277 10.1233C21.293 9.85532 21.2511 9.58702 21.1541 9.33667C20.8804 8.61647 20.2002 8.16936 19.376 8.16936C19.2022 8.16919 19.0288 8.18754 18.8589 8.22409C18.8134 8.23394 18.768 8.24433 18.7237 8.25583C18.7313 7.76329 18.7204 7.24339 18.6766 6.7317C18.5212 4.93284 17.8913 3.9899 17.2346 3.23796C16.814 2.76676 16.3187 2.36812 15.7685 2.05806C14.7719 1.48891 13.6418 1.19995 12.4099 1.19995C11.178 1.19995 10.0534 1.48891 9.05571 2.05806C8.50413 2.36821 8.00779 2.76766 7.58686 3.24015C6.93014 3.99209 6.30024 4.93667 6.14482 6.73389C6.10104 7.24558 6.09009 7.76822 6.0972 8.25802C6.05288 8.24652 6.008 8.23613 5.96258 8.22628C5.79262 8.18973 5.61926 8.17138 5.44541 8.17155C4.62069 8.17155 3.93934 8.61866 3.66681 9.33886C3.56939 9.58932 3.52703 9.85781 3.54261 10.1261C3.5582 10.3944 3.63135 10.6561 3.7571 10.8936C3.93825 11.2368 4.2272 11.5438 4.64039 11.8327C4.74984 11.9094 4.92113 12.0199 5.13676 12.1611C5.25332 12.2366 5.42352 12.3472 5.59044 12.4577C5.64884 12.4955 5.69847 12.5453 5.73601 12.6038C5.77104 12.6755 5.77213 12.7527 5.72014 12.895C5.60956 13.1385 5.47751 13.3716 5.32556 13.5917C4.79253 14.3715 4.02964 15.0326 3.05551 15.5618C2.53944 15.8354 2.00312 16.0182 1.77656 16.6339C1.60581 17.0985 1.71745 17.6272 2.15143 18.0727C2.31071 18.2389 2.49544 18.3788 2.6987 18.4869C3.12162 18.7193 3.57133 18.8993 4.03785 19.0227C4.13412 19.0475 4.22552 19.0884 4.3082 19.1436C4.46636 19.2821 4.44392 19.4906 4.65462 19.796C4.76038 19.9538 4.89477 20.0904 5.05084 20.1988C5.49303 20.5041 5.98994 20.5233 6.51641 20.5435C6.99198 20.5616 7.53104 20.5824 8.14671 20.7854C8.40173 20.8697 8.66661 21.0328 8.97362 21.2233C9.71079 21.6764 10.7199 22.2964 12.4088 22.2964C14.0977 22.2964 15.1139 21.6731 15.8566 21.2183C16.1614 21.0312 16.4246 20.8697 16.6725 20.7876C17.2882 20.584 17.8273 20.5638 18.3028 20.5457C18.8293 20.5255 19.3262 20.5063 19.7684 20.201C19.9532 20.0721 20.1072 19.9039 20.2193 19.7084C20.3709 19.4507 20.3671 19.2706 20.5094 19.1447C20.587 19.0921 20.6728 19.0529 20.7633 19.0287C21.2362 18.9049 21.6921 18.7233 22.1205 18.488C22.3365 18.3722 22.5309 18.22 22.6952 18.0382L22.7006 18.0316C23.1078 17.596 23.2101 17.0827 23.0432 16.6295ZM21.5421 17.4362C20.6265 17.9419 20.018 17.8877 19.5446 18.1925C19.1423 18.4514 19.3804 19.0096 19.0882 19.211C18.7291 19.4589 17.668 19.1934 16.2971 19.646C15.1665 20.0198 14.4452 21.0946 12.4115 21.0946C10.3779 21.0946 9.67357 20.022 8.52432 19.6433C7.15616 19.1907 6.09283 19.4561 5.73327 19.2082C5.44158 19.0068 5.67855 18.4486 5.27686 18.1898C4.80293 17.8849 4.19437 17.9391 3.27934 17.4362C2.69651 17.1144 3.02705 16.9152 3.22133 16.8211C6.53775 15.2154 7.06696 12.7363 7.09049 12.5524C7.11895 12.3297 7.15069 12.1545 6.90551 11.928C6.66855 11.7091 5.61725 11.0584 5.32556 10.8548C4.84288 10.5177 4.63054 10.1811 4.78706 9.76737C4.89651 9.48115 5.16357 9.37334 5.44377 9.37334C5.53233 9.37361 5.62059 9.38352 5.70701 9.40289C6.23676 9.51782 6.75119 9.78324 7.04835 9.85493C7.08413 9.86412 7.12087 9.86908 7.1578 9.86971C7.31651 9.86971 7.37233 9.78981 7.36138 9.60812C7.32745 9.02856 7.24536 7.89901 7.33676 6.84334C7.46208 5.3909 7.92999 4.67125 8.48601 4.03478C8.75308 3.72886 10.008 2.40284 12.4077 2.40284C14.8075 2.40284 16.0656 3.72339 16.3327 4.02821C16.8892 4.66468 17.3577 5.38433 17.4819 6.83677C17.5733 7.89244 17.4945 9.02254 17.4573 9.60155C17.4447 9.79254 17.5022 9.86314 17.6609 9.86314C17.6978 9.86255 17.7346 9.85759 17.7703 9.84837C18.0681 9.77667 18.5825 9.51125 19.1122 9.39633C19.1986 9.37695 19.2869 9.36704 19.3755 9.36677C19.6573 9.36677 19.9227 9.47623 20.0322 9.7608C20.1887 10.1745 19.9775 10.5111 19.4942 10.8482C19.2025 11.0518 18.1512 11.7019 17.9143 11.9214C17.6686 12.148 17.7008 12.3231 17.7293 12.5458C17.7528 12.7324 18.2815 15.2116 21.5985 16.8145C21.7944 16.9125 22.1249 17.1117 21.5421 17.4362Z" fill="black"/>
</svg>
