<svg width="25" height="24" viewBox="0 0 25 24" fill="none" xmlns="http://www.w3.org/2000/svg">
<g clip-path="url(#clip0_9004_39042)">
<path d="M12.02 0C5.39275 0 0.0200195 5.37218 0.0200195 12C0.0200195 18.6278 5.39275 24 12.02 24C18.6473 24 24.02 18.6278 24.02 12C24.02 5.37218 18.6473 0 12.02 0ZM17.8746 17.2987C17.6818 17.64 17.3273 17.832 16.9618 17.832C16.7909 17.832 16.6146 17.7893 16.4527 17.6993C14.9546 16.8593 13.3218 16.3447 11.5964 16.17C9.8673 15.9967 8.16002 16.1722 6.52002 16.6958C5.97275 16.8705 5.38366 16.5682 5.20912 16.02C5.03275 15.4709 5.33639 14.8838 5.88548 14.7082C7.7982 14.0971 9.79274 13.8893 11.8073 14.094C13.8182 14.2987 15.7237 14.8987 17.4727 15.8791C17.9764 16.1595 18.1564 16.7955 17.8746 17.2987ZM19.3109 13.6538C19.1255 14.0107 18.7618 14.2155 18.3855 14.2155C18.2218 14.2155 18.0582 14.178 17.9037 14.0971C16.0618 13.1378 14.0727 12.5438 11.9873 12.3322C9.88546 12.1171 7.80366 12.3045 5.79639 12.8835C5.24184 13.0409 4.66366 12.7238 4.50548 12.1695C4.34548 11.616 4.66547 11.0378 5.2182 10.878C7.48365 10.2247 9.83274 10.0155 12.1982 10.2555C14.5473 10.4947 16.7909 11.1638 18.8691 12.2467C19.3782 12.5131 19.5782 13.1429 19.3109 13.6538ZM19.8309 10.6215C19.6746 10.6215 19.5164 10.5862 19.3655 10.512C17.18 9.42218 14.8291 8.74345 12.3764 8.49455C9.92001 8.24327 7.47638 8.43746 5.11093 9.06909C4.55456 9.21673 3.98365 8.88673 3.83456 8.32945C3.68547 7.77291 4.01639 7.20073 4.57457 7.05218C7.18367 6.35546 9.88184 6.14327 12.5891 6.41855C15.2927 6.69218 17.8855 7.44145 20.2964 8.64382C20.8128 8.90091 21.0218 9.528 20.7655 10.0433C20.5837 10.41 20.2146 10.6215 19.8309 10.6215Z" fill="#1ED760"/>
</g>
<defs>
<clipPath id="clip0_9004_39042">
<rect width="24" height="24" fill="white" transform="translate(0.0200195)"/>
</clipPath>
</defs>
</svg>
