<svg width="25" height="24" viewBox="0 0 25 24" fill="none" xmlns="http://www.w3.org/2000/svg">
<g clip-path="url(#clip0_9004_39037)">
<path fill-rule="evenodd" clip-rule="evenodd" d="M2.5369 11.2933C8.73838 8.59144 12.8737 6.81019 14.9428 5.94958C20.8505 3.49236 22.0781 3.06551 22.8782 3.05142C23.0542 3.04832 23.4476 3.09193 23.7025 3.29875C23.9177 3.47337 23.9769 3.70927 24.0053 3.87484C24.0336 4.04041 24.0689 4.41758 24.0408 4.71228C23.7207 8.07603 22.3355 16.2389 21.6307 20.0064C21.3325 21.6005 20.7454 22.1351 20.1769 22.1874C18.9416 22.301 18.0035 21.371 16.807 20.5866C14.9347 19.3593 13.877 18.5953 12.0596 17.3977C9.95927 16.0136 11.3208 15.2529 12.5178 14.0097C12.831 13.6844 18.274 8.73353 18.3794 8.28441C18.3926 8.22824 18.4048 8.01887 18.2804 7.90831C18.156 7.79775 17.9724 7.83556 17.84 7.86563C17.6522 7.90825 14.6612 9.88519 8.86691 13.7965C8.01793 14.3794 7.24894 14.6635 6.55995 14.6486C5.8004 14.6322 4.33932 14.2191 3.25317 13.8661C1.92095 13.433 0.862128 13.2041 0.954327 12.4686C1.00235 12.0855 1.52987 11.6938 2.5369 11.2933Z" fill="url(#paint0_linear_9004_39037)"/>
</g>
<defs>
<linearGradient id="paint0_linear_9004_39037" x1="12.4999" y1="3.05127" x2="12.4999" y2="22.0549" gradientUnits="userSpaceOnUse">
<stop stop-color="#2AABEE"/>
<stop offset="1" stop-color="#229ED9"/>
</linearGradient>
<clipPath id="clip0_9004_39037">
<rect width="24" height="24" fill="white" transform="translate(0.5)"/>
</clipPath>
</defs>
</svg>
