<svg width="25" height="24" viewBox="0 0 25 24" fill="none" xmlns="http://www.w3.org/2000/svg">
<path d="M17.6918 8.66347C19.2352 9.77064 21.1259 10.4221 23.1679 10.4221V6.47861C22.7814 6.47869 22.396 6.43825 22.0179 6.35786V9.46193C19.976 9.46193 18.0856 8.81049 16.5418 7.7034V15.7509C16.5418 19.7766 13.2899 23.0399 9.27871 23.0399C7.78204 23.0399 6.39094 22.5858 5.23535 21.807C6.55426 23.1604 8.39359 24 10.4285 24C14.4399 24 17.692 20.7367 17.692 16.7108V8.66347H17.6918ZM19.1105 4.68499C18.3218 3.82023 17.8039 2.70267 17.6918 1.46717V0.959961H16.602C16.8764 2.53028 17.812 3.87187 19.1105 4.68499ZM7.77244 18.7178C7.33176 18.1379 7.09362 17.4286 7.09469 16.6992C7.09469 14.858 8.5821 13.3651 10.4172 13.3651C10.7591 13.365 11.0991 13.4176 11.425 13.5214V9.48977C11.0441 9.43738 10.6597 9.41514 10.2755 9.4233V12.5613C9.94932 12.4575 9.60922 12.4048 9.26715 12.4051C7.43209 12.4051 5.94477 13.8979 5.94477 15.7393C5.94477 17.0414 6.68822 18.1687 7.77244 18.7178Z" fill="#FF004F"/>
<path d="M16.5416 7.70332C18.0854 8.81041 19.9758 9.46185 22.0176 9.46185V6.35778C20.8779 6.11414 19.8689 5.5164 19.1103 4.68499C17.8117 3.87179 16.8761 2.5302 16.6018 0.959961H13.7392V16.7106C13.7327 18.5468 12.2479 20.0336 10.4168 20.0336C9.33771 20.0336 8.37908 19.5174 7.77196 18.7178C6.68782 18.1687 5.94437 17.0413 5.94437 15.7394C5.94437 13.8981 7.43169 12.4052 9.26675 12.4052C9.61834 12.4052 9.95721 12.4602 10.2751 12.5614V9.42338C6.33435 9.50509 3.16504 12.7365 3.16504 16.7107C3.16504 18.6946 3.95427 20.493 5.2352 21.8071C6.39079 22.5858 7.78189 23.04 9.27856 23.04C13.2898 23.04 16.5417 19.7765 16.5417 15.7509V7.70332H16.5416Z" fill="black"/>
<path d="M22.0177 6.3578V5.51848C20.9899 5.52005 19.9823 5.23119 19.1103 4.68493C19.8822 5.53306 20.8987 6.11787 22.0177 6.3578ZM16.6018 0.959983C16.5757 0.809911 16.5556 0.658851 16.5416 0.507214V0H12.5892V15.7508C12.5828 17.5868 11.0981 19.0736 9.26677 19.0736C8.72913 19.0736 8.22152 18.9455 7.77198 18.7179C8.3791 19.5174 9.33773 20.0335 10.4168 20.0335C12.2477 20.0335 13.7328 18.5469 13.7392 16.7107V0.959983H16.6018ZM10.2753 9.4234V8.52989C9.94501 8.48459 9.61204 8.46186 9.27867 8.46202C5.26705 8.46194 2.01514 11.7254 2.01514 15.7508C2.01514 18.2745 3.2932 20.4987 5.23531 21.807C3.95437 20.493 3.16514 18.6944 3.16514 16.7106C3.16514 12.7365 6.33437 9.50511 10.2753 9.4234Z" fill="#00F2EA"/>
</svg>
