<svg width="25" height="24" viewBox="0 0 25 24" fill="none" xmlns="http://www.w3.org/2000/svg">
<g clip-path="url(#clip0_9004_39033)">
<path d="M0.0200195 24L1.71629 17.8403C0.667584 16.0323 0.117441 13.9848 0.123171 11.8916C0.123171 5.3327 5.48706 0 12.0716 0C15.2693 0 18.2722 1.23764 20.5243 3.48479C22.7822 5.73194 24.0257 8.72053 24.02 11.8973C24.02 18.4563 18.6561 23.789 12.0659 23.789H12.0601C10.0601 23.789 8.09451 23.2871 6.34666 22.3403L0.0200195 24ZM6.65039 20.1901L7.01142 20.4068C8.53577 21.308 10.2836 21.7814 12.0659 21.7871H12.0716C17.5444 21.7871 22.0028 17.3555 22.0028 11.903C22.0028 9.26236 20.9713 6.78137 19.0974 4.91065C17.2234 3.03992 14.7249 2.01331 12.0716 2.01331C6.59881 2.0076 2.14036 6.43916 2.14036 11.8916C2.14036 13.7567 2.66185 15.576 3.65899 17.1502L3.89394 17.5266L2.89108 21.1711L6.65039 20.1901Z" fill="white"/>
<path d="M0.438477 23.5837L2.07744 17.635C1.06312 15.8955 0.530167 13.9164 0.530167 11.8974C0.535898 5.56657 5.71068 0.416382 12.0717 0.416382C15.1605 0.416382 18.0545 1.6141 20.2322 3.7814C22.4098 5.9487 23.6075 8.83463 23.6075 11.9031C23.6075 18.2339 18.427 23.3841 12.0717 23.3841H12.066C10.1347 23.3841 8.2379 22.8993 6.55309 21.9867L0.438477 23.5837Z" fill="url(#paint0_linear_9004_39033)"/>
<path d="M0.0200195 24L1.71629 17.8403C0.667584 16.0323 0.117441 13.9848 0.123171 11.8916C0.123171 5.3327 5.48706 0 12.0716 0C15.2693 0 18.2722 1.23764 20.5243 3.48479C22.7822 5.73194 24.0257 8.72053 24.02 11.8973C24.02 18.4563 18.6561 23.789 12.0659 23.789H12.0601C10.0601 23.789 8.09451 23.2871 6.34666 22.3403L0.0200195 24ZM6.65039 20.1901L7.01142 20.4068C8.53577 21.308 10.2836 21.7814 12.0659 21.7871H12.0716C17.5444 21.7871 22.0028 17.3555 22.0028 11.903C22.0028 9.26236 20.9713 6.78137 19.0974 4.91065C17.2234 3.03992 14.7249 2.01331 12.0716 2.01331C6.59881 2.0076 2.14036 6.43916 2.14036 11.8916C2.14036 13.7567 2.66185 15.576 3.65899 17.1502L3.89394 17.5266L2.89108 21.1711L6.65039 20.1901Z" fill="url(#paint1_linear_9004_39033)"/>
<path fill-rule="evenodd" clip-rule="evenodd" d="M9.08602 6.9183C8.86253 6.42211 8.62757 6.4107 8.41554 6.405C8.24362 6.39929 8.04304 6.39929 7.84247 6.39929C7.6419 6.39929 7.32098 6.47344 7.04591 6.77001C6.77084 7.06659 6.00293 7.78522 6.00293 9.251C6.00293 10.7111 7.07456 12.1255 7.22356 12.3251C7.37256 12.5248 9.29233 15.6217 12.3238 16.8137C14.8453 17.8061 15.3611 17.6065 15.9055 17.5552C16.4499 17.5039 17.6705 16.8366 17.9227 16.1407C18.1691 15.4449 18.1691 14.8518 18.0946 14.7263C18.0201 14.6008 17.8195 14.5267 17.5215 14.3784C17.2236 14.2301 15.7565 13.5115 15.4814 13.4088C15.2064 13.3118 15.0058 13.2605 14.8109 13.5571C14.6104 13.8537 14.0373 14.521 13.8654 14.7206C13.6935 14.9202 13.5158 14.943 13.2178 14.7947C12.9198 14.6464 11.9571 14.3328 10.8167 13.3175C9.92843 12.5305 9.32671 11.5552 9.15479 11.2586C8.98287 10.962 9.1376 10.8023 9.28659 10.654C9.4184 10.5229 9.58459 10.3061 9.73359 10.135C9.88258 9.96393 9.93416 9.83846 10.0316 9.63884C10.129 9.43922 10.0832 9.26811 10.0087 9.11982C9.93416 8.97724 9.34963 7.50576 9.08602 6.9183Z" fill="white"/>
</g>
<defs>
<linearGradient id="paint0_linear_9004_39033" x1="12.0224" y1="23.5825" x2="12.0224" y2="0.415571" gradientUnits="userSpaceOnUse">
<stop stop-color="#20B038"/>
<stop offset="1" stop-color="#60D66A"/>
</linearGradient>
<linearGradient id="paint1_linear_9004_39033" x1="12.0224" y1="23.9977" x2="12.0224" y2="0" gradientUnits="userSpaceOnUse">
<stop stop-color="#F9F9F9"/>
<stop offset="1" stop-color="white"/>
</linearGradient>
<clipPath id="clip0_9004_39033">
<rect width="24" height="24" fill="white" transform="translate(0.0200195)"/>
</clipPath>
</defs>
</svg>
