<svg width="57" height="56" viewBox="0 0 57 56" fill="none" xmlns="http://www.w3.org/2000/svg">
<path d="M0.740234 28C0.740234 12.536 13.2763 0 28.7402 0C44.2042 0 56.7402 12.536 56.7402 28C56.7402 43.464 44.2042 56 28.7402 56C13.2763 56 0.740234 43.464 0.740234 28Z" fill="#1D1D1D"/>
<path d="M38.5125 34.7033C38.1462 35.5418 37.7127 36.3136 37.2104 37.0232C36.5257 37.9906 35.9651 38.6602 35.5331 39.032C34.8633 39.6424 34.1458 39.955 33.3774 39.9728C32.8257 39.9728 32.1605 39.8172 31.3861 39.5017C30.6092 39.1876 29.8952 39.032 29.2423 39.032C28.5577 39.032 27.8233 39.1876 27.0379 39.5017C26.2513 39.8172 25.6176 39.9816 25.133 39.9979C24.3962 40.0291 23.6617 39.7076 22.9286 39.032C22.4607 38.6276 21.8754 37.9343 21.1743 36.9521C20.422 35.9033 19.8036 34.687 19.3191 33.3004C18.8002 31.8026 18.54 30.3523 18.54 28.9482C18.54 27.3398 18.8908 25.9526 19.5932 24.7901C20.1453 23.8564 20.8798 23.1198 21.799 22.5791C22.7183 22.0383 23.7115 21.7628 24.7811 21.7452C25.3664 21.7452 26.1339 21.9246 27.0877 22.2771C28.0388 22.6309 28.6494 22.8103 28.9172 22.8103C29.1174 22.8103 29.7958 22.6005 30.9458 22.1823C32.0334 21.7945 32.9513 21.6339 33.7033 21.6972C35.7409 21.8601 37.2717 22.6561 38.2897 24.0901C36.4674 25.1843 35.566 26.7169 35.5839 28.6829C35.6003 30.2142 36.1609 31.4886 37.2627 32.5004C37.762 32.97 38.3196 33.333 38.94 33.5907C38.8055 33.9774 38.6635 34.3477 38.5125 34.7033ZM33.8393 16.4801C33.8393 17.6804 33.3968 18.8011 32.5148 19.8384C31.4504 21.0716 30.1629 21.7841 28.7668 21.6717C28.749 21.5277 28.7387 21.3761 28.7387 21.2169C28.7387 20.0646 29.2449 18.8315 30.1438 17.8232C30.5926 17.3127 31.1633 16.8882 31.8555 16.5496C32.5462 16.2161 33.1995 16.0316 33.8139 16C33.8318 16.1605 33.8393 16.3209 33.8393 16.4801V16.4801Z" fill="white"/>
</svg>
