<svg width="18" height="15" viewBox="0 0 18 15" fill="none" xmlns="http://www.w3.org/2000/svg">
<path d="M0.666626 11.4528V2.16467C0.666626 1.24953 1.40521 0.506106 2.31863 0.562244C3.13227 0.612251 4.09453 0.711096 4.83329 0.90604C5.70763 1.13676 6.74672 1.62818 7.5685 2.06272C7.82438 2.19802 8.09648 2.29187 8.37496 2.34478L8.37496 14.9936C8.12251 14.938 7.87621 14.8482 7.64364 14.7242C6.81074 14.2802 5.7345 13.7654 4.83329 13.5276C4.1027 13.3348 3.15353 13.236 2.34567 13.1855C1.42166 13.1277 0.666626 12.3786 0.666626 11.4528Z" fill="#1D1D1D"/>
<path d="M9.62496 14.9936C9.87741 14.938 10.1237 14.8482 10.3563 14.7242C11.1892 14.2802 12.2654 13.7654 13.1666 13.5276C13.8972 13.3348 14.8464 13.236 15.6542 13.1855C16.5783 13.1277 17.3333 12.3786 17.3333 11.4528V2.11083C17.3333 1.21713 16.6281 0.483514 15.7349 0.514626C14.7945 0.547387 13.6224 0.64486 12.75 0.90604C11.9936 1.13247 11.1127 1.58666 10.3948 2.00213C10.1519 2.14271 9.89231 2.24596 9.62496 2.31143L9.62496 14.9936Z" fill="#1D1D1D"/>
</svg>
