<svg width="18" height="13" viewBox="0 0 18 13" fill="none" xmlns="http://www.w3.org/2000/svg">
<path fill-rule="evenodd" clip-rule="evenodd" d="M7.88902 1.11137L7.47077 0.815366C6.87381 0.392893 6.16049 0.166016 5.42916 0.166016H4.91877C4.58194 0.166016 4.2417 0.187255 3.92425 0.299845C1.93867 1.00407 0.572866 3.57855 0.671657 9.4182C0.691561 10.5948 0.966875 11.8952 2.02848 12.4029C2.3593 12.5611 2.74718 12.666 3.18888 12.666C3.7189 12.666 4.1398 12.5149 4.46465 12.302C4.8053 12.0787 5.10524 11.7886 5.40506 11.4985C5.77555 11.1401 6.14588 10.7818 6.59267 10.5501C7.07929 10.2977 7.61942 10.166 8.16758 10.166H9.83234C10.3805 10.166 10.9206 10.2977 11.4073 10.5501C11.854 10.7818 12.2244 11.1401 12.5949 11.4985C12.8947 11.7886 13.1946 12.0787 13.5353 12.302C13.8601 12.5149 14.281 12.666 14.811 12.666C15.2527 12.666 15.6406 12.5611 15.9714 12.4029C17.033 11.8952 17.3084 10.5948 17.3283 9.4182C17.4271 3.57854 16.0612 1.00406 14.0757 0.299842C13.7582 0.187255 13.418 0.166016 13.0812 0.166016H12.5707C11.8394 0.166016 11.1261 0.392893 10.5292 0.815366L10.1109 1.11136C9.7861 1.34126 9.39794 1.46472 8.99997 1.46472C8.60202 1.46472 8.21386 1.34126 7.88902 1.11137ZM12.9583 3.49935C13.3035 3.49935 13.5833 3.77917 13.5833 4.12435C13.5833 4.46953 13.3035 4.74935 12.9583 4.74935C12.6131 4.74935 12.3333 4.46953 12.3333 4.12435C12.3333 3.77917 12.6131 3.49935 12.9583 3.49935ZM5.24996 3.70768C5.59514 3.70768 5.87496 3.9875 5.87496 4.33268V4.95768H6.49996C6.84514 4.95768 7.12496 5.2375 7.12496 5.58268C7.12496 5.92786 6.84514 6.20768 6.49996 6.20768H5.87496V6.83268C5.87496 7.17786 5.59514 7.45768 5.24996 7.45768C4.90478 7.45768 4.62496 7.17786 4.62496 6.83268V6.20768H3.99996C3.65478 6.20768 3.37496 5.92786 3.37496 5.58268C3.37496 5.2375 3.65478 4.95768 3.99996 4.95768H4.62496V4.33268C4.62496 3.9875 4.90478 3.70768 5.24996 3.70768ZM14.8333 5.37435C14.8333 5.71953 14.5535 5.99935 14.2083 5.99935C13.8631 5.99935 13.5833 5.71953 13.5833 5.37435C13.5833 5.02917 13.8631 4.74935 14.2083 4.74935C14.5535 4.74935 14.8333 5.02917 14.8333 5.37435ZM11.7083 5.99935C12.0535 5.99935 12.3333 5.71953 12.3333 5.37435C12.3333 5.02917 12.0535 4.74935 11.7083 4.74935C11.3631 4.74935 11.0833 5.02917 11.0833 5.37435C11.0833 5.71953 11.3631 5.99935 11.7083 5.99935ZM13.5833 6.62435C13.5833 6.27917 13.3035 5.99935 12.9583 5.99935C12.6131 5.99935 12.3333 6.27917 12.3333 6.62435C12.3333 6.96953 12.6131 7.24935 12.9583 7.24935C13.3035 7.24935 13.5833 6.96953 13.5833 6.62435Z" fill="#1D1D1D"/>
</svg>
