<svg width="11" height="19" viewBox="0 0 11 19" fill="none" xmlns="http://www.w3.org/2000/svg">
<path d="M0.683594 9.59668C0.683594 9.34033 0.775879 9.10449 0.970703 8.91992L9.10205 0.962891C9.27637 0.788574 9.50195 0.696289 9.76855 0.696289C10.3018 0.696289 10.7119 1.09619 10.7119 1.62939C10.7119 1.88574 10.5991 2.12158 10.4351 2.2959L2.97021 9.59668L10.4351 16.8975C10.5991 17.0718 10.7119 17.2974 10.7119 17.564C10.7119 18.0972 10.3018 18.4971 9.76855 18.4971C9.50195 18.4971 9.27637 18.4048 9.10205 18.2202L0.970703 10.2734C0.775879 10.0786 0.683594 9.85303 0.683594 9.59668Z" fill="#1D1D1D"/>
</svg>
