<svg width="15" height="17" viewBox="0 0 15 17" fill="none" xmlns="http://www.w3.org/2000/svg">
<path d="M10.3677 4.74528L13.2072 3.98441C13.3942 3.93431 13.4878 3.90925 13.5614 3.87295C13.8637 3.72387 14.0464 3.40738 14.0243 3.07105C14.019 2.98915 13.9939 2.89565 13.9438 2.70864C13.7935 2.14761 13.7183 1.86709 13.6094 1.64626C13.1622 0.739381 12.2127 0.1912 11.2037 0.257333C11.101 0.264063 10.9923 0.281109 10.8595 0.309643C10.8754 0.378223 10.8799 0.450673 10.871 0.5246L10.3677 4.74528Z" fill="#1D1D1D"/>
<path d="M5.62521 1.70236L9.5987 0.637668L9.09837 4.83262C9.08815 4.91832 9.09579 5.00203 9.11834 5.08003L5.13555 6.14721L5.63894 1.92654C5.64816 1.84929 5.64286 1.77365 5.62521 1.70236Z" fill="#1D1D1D"/>
<path fill-rule="evenodd" clip-rule="evenodd" d="M11.3333 7.16602H1.33333V11.3327C1.33333 13.6897 1.33333 14.8682 2.06557 15.6005C2.7978 16.3327 3.97631 16.3327 6.33333 16.3327H9.66667C12.0237 16.3327 13.2022 16.3327 13.9344 15.6005C14.6667 14.8682 14.6667 13.6897 14.6667 11.3327V10.4993C14.6667 8.928 14.6667 8.14233 14.1785 7.65417C13.6904 7.16602 12.9047 7.16602 11.3333 7.16602ZM8.67365 10.6856C9.33566 11.1602 9.66667 11.3975 9.66667 11.7493C9.66667 12.1012 9.33566 12.3385 8.67365 12.8131C8.00259 13.2942 7.66707 13.5348 7.41687 13.3581C7.16667 13.1815 7.16667 12.7041 7.16667 11.7493C7.16667 10.7946 7.16667 10.3172 7.41687 10.1406C7.66707 9.96395 8.00259 10.2045 8.67365 10.6856Z" fill="#1D1D1D"/>
<path d="M3.86628 6.23456C3.85606 6.32025 3.86369 6.40396 3.88624 6.48197L1.3344 7.16573C0.931241 5.66111 0.729661 4.90881 0.903037 4.26176C1.01662 3.83787 1.23978 3.45135 1.55008 3.14104C2.02376 2.66737 2.77606 2.46579 4.28068 2.06263L4.3666 2.0396L3.86628 6.23456Z" fill="#1D1D1D"/>
</svg>
