<svg width="335" height="364" viewBox="0 0 335 364" fill="none" xmlns="http://www.w3.org/2000/svg">
<path d="M167.616 336.001H35.2157C21.8157 336.001 13.0157 321.901 18.8157 309.801L87.0157 167.201L113.916 110.901C135.616 65.6008 199.816 65.6008 221.516 110.901L248.416 167.201L316.616 309.801C322.416 321.901 313.616 336.001 300.216 336.001H167.616Z" stroke="#1D1D1D" stroke-width="2" stroke-miterlimit="10"/>
<path d="M113.416 335V290.3C113.416 277.6 123.316 267.2 135.516 267.2H178.316C193.216 267.2 205.316 254.6 205.316 239C205.316 223.4 193.216 210.8 178.316 210.8H130.016C117.816 210.8 107.916 200.5 107.916 187.7C107.916 175 117.816 164.6 130.016 164.6H165.516C179.016 164.6 189.916 153.2 189.916 139.1V104.1C189.916 89.1996 178.316 77.0996 164.016 77.0996" stroke="#1D1D1D" stroke-width="2" stroke-linecap="round" stroke-linejoin="round"/>
<path d="M243.284 286.309H157.162C149.117 286.309 142.516 292.91 142.516 300.955C142.516 309 149.117 315.601 157.162 315.601H243.284C251.432 315.601 257.93 309 257.93 300.955C257.93 292.91 251.329 286.309 243.284 286.309Z" fill="#1D1D1D" stroke="#1D1D1D" stroke-width="2" stroke-miterlimit="10"/>
<path d="M163.247 286.309H249.37C257.415 286.309 264.016 292.91 264.016 300.955C264.016 309 257.415 315.601 249.37 315.601H163.247C155.202 315.601 148.601 309 148.601 300.955C148.601 292.91 155.202 286.309 163.247 286.309Z" fill="white"/>
<path d="M163.247 286.309H249.37C257.415 286.309 264.016 292.91 264.016 300.955C264.016 309 257.415 315.601 249.37 315.601H163.247C155.202 315.601 148.601 309 148.601 300.955C148.601 292.91 155.202 286.309 163.247 286.309Z" fill="#98C890" stroke="#1D1D1D" stroke-width="2"/>
<path d="M165.413 295.797C166.341 295.797 167.167 295.9 167.992 296.209C168.714 296.519 169.332 296.931 169.745 297.447C170.158 297.963 170.467 298.685 170.467 299.51H167.476C167.476 299.097 167.27 298.788 166.96 298.479C166.548 298.169 166.135 298.066 165.619 298.066C164.897 298.066 164.279 298.272 163.969 298.685C163.557 299.097 163.35 299.613 163.35 300.335V301.263C163.35 301.985 163.557 302.604 163.969 302.914C164.382 303.326 164.897 303.532 165.619 303.532C166.135 303.532 166.548 303.429 166.96 303.223C167.373 303.017 167.476 302.707 167.476 302.295H165.207V300.335H170.467V305.802H168.817L168.507 304.873C167.579 305.595 166.445 306.008 165.001 306.008C163.35 306.008 162.113 305.595 161.287 304.77C160.462 303.945 160.05 302.604 160.05 300.954C160.05 299.304 160.462 298.066 161.391 297.138C162.319 296.209 163.66 295.797 165.413 295.797ZM178.409 305.802L177.996 304.461H174.593L174.18 305.802H170.88L174.49 295.9H178.203L181.813 305.802H178.409ZM175.212 302.192H177.377L176.346 298.685H176.243L175.212 302.192ZM190.786 305.802V302.295C190.786 301.882 190.786 301.366 190.786 300.954C190.786 300.438 190.889 300.129 190.889 299.819C190.889 299.51 190.992 299.304 190.992 299.201H190.889L189.032 305.905H186.557L184.7 299.201H184.597C184.597 299.304 184.597 299.51 184.7 299.819C184.7 300.129 184.804 300.541 184.804 300.954C184.804 301.366 184.907 301.882 184.907 302.295V305.802H182.019V295.9H186.454L187.898 301.573H188.001L189.445 295.9H193.777V305.802H190.786ZM195.221 295.9H203.782V298.272H198.418V299.613H202.956V301.882H198.418V303.429H203.885V305.802H195.221V295.9ZM214.096 295.797C215.024 295.797 215.849 295.9 216.674 296.209C217.396 296.519 218.015 296.931 218.428 297.447C218.84 297.963 219.15 298.685 219.15 299.51H216.158C216.158 299.097 215.952 298.788 215.643 298.479C215.23 298.169 214.818 298.066 214.302 298.066C213.58 298.066 212.961 298.272 212.652 298.685C212.239 299.097 212.033 299.613 212.033 300.335V301.263C212.033 301.985 212.239 302.604 212.652 302.914C213.064 303.326 213.58 303.532 214.302 303.532C214.818 303.532 215.23 303.429 215.643 303.223C216.055 303.017 216.158 302.707 216.158 302.295H213.889V300.335H219.15V305.802H217.499L217.19 304.873C216.262 305.595 215.127 306.008 213.683 306.008C212.033 306.008 210.795 305.595 209.97 304.77C209.145 303.945 208.732 302.604 208.732 300.954C208.732 299.304 209.145 298.066 210.073 297.138C211.001 296.209 212.342 295.797 214.096 295.797ZM230.289 301.779C230.289 303.12 229.876 304.151 229.051 304.873C228.226 305.595 226.988 305.905 225.441 305.905C223.894 305.905 222.656 305.595 221.831 304.873C221.006 304.151 220.594 303.12 220.594 301.779V295.9H223.791V301.779C223.791 302.295 223.894 302.81 224.203 303.12C224.513 303.429 224.925 303.636 225.544 303.636C226.06 303.636 226.576 303.429 226.885 303.12C227.195 302.81 227.298 302.295 227.298 301.779V295.9H230.495V301.779H230.289ZM241.119 298.994C241.119 299.613 240.912 300.129 240.603 300.645C240.293 301.16 239.778 301.47 239.159 301.676L241.325 305.802H237.818L236.065 302.192H234.93V305.802H231.733V295.9H237.818C238.54 295.9 239.159 296.003 239.675 296.313C240.19 296.622 240.603 296.931 240.809 297.447C241.015 297.963 241.119 298.375 241.119 298.994ZM237.921 299.097C237.921 298.788 237.818 298.582 237.612 298.479C237.405 298.272 237.199 298.169 236.993 298.169H234.93V300.026H236.993C237.199 300.026 237.405 299.923 237.612 299.716C237.818 299.613 237.921 299.304 237.921 299.097ZM251.845 301.779C251.845 303.12 251.433 304.151 250.608 304.873C249.782 305.595 248.545 305.905 246.998 305.905C245.45 305.905 244.213 305.595 243.388 304.873C242.563 304.151 242.15 303.12 242.15 301.779V295.9H245.347V301.779C245.347 302.295 245.451 302.81 245.76 303.12C246.069 303.429 246.482 303.636 247.101 303.636C247.72 303.636 248.132 303.429 248.442 303.12C248.751 302.81 248.854 302.295 248.854 301.779V295.9H252.052V301.779H251.845Z" fill="#1D1D1D"/>
<path d="M285.213 170H194.566C186.554 170 179.916 176.524 179.916 184.65C179.916 192.776 186.44 199.3 194.566 199.3H285.213C293.224 199.3 299.863 192.776 299.863 184.65C299.863 176.524 293.224 170 285.213 170Z" fill="#1D1D1D" stroke="#1D1D1D" stroke-width="2" stroke-miterlimit="10"/>
<path d="M200.289 170H290.935C298.947 170 305.585 176.524 305.585 184.65C305.585 192.662 299.062 199.3 290.935 199.3H200.289C192.277 199.3 185.639 192.776 185.639 184.65C185.639 176.524 192.162 170 200.289 170Z" fill="white"/>
<path d="M200.289 170H290.935C298.947 170 305.585 176.524 305.585 184.65C305.585 192.662 299.062 199.3 290.935 199.3H200.289C192.277 199.3 185.639 192.776 185.639 184.65C185.639 176.524 192.162 170 200.289 170Z" fill="#E8D16C" stroke="#1D1D1D" stroke-width="2"/>
<path d="M204.18 180.414C204.638 180.414 205.095 180.529 205.553 180.758C206.011 180.987 206.354 181.216 206.583 181.673C206.812 182.017 206.927 182.475 206.927 182.932C206.927 184.191 206.354 184.878 205.21 185.221V185.336C206.469 185.679 207.156 186.48 207.156 187.854C207.156 188.426 207.041 188.884 206.812 189.227C206.583 189.571 206.24 189.914 205.782 190.143C205.324 190.372 204.866 190.486 204.294 190.486H197.542V180.529H204.18V180.414ZM200.746 184.306H202.921C203.15 184.306 203.264 184.191 203.493 184.077C203.608 183.962 203.722 183.734 203.722 183.505V183.39C203.722 183.161 203.608 183.047 203.493 182.818C203.379 182.703 203.15 182.589 202.921 182.589H200.746V184.306ZM200.746 187.968H203.15C203.379 187.968 203.493 187.854 203.722 187.739C203.836 187.625 203.951 187.396 203.951 187.167V187.053C203.951 186.824 203.836 186.595 203.722 186.48C203.608 186.366 203.379 186.252 203.15 186.252H200.746V187.968ZM213.107 180.186C214.824 180.186 216.197 180.643 217.113 181.445C218.029 182.36 218.486 183.619 218.486 185.221C218.486 186.824 218.029 188.197 217.113 188.998C216.197 189.8 214.824 190.257 213.107 190.257C211.39 190.257 210.017 189.8 209.101 188.998C208.186 188.083 207.728 186.824 207.728 185.107C207.728 183.39 208.186 182.131 209.101 181.33C210.017 180.643 211.39 180.186 213.107 180.186ZM213.107 182.589C212.42 182.589 211.848 182.818 211.505 183.161C211.161 183.619 210.932 184.077 210.932 184.878V185.794C210.932 186.48 211.161 187.053 211.505 187.511C211.848 187.968 212.42 188.083 213.107 188.083C213.794 188.083 214.366 187.854 214.709 187.511C215.053 187.053 215.282 186.595 215.282 185.794V184.878C215.282 184.191 215.053 183.619 214.709 183.161C214.252 182.818 213.794 182.589 213.107 182.589ZM224.552 180.186C226.269 180.186 227.643 180.643 228.558 181.445C229.474 182.36 229.932 183.619 229.932 185.221C229.932 186.824 229.474 188.197 228.558 188.998C227.643 189.914 226.269 190.257 224.552 190.257C222.836 190.257 221.462 189.8 220.547 188.998C219.631 188.083 219.173 186.824 219.173 185.107C219.173 183.39 219.631 182.131 220.547 181.33C221.462 180.643 222.836 180.186 224.552 180.186ZM224.552 182.589C223.866 182.589 223.293 182.818 222.95 183.161C222.607 183.619 222.378 184.077 222.378 184.878V185.794C222.378 186.48 222.607 187.053 222.95 187.511C223.293 187.968 223.866 188.083 224.552 188.083C225.239 188.083 225.811 187.854 226.155 187.511C226.498 187.053 226.727 186.595 226.727 185.794V184.878C226.727 184.191 226.498 183.619 226.155 183.161C225.697 182.818 225.239 182.589 224.552 182.589ZM237.714 180.414H241.72L238.172 184.535L241.835 190.372H238.058L235.998 186.709L234.281 188.083V190.257H231.076V180.3H234.281V184.535L237.714 180.414ZM253.967 190.372L252.708 184.306H252.593L251.334 190.372H247.786L245.497 180.414H248.816L249.961 186.023H250.075L251.22 180.414H254.31L255.455 186.023H255.569L256.599 180.414H259.804L257.515 190.372H253.967ZM267.014 190.372L266.557 188.998H263.123L262.665 190.372H259.461L263.123 180.414H266.786L270.448 190.372H267.014ZM263.81 186.709H265.984L264.954 183.161H264.84L263.81 186.709ZM280.405 183.39C280.405 183.962 280.291 184.535 279.948 184.993C279.604 185.45 279.146 185.794 278.574 186.023L280.749 190.143H277.201L275.484 186.48H274.339V190.143H271.135V180.186H277.201C277.887 180.186 278.574 180.3 279.032 180.643C279.49 180.872 279.948 181.33 280.177 181.788C280.291 182.36 280.405 182.932 280.405 183.39ZM277.201 183.619C277.201 183.39 277.086 183.161 276.972 182.932C276.743 182.704 276.628 182.703 276.285 182.703H274.225V184.535H276.285C276.514 184.535 276.743 184.42 276.972 184.306C277.086 184.077 277.201 183.848 277.201 183.619ZM290.134 190.372V186.824C290.134 186.366 290.134 185.908 290.134 185.45C290.134 184.993 290.248 184.535 290.248 184.306C290.248 183.963 290.363 183.734 290.363 183.734H290.248L288.417 190.486H285.899L284.068 183.734H283.953C283.953 183.848 283.953 184.077 284.068 184.306C284.068 184.649 284.182 184.993 284.182 185.45C284.182 185.908 284.297 186.366 284.297 186.824V190.372H281.321V180.414H285.785L287.273 186.137H287.387L288.875 180.414H293.224V190.372H290.134Z" fill="#1D1D1D"/>
<path d="M146.465 106H53.1042C44.288 106 37.0542 113.234 37.0542 122.05C37.0542 130.866 44.288 138.1 53.1042 138.1H146.465C155.395 138.1 162.515 130.866 162.515 122.05C162.628 113.234 155.395 106 146.465 106Z" fill="#1D1D1D" stroke="#1D1D1D" stroke-width="2" stroke-miterlimit="10"/>
<path d="M48.5832 106H141.944C150.76 106 157.994 113.234 157.994 122.05C157.994 130.866 150.76 138.1 141.944 138.1H48.5832C39.767 138.1 32.5332 130.866 32.5332 122.05C32.5332 113.234 39.767 106 48.5832 106Z" fill="white"/>
<path d="M48.5832 106H141.944C150.76 106 157.994 113.234 157.994 122.05C157.994 130.866 150.76 138.1 141.944 138.1H48.5832C39.767 138.1 32.5332 130.866 32.5332 122.05C32.5332 113.234 39.767 106 48.5832 106Z" fill="#88C2DC" stroke="#1D1D1D" stroke-width="2"/>
<path d="M54.7998 127.362V123.519C54.7998 123.067 54.7998 122.502 54.7998 122.05C54.7998 121.485 54.9128 121.146 54.9128 120.807C54.9128 120.467 55.0258 120.241 55.0258 120.128H54.9128L52.8783 127.475H50.1656L48.1311 120.128H48.0181C48.0181 120.241 48.0181 120.467 48.1311 120.807C48.1311 121.146 48.2441 121.598 48.2441 122.05C48.2441 122.502 48.3572 123.067 48.3572 123.519V127.362H45.1924V116.511H50.0526L51.635 122.728H51.748L53.3304 116.511H58.0776V127.362H54.7998ZM64.9723 116.398C66.7807 116.398 68.2501 116.851 69.2673 117.868C70.2846 118.772 70.7367 120.241 70.7367 122.05C70.7367 123.858 70.2846 125.215 69.2673 126.232C68.2501 127.136 66.7807 127.701 64.9723 127.701C63.1638 127.701 61.6945 127.249 60.6772 126.232C59.66 125.328 59.2079 123.858 59.2079 122.05C59.2079 120.241 59.66 118.885 60.6772 117.868C61.6945 116.851 63.1638 116.398 64.9723 116.398ZM64.9723 118.998C64.1811 118.998 63.6159 119.224 63.2769 119.676C62.9378 120.128 62.7117 120.694 62.7117 121.485V122.502C62.7117 123.293 62.9378 123.858 63.2769 124.31C63.6159 124.763 64.1811 124.989 64.9723 124.989C65.7635 124.989 66.3286 124.763 66.6677 124.31C67.1198 123.858 67.2328 123.293 67.2328 122.502V121.485C67.2328 120.694 67.0068 120.128 66.6677 119.676C66.3286 119.224 65.7635 118.998 64.9723 118.998ZM74.3536 127.362L70.5107 116.511H74.2406L76.3881 123.745H76.5011L78.6487 116.511H82.1525L78.3096 127.362H74.3536ZM83.0568 127.362V116.511H86.5606V127.362H83.0568ZM88.3691 116.625H97.7504V119.224H91.8729V120.694H96.8462V123.18H91.8729V124.876H97.8634V127.475H88.3691V116.625ZM110.749 116.625C111.314 116.625 111.766 116.738 112.218 116.964C112.67 117.19 113.009 117.529 113.348 117.868C113.574 118.32 113.8 118.772 113.8 119.224C113.8 120.58 113.235 121.372 111.992 121.711V121.824C113.348 122.163 114.026 123.067 114.026 124.536C114.026 125.102 113.913 125.554 113.574 126.006C113.348 126.458 112.896 126.797 112.444 127.023C111.992 127.249 111.427 127.362 110.862 127.362H103.628V116.511H110.749V116.625ZM107.019 120.807H109.392C109.618 120.807 109.844 120.694 109.957 120.58C110.07 120.467 110.183 120.241 110.183 120.015V119.902C110.183 119.676 110.07 119.45 109.957 119.337C109.844 119.224 109.618 119.111 109.392 119.111H107.019V120.807ZM107.019 124.876H109.618C109.844 124.876 110.07 124.763 110.183 124.649C110.297 124.536 110.41 124.31 110.41 124.084V123.971C110.41 123.745 110.297 123.519 110.183 123.406C110.07 123.293 109.844 123.18 109.618 123.18H107.019V124.876ZM125.442 123.067C125.442 124.536 124.99 125.667 124.086 126.458C123.182 127.249 121.825 127.588 120.13 127.588C118.435 127.588 117.078 127.249 116.174 126.458C115.27 125.667 114.818 124.536 114.818 123.067V116.625H118.321V123.067C118.321 123.632 118.435 124.197 118.774 124.536C119.113 124.876 119.565 125.102 120.243 125.102C120.808 125.102 121.373 124.876 121.712 124.536C122.051 124.197 122.164 123.632 122.164 123.067V116.625H125.668V123.067H125.442ZM127.138 116.625H135.841V119.224H130.529V121.033H135.05V123.519H130.529V127.362H127.025V116.625H127.138ZM136.858 116.625H145.561V119.224H140.249V121.033H144.77V123.519H140.249V127.362H136.745V116.625H136.858Z" fill="#1D1D1D"/>
<path d="M166.816 42.6V24L189.816 33.3L212.816 42.6L189.816 51.9L166.816 61.2V42.6Z" fill="#C1A7F9" stroke="#1D1D1D" stroke-width="2" stroke-miterlimit="10" stroke-linecap="round" stroke-linejoin="round"/>
<path d="M166.816 16V76.6" stroke="#1D1D1D" stroke-width="2" stroke-linecap="round" stroke-linejoin="round"/>
<path d="M189.516 133C193.658 133 197.016 129.642 197.016 125.5C197.016 121.358 193.658 118 189.516 118C185.373 118 182.016 121.358 182.016 125.5C182.016 129.642 185.373 133 189.516 133Z" fill="#1D1D1D"/>
<path d="M107.516 194C111.658 194 115.016 190.642 115.016 186.5C115.016 182.358 111.658 179 107.516 179C103.373 179 100.016 182.358 100.016 186.5C100.016 190.642 103.373 194 107.516 194Z" fill="#1D1D1D"/>
<path d="M203.516 247C207.658 247 211.016 243.642 211.016 239.5C211.016 235.358 207.658 232 203.516 232C199.373 232 196.016 235.358 196.016 239.5C196.016 243.642 199.373 247 203.516 247Z" fill="#1D1D1D"/>
</svg>
