<svg width="337" height="367" viewBox="0 0 337 367" fill="none" xmlns="http://www.w3.org/2000/svg">
<path d="M181.1 102.716C173.4 83.7155 146.5 78.9155 136.3 104.216C111.4 93.0155 95.2998 115.116 103 134.116C110.7 153.116 130.4 156.916 145.6 161.316C150.9 162.916 156.1 164.316 160 162.716C163.9 161.116 166.6 156.516 169.4 151.716C177.1 138.116 188.7 121.716 181.1 102.716Z" fill="#1D1D1D" stroke="#1D1D1D" stroke-width="2" stroke-miterlimit="10" stroke-linecap="round" stroke-linejoin="round"/>
<path d="M97.8997 133.616C105.6 152.616 125.3 156.416 140.5 160.816C145.8 162.416 151 163.816 154.9 162.216C158.8 160.616 161.5 156.016 164.3 151.216C172.1 137.516 183.8 121.116 176.1 102.116C168.4 83.1159 141.5 78.3159 131.3 103.616C106.3 92.4159 90.1997 114.616 97.8997 133.616Z" fill="#EA8FCD" stroke="#1D1D1D" stroke-width="2"/>
<path d="M142.9 117.716L148 113.916C148.3 113.716 148.5 113.516 148.6 113.416C149.1 112.916 149.2 112.116 148.9 111.416C148.8 111.216 148.7 111.116 148.5 110.716C147.8 109.716 147.4 109.216 147 108.816C145.4 107.316 143.1 107.016 141.1 107.916C140.9 108.016 140.7 108.116 140.4 108.316C140.5 108.416 140.6 108.616 140.6 108.716L142.9 117.716Z" fill="#1D1D1D"/>
<path d="M131 115.316L138.1 110.016L140.4 118.816C140.4 119.016 140.5 119.116 140.6 119.316L133.4 124.616L131.1 115.716C131.1 115.616 131 115.416 131 115.316Z" fill="#1D1D1D"/>
<path fill-rule="evenodd" clip-rule="evenodd" d="M146.7 121.816L126.6 129.616L129.9 138.016C131.7 142.716 132.7 145.116 134.7 146.016C136.7 146.916 139.1 146.016 143.8 144.116L150.5 141.516C155.2 139.716 157.6 138.716 158.5 136.716C159.4 134.716 158.5 132.316 156.6 127.616L155.9 125.916C154.7 122.716 154.1 121.216 152.7 120.616C151.4 119.916 149.9 120.516 146.7 121.816ZM144.1 130.916C145.8 131.316 146.7 131.616 146.9 132.316C147.2 133.016 146.7 133.716 145.7 135.216C144.7 136.716 144.2 137.416 143.6 137.316C143 137.116 142.6 136.216 141.8 134.316C141.1 132.416 140.7 131.416 141 130.916C141.5 130.316 142.4 130.516 144.1 130.916Z" fill="#1D1D1D"/>
<path d="M131 125.816C131 126.016 131.1 126.116 131.2 126.316L126.6 129.716C124.6 127.016 123.6 125.616 123.5 124.216C123.4 123.316 123.5 122.316 123.9 121.416C124.5 120.116 125.8 119.116 128.5 117.116L128.7 117.016L131 125.816Z" fill="#1D1D1D"/>
<path fill-rule="evenodd" clip-rule="evenodd" d="M258.1 144.317C248.1 123.817 225.9 129.417 220.7 145.617C215.4 161.917 226.1 174.917 233.4 185.917C236 189.817 238.5 193.417 241.9 194.517C245.2 195.617 249.4 194.117 253.8 192.517C266.2 187.917 282.4 183.617 287.7 167.317C292.9 151.117 278.2 133.517 258.1 144.317Z" fill="#1D1D1D" stroke="#1D1D1D" stroke-width="2" stroke-miterlimit="10" stroke-linecap="round" stroke-linejoin="round"/>
<path d="M216.2 142.617C210.9 158.917 221.6 171.917 228.9 182.917C231.5 186.817 234 190.417 237.4 191.517C240.7 192.617 244.9 191.117 249.3 189.517C261.7 184.917 277.9 180.617 283.2 164.317C288.5 148.017 273.8 130.517 253.7 141.317C243.6 120.717 221.5 126.317 216.2 142.617Z" fill="#EAACE5" stroke="#1D1D1D" stroke-width="2"/>
<path fill-rule="evenodd" clip-rule="evenodd" d="M248.8 151.517L248.3 150.817C247.6 149.817 246.5 149.117 245.4 148.717L244.6 148.417C244.1 148.217 243.5 148.117 242.9 148.117C239.4 148.217 235.8 151.617 232.9 161.017C232.3 162.917 232.1 165.117 233.5 166.517C233.9 166.917 234.5 167.317 235.2 167.517C236 167.817 236.8 167.817 237.4 167.617C238.1 167.417 238.7 167.117 239.3 166.817C240.1 166.417 240.9 166.017 241.7 165.917C242.6 165.817 243.5 165.817 244.4 166.117L247.1 167.017C248 167.317 248.8 167.817 249.4 168.417C250 169.017 250.4 169.817 250.8 170.517C251.1 171.117 251.5 171.717 251.9 172.317C252.3 172.817 252.9 173.317 253.7 173.617C254.4 173.817 255.1 173.917 255.7 173.817C257.7 173.517 258.8 171.617 259.4 169.717C262.6 160.417 261.8 155.617 259 153.417C258.6 153.117 258 152.817 257.5 152.717L256.7 152.417C255.5 152.017 254.3 152.017 253.1 152.417L252.3 152.717C251.7 152.917 251 152.917 250.3 152.717C249.7 152.517 249.2 152.117 248.8 151.517ZM255.6 158.017C256.2 158.217 256.5 158.817 256.3 159.317C256.1 159.917 255.5 160.217 255 160.017C254.4 159.817 254.1 159.217 254.3 158.717C254.5 158.217 255.1 157.817 255.6 158.017ZM243.2 154.317C243.8 154.517 244.1 155.117 243.9 155.617L243.6 156.617L244.6 156.917C245.2 157.117 245.5 157.717 245.3 158.217C245.1 158.817 244.5 159.117 244 158.917L243 158.617L242.7 159.617C242.5 160.217 241.9 160.517 241.4 160.317C240.8 160.117 240.5 159.517 240.7 159.017L241 158.017L240 157.717C239.4 157.517 239.1 156.917 239.3 156.417C239.5 155.917 240.1 155.517 240.6 155.717L241.6 156.017L241.9 155.017C242 154.417 242.6 154.117 243.2 154.317ZM257.6 162.017C257.4 162.617 256.8 162.917 256.3 162.717C255.8 162.517 255.4 161.917 255.6 161.417C255.8 160.817 256.4 160.517 256.9 160.717C257.5 160.817 257.8 161.417 257.6 162.017ZM252.3 161.317C252.9 161.517 253.4 161.217 253.6 160.617C253.8 160.017 253.5 159.517 252.9 159.317C252.3 159.117 251.8 159.417 251.6 160.017C251.4 160.617 251.7 161.217 252.3 161.317ZM255 163.317C255.2 162.717 254.9 162.217 254.3 162.017C253.7 161.817 253.2 162.117 253 162.717C252.8 163.317 253.1 163.817 253.7 164.017C254.3 164.217 254.8 163.917 255 163.317Z" fill="#1D1D1D"/>
<path fill-rule="evenodd" clip-rule="evenodd" d="M256.1 25.015C244.2 -5.28501 212.2 0.214994 202.8 22.715C193.4 45.215 207.1 64.915 216.3 81.315C219.5 87.115 222.7 92.615 227.3 94.515C231.9 96.415 238 94.815 244.4 93.015C262.5 87.915 286 83.615 295.3 61.115C304.8 38.415 285.9 11.915 256.1 25.015Z" fill="#1D1D1D" stroke="#1D1D1D" stroke-width="2" stroke-miterlimit="10" stroke-linecap="round" stroke-linejoin="round"/>
<path d="M197.9 19.6159C188.6 42.1159 202.2 61.8159 211.4 78.2159C214.6 84.0159 217.8 89.5159 222.4 91.4159C227 93.3159 233.1 91.7159 239.5 89.9159C257.6 84.8159 281.1 80.5159 290.4 58.0159C299.7 35.5159 280.9 9.01593 251.1 22.0159C239.3 -8.28407 207.2 -2.88407 197.9 19.6159Z" fill="#EAACCD" stroke="#1D1D1D" stroke-width="2"/>
<path d="M241.901 29.8157L254.901 34.8157C255.301 35.0157 255.701 35.1157 255.901 35.2157C257.901 36.2157 259.101 38.1157 259.201 40.0157L235.101 30.7157C236.501 29.3157 238.601 28.7157 240.801 29.3157C241.101 29.5157 241.501 29.6157 241.901 29.8157Z" fill="#1D1D1D"/>
<path d="M235.9 33.3165C233.3 32.3165 230.6 33.1165 229.1 34.9165L229 35.0165C229.8 35.1165 230.7 35.2165 231.5 35.4165C233.6 35.9165 236.2 36.9165 239.1 38.0165L252 42.9165C255 44.0165 257.5 45.0165 259.4 46.0165C260.1 46.4165 260.9 46.8165 261.5 47.4165V47.3165C261.6 44.9165 260.1 42.6165 257.5 41.6165L235.9 33.3165Z" fill="#1D1D1D"/>
<path d="M236.3 59.7164C236.6 58.9164 236.2 58.1164 235.4 57.8164C234.6 57.5164 233.8 57.9164 233.5 58.7164C233.2 59.5164 233.6 60.3164 234.4 60.6164C235.1 60.9164 236 60.5164 236.3 59.7164Z" fill="#1D1D1D"/>
<path fill-rule="evenodd" clip-rule="evenodd" d="M238.2 40.2158L250.6 45.0158C256.9 47.4158 260.1 48.6158 261.1 51.2158C262.2 53.7158 260.7 56.4157 257.6 61.8157L254.7 66.9158C252.3 71.1158 251.1 73.2158 249 73.9158C246.8 74.6158 244.3 73.6158 239.4 71.7158L228.5 67.5158C223.6 65.6158 221.1 64.7158 219.9 62.7158C218.7 60.7158 219.3 58.4157 220.3 53.6157L221.6 47.9158C223 41.9158 223.6 38.9158 226.1 37.7158C228.8 36.6158 231.9 37.8158 238.2 40.2158ZM243.7 48.7158C244 47.9158 243.6 47.1158 242.8 46.8158C242 46.5158 241.2 46.9158 240.9 47.7158L237.8 55.9158C237.4 55.6158 237 55.3158 236.5 55.1157C234.2 54.2157 231.6 55.4158 230.7 57.7158C229.8 60.0158 231 62.6158 233.3 63.5158C235.6 64.4158 238.2 63.2158 239.1 60.9158L241.7 54.0158C242.6 55.5158 243.9 56.8158 245.2 57.4158C246 57.7158 246.8 57.3158 247.1 56.5158C247.4 55.7158 247 54.9157 246.2 54.6157C245.6 54.4157 244.7 53.6157 244 52.3157C243.5 51.0157 243.4 49.7158 243.7 48.7158Z" fill="#1D1D1D"/>
<path d="M155.6 19.2162C149.3 6.61621 130.5 4.81621 124.9 22.8162C107.1 16.5162 97.3001 32.6162 103.7 45.3162C110 57.9162 123.9 59.4162 134.5 61.6162C138.3 62.4162 141.9 63.1162 144.5 61.8162C147.1 60.5162 148.7 57.2162 150.3 53.7162C154.9 43.8162 161.9 31.8162 155.6 19.2162Z" fill="#1D1D1D" stroke="#1D1D1D" stroke-width="2" stroke-miterlimit="10" stroke-linecap="round" stroke-linejoin="round"/>
<path d="M98.6 45.2166C104.9 57.8166 118.8 59.3166 129.4 61.5166C133.2 62.3166 136.8 63.0166 139.4 61.7166C142 60.4166 143.6 57.1166 145.2 53.6166C149.8 43.7166 156.9 31.8166 150.5 19.1166C144.2 6.51659 125.4 4.7166 119.8 22.7166C102.1 16.5166 92.3 32.6166 98.6 45.2166Z" fill="#EAACA7" stroke="#1D1D1D" stroke-width="2"/>
<path d="M118.3 31.916C117.9 32.216 117.8 32.516 117.7 32.816C117.6 33.216 117.6 33.716 117.8 34.516C118.1 35.316 118.5 36.316 119.2 37.816L123 45.816C123.2 45.416 123.6 45.016 123.9 44.716C124 44.616 124.1 44.516 124.2 44.516L118.3 31.916Z" fill="#1D1D1D"/>
<path d="M125.801 43.5161L137.601 37.8161L134.101 30.5161C133.401 29.1161 132.901 28.0161 132.401 27.3161C131.901 26.6161 131.601 26.3161 131.201 26.2161C130.801 26.1161 130.301 26.1161 129.501 26.3161C128.701 26.6161 127.601 27.1161 126.201 27.8161L122.101 29.8161C121.201 30.2161 120.401 30.6161 119.801 30.9161L125.801 43.5161Z" fill="#1D1D1D"/>
<path d="M126.701 45.0164C125.701 45.5164 125.301 45.7164 125.101 45.9164C124.501 46.4164 124.101 47.3164 124.201 48.1164C124.401 48.4164 124.601 48.7164 124.701 49.0164C125.201 49.7164 125.501 50.0164 125.901 50.1164C126.301 50.2164 126.801 50.2164 127.601 50.0164C128.401 49.7164 129.501 49.2164 130.901 48.5164L135.001 46.5164C136.501 45.8164 137.501 45.3164 138.201 44.8164C138.901 44.3164 139.201 44.0164 139.401 43.5164C139.501 43.1164 139.501 42.6164 139.301 41.8164C139.101 41.1164 138.701 40.3164 138.201 39.3164L126.701 45.0164Z" fill="#1D1D1D"/>
<path d="M182.9 297.516L82.0998 345.016C60.1998 336.216 47.9998 317.916 46.7998 288.916L138 225.816" stroke="#1D1D1D" stroke-width="2" stroke-linecap="round" stroke-linejoin="round"/>
<path d="M47.4 294.316L7.5 321.516C8.8 340.216 17.1 354.816 32.7 365.116L78.4 343.416" stroke="#1D1D1D" stroke-width="2" stroke-linecap="round" stroke-linejoin="round"/>
<path d="M24.7 358.816L17.1 362.516C8.5 356.516 3.4 348.216 2 337.616L9.3 332.416C11.6 342.416 16.6 351.216 24.7 358.816Z" fill="#C1A7F9" stroke="#1D1D1D" stroke-width="2" stroke-miterlimit="10"/>
<path d="M183.31 297.432C195.044 290.367 194.741 268.339 182.635 248.23C170.528 228.122 151.201 217.548 139.467 224.612C127.733 231.677 128.035 253.705 140.142 273.814C152.249 293.923 171.576 304.497 183.31 297.432Z" stroke="#1D1D1D" stroke-width="2"/>
<path d="M179.465 289.813C188.374 284.48 187.776 267.095 178.13 250.984C168.484 234.873 153.442 226.136 144.534 231.469C135.625 236.803 136.223 254.188 145.869 270.299C155.515 286.41 170.557 295.147 179.465 289.813Z" fill="#1D1D1D"/>
<path d="M227.57 260.878C236.478 255.544 235.88 238.16 226.234 222.048C216.588 205.937 201.547 197.2 192.638 202.534C183.73 207.868 184.328 225.252 193.974 241.363C203.62 257.475 218.661 266.212 227.57 260.878Z" fill="#1D1D1D"/>
<path d="M231.33 268.553C243.064 261.488 242.762 239.46 230.655 219.351C218.548 199.243 199.221 188.669 187.487 195.734C175.753 202.798 176.056 224.827 188.163 244.935C200.27 265.044 219.596 275.618 231.33 268.553Z" stroke="#1D1D1D" stroke-width="2"/>
<path d="M149.4 221.816L187.9 195.516" stroke="#1D1D1D" stroke-width="2" stroke-linecap="round" stroke-linejoin="round"/>
<path d="M190.4 288.115L231 268.615" stroke="#1D1D1D" stroke-width="2"/>
<path d="M68.9668 183.416L77.7698 213.616" stroke="#1D1D1D" stroke-width="2" stroke-miterlimit="10" stroke-linecap="round" stroke-linejoin="round"/>
<path d="M80.9183 184.701L65.8184 212.331" stroke="#1D1D1D" stroke-width="2" stroke-miterlimit="10" stroke-linecap="round" stroke-linejoin="round"/>
<path d="M59.5859 190.934L87.2157 206.034" stroke="#1D1D1D" stroke-width="2" stroke-miterlimit="10" stroke-linecap="round" stroke-linejoin="round"/>
<path d="M88.5007 194.082L58.3008 202.885" stroke="#1D1D1D" stroke-width="2" stroke-miterlimit="10" stroke-linecap="round" stroke-linejoin="round"/>
<path d="M73.4012 201.728C75.1756 201.728 76.614 200.29 76.614 198.515C76.614 196.741 75.1756 195.303 73.4012 195.303C71.6269 195.303 70.1885 196.741 70.1885 198.515C70.1885 200.29 71.6269 201.728 73.4012 201.728Z" fill="#1D1D1D"/>
</svg>
