<svg width="335" height="366" viewBox="0 0 335 366" fill="none" xmlns="http://www.w3.org/2000/svg">
<path d="M131.8 36.2994C154.4 29.5994 178.2 42.4994 184.8 65.1994C191.5 87.7994 178.6 111.599 155.9 118.199C133.3 124.899 109.5 111.999 102.9 89.2994C96.3 66.6994 109.2 42.9994 131.8 36.2994Z" fill="#1D1D1D"/>
<path d="M129.8 31.2994C152.4 24.5994 176.2 37.4994 182.8 60.1994C189.5 82.7994 176.6 106.599 153.9 113.199C131.3 119.899 107.5 106.999 100.9 84.2994C94.3 61.6994 107.2 37.9994 129.8 31.2994Z" fill="#88C2DC" stroke="#1D1D1D" stroke-width="2"/>
<path d="M145.1 63.0996L151.1 59.3996C151.5 59.1996 151.7 58.9996 151.8 58.8996C152.4 58.3996 152.6 57.4996 152.3 56.6996C152.2 56.4996 152.1 56.2996 151.9 55.8996C151.2 54.6996 150.8 54.0996 150.4 53.6996C148.8 51.8996 146.2 51.2996 143.9 52.0996C143.7 52.1996 143.4 52.2996 143.1 52.4996C143.2 52.5996 143.2 52.7996 143.3 52.9996L145.1 63.0996Z" fill="#1D1D1D"/>
<path d="M132.1 59.3992L140.5 54.1992L142.2 64.1992C142.2 64.3992 142.3 64.5992 142.4 64.7992L134 69.9992L132.3 59.8992C132.3 59.6992 132.2 59.4992 132.1 59.3992Z" fill="#1D1D1D"/>
<path fill-rule="evenodd" clip-rule="evenodd" d="M149 68.0989L126 74.8989L128.8 84.4989C130.4 89.8989 131.2 92.5989 133.4 93.7989C135.6 94.9989 138.3 94.1989 143.7 92.5989L151.4 90.2989C156.8 88.6989 159.5 87.8989 160.7 85.6989C161.9 83.4989 161.1 80.7989 159.5 75.3989L158.9 73.4989C157.8 69.8989 157.3 68.0989 155.8 67.2989C154.4 66.4989 152.6 66.9989 149 68.0989ZM145.3 77.9989C147.1 78.5989 148.1 78.9989 148.3 79.7989C148.5 80.5989 147.9 81.3989 146.7 82.8989C145.5 84.4989 144.9 85.1989 144.2 84.9989C143.5 84.7989 143.2 83.6989 142.5 81.4989C141.9 79.2989 141.5 78.1989 142 77.5989C142.4 76.9989 143.4 77.2989 145.3 77.9989Z" fill="#1D1D1D"/>
<path d="M131.2 70.9996C131.2 71.1996 131.3 71.3996 131.4 71.5996L126 74.8996C124 71.6996 123.1 70.0996 123 68.4996C123 67.3996 123.2 66.3996 123.7 65.4996C124.5 64.0996 126.1 63.0996 129.3 61.1996L129.5 61.0996L131.2 70.9996Z" fill="#1D1D1D"/>
<path d="M218.001 113.799C234.401 115.399 246.501 129.999 244.901 146.399C243.301 162.799 228.701 174.899 212.301 173.299C195.901 171.699 183.801 157.099 185.401 140.699C186.901 124.199 201.501 112.199 218.001 113.799Z" fill="#1D1D1D"/>
<path d="M213.001 110.799C229.401 112.399 241.501 126.999 239.901 143.399C238.301 159.799 223.701 171.899 207.301 170.299C190.901 168.699 178.801 154.099 180.401 137.699C181.901 121.199 196.501 109.199 213.001 110.799Z" fill="#98C890" stroke="#1D1D1D" stroke-width="2"/>
<path fill-rule="evenodd" clip-rule="evenodd" d="M209.001 132.199L208.301 131.599C207.401 130.799 206.201 130.299 205.001 130.199L204.101 130.099C203.501 129.999 203.001 129.999 202.401 130.199C199.001 131.099 196.301 135.199 195.501 144.899C195.301 146.899 195.601 149.099 197.301 150.099C197.801 150.399 198.501 150.699 199.201 150.699C200.101 150.799 200.801 150.599 201.401 150.299C202.001 149.999 202.601 149.499 203.101 149.099C203.801 148.599 204.501 147.999 205.201 147.699C206.101 147.399 207.001 147.199 207.901 147.299L210.701 147.599C211.601 147.699 212.501 147.999 213.301 148.499C214.001 148.999 214.601 149.599 215.101 150.299C215.601 150.799 216.001 151.399 216.501 151.799C217.001 152.199 217.701 152.499 218.601 152.599C219.301 152.699 220.001 152.599 220.601 152.299C222.501 151.599 223.101 149.499 223.401 147.499C224.501 137.699 222.601 133.199 219.401 131.699C218.901 131.499 218.301 131.399 217.801 131.299L216.901 131.199C215.701 131.099 214.401 131.299 213.401 131.999L212.701 132.399C212.101 132.699 211.401 132.899 210.801 132.799C210.201 132.899 209.501 132.599 209.001 132.199ZM217.101 136.999C217.701 137.099 218.101 137.599 218.001 138.099C217.901 138.699 217.401 139.099 216.901 138.999C216.301 138.899 215.901 138.399 216.001 137.899C216.001 137.399 216.501 136.899 217.101 136.999ZM204.201 136.099C204.801 136.199 205.201 136.699 205.101 137.199L205.001 138.199L206.001 138.299C206.601 138.399 207.001 138.899 206.901 139.399C206.801 139.999 206.301 140.399 205.801 140.299L204.801 140.199L204.701 141.199C204.601 141.799 204.101 142.199 203.601 142.099C203.001 141.999 202.601 141.499 202.701 140.999L202.801 139.999L201.801 139.899C201.201 139.799 200.801 139.299 200.901 138.799C201.001 138.199 201.501 137.799 202.001 137.899L203.001 137.999L203.101 136.999C203.101 136.499 203.601 135.999 204.201 136.099ZM220.001 140.399C219.901 140.999 219.401 141.399 218.901 141.299C218.301 141.199 217.901 140.699 218.001 140.199C218.101 139.599 218.601 139.199 219.101 139.299C219.601 139.299 220.001 139.799 220.001 140.399ZM214.601 140.999C215.201 141.099 215.701 140.599 215.701 140.099C215.801 139.499 215.301 138.999 214.801 138.999C214.201 138.899 213.701 139.399 213.701 139.899C213.601 140.399 214.001 140.899 214.601 140.999ZM217.701 142.299C217.801 141.699 217.301 141.199 216.801 141.199C216.201 141.099 215.701 141.599 215.701 142.099C215.701 142.599 216.101 143.199 216.601 143.199C217.101 143.299 217.601 142.899 217.701 142.299Z" fill="#1D1D1D"/>
<path d="M248.9 86.0992C272.483 86.0992 291.6 66.9818 291.6 43.3992C291.6 19.8167 272.483 0.699219 248.9 0.699219C225.318 0.699219 206.2 19.8167 206.2 43.3992C206.2 66.9818 225.318 86.0992 248.9 86.0992Z" fill="#1D1D1D"/>
<path d="M243.9 2.69922C267.5 2.69922 286.6 21.7992 286.6 45.3992C286.6 68.9992 267.5 88.0992 243.9 88.0992C220.3 88.0992 201.2 68.9992 201.2 45.3992C201.2 21.7992 220.3 2.69922 243.9 2.69922Z" fill="#E1ACED" stroke="#1D1D1D" stroke-width="2"/>
<path d="M236.9 25.3984H250.9C251.4 25.3984 251.7 25.3984 252 25.3984C254.2 25.5984 256 26.9984 256.8 28.6984H231C231.8 26.8984 233.6 25.5984 235.8 25.3984C236.1 25.3984 236.4 25.3984 236.9 25.3984Z" fill="#1D1D1D"/>
<path d="M232.5 30.7988C229.7 30.7988 227.4 32.4988 226.7 34.6988V34.7988C227.5 34.5988 228.3 34.3988 229.2 34.2988C231.4 33.9988 234.1 33.9988 237.3 33.9988H251.1C254.3 33.9988 257 33.9988 259.2 34.2988C260 34.3988 260.9 34.5988 261.7 34.7988V34.6988C260.9 32.4988 258.7 30.7988 255.9 30.7988H232.5Z" fill="#1D1D1D"/>
<path d="M242.4 55.3984C242.4 54.5984 241.7 53.8984 240.9 53.8984C240.1 53.8984 239.4 54.5984 239.4 55.3984C239.4 56.1984 240.1 56.8984 240.9 56.8984C241.7 56.8984 242.4 56.1984 242.4 55.3984Z" fill="#1D1D1D"/>
<path fill-rule="evenodd" clip-rule="evenodd" d="M237.2 36.5H250.5C257.3 36.5 260.6 36.5 262.5 38.5C264.4 40.5 264 43.5 263.1 49.6L262.3 55.4C261.6 60.2 261.3 62.6 259.5 64C257.7 65.4 255.1 65.4 249.8 65.4H238.2C232.9 65.4 230.3 65.4 228.5 64C226.7 62.6 226.4 60.2 225.7 55.4L224.9 49.6C224 43.5 223.6 40.4 225.5 38.5C227.1 36.5 230.5 36.5 237.2 36.5ZM245.4 42.4C245.4 41.6 244.7 40.9 243.9 40.9C243.1 40.9 242.4 41.6 242.4 42.4V51.2C241.9 51 241.4 50.9 240.9 50.9C238.4 50.9 236.4 52.9 236.4 55.4C236.4 57.9 238.4 59.9 240.9 59.9C243.4 59.9 245.4 57.9 245.4 55.4V48C246.7 49.1 248.4 49.9 249.9 49.9C250.7 49.9 251.4 49.2 251.4 48.4C251.4 47.6 250.7 46.9 249.9 46.9C249.3 46.9 248.1 46.5 247.1 45.5C246 44.6 245.4 43.5 245.4 42.4Z" fill="#1D1D1D"/>
<path d="M290.901 363.499C288.001 363.499 285.101 362.399 283.201 360.299L220.301 297.399C218.201 295.299 217.101 292.599 217.101 289.699C217.101 286.799 218.201 283.899 220.301 281.999C222.401 279.899 225.101 278.799 228.001 278.799C230.901 278.799 233.801 279.899 235.701 281.999L298.601 344.899C300.701 346.999 301.801 349.699 301.801 352.599C301.801 355.499 300.701 358.399 298.601 360.299C296.701 362.399 294.101 363.499 290.901 363.499Z" fill="#C1A7F9" stroke="#1D1D1D" stroke-width="2" stroke-miterlimit="10"/>
<path d="M220.5 281.998L176.2 235.898" stroke="#1D1D1D" stroke-width="2" stroke-miterlimit="10" stroke-linecap="round" stroke-linejoin="round"/>
<path d="M167.501 239.499C152.401 239.499 126.301 221.299 105.401 200.099C79.5007 174.199 57.8007 140.599 68.9007 129.499C80.0007 118.399 113.601 140.099 139.501 165.999C165.401 191.899 187.101 225.499 176.001 236.599C173.501 238.499 170.601 239.499 167.501 239.499Z" fill="#1D1D1D"/>
<path d="M176.4 235.8C156.3 278.1 134.6 306.6 112.2 320.6C104.5 325.1 96.1005 327.5 87.6005 327.5C82.8005 327.5 77.8005 326.7 73.1005 325.1C59.9005 320.9 49.6005 310.8 44.6005 298.1C21.3005 239.8 66.1005 136.7 68.0005 132.5" stroke="#1D1D1D" stroke-width="2" stroke-miterlimit="10" stroke-linecap="round" stroke-linejoin="round"/>
<path d="M143.9 184.5C157.155 184.5 167.9 173.755 167.9 160.5C167.9 147.245 157.155 136.5 143.9 136.5C130.646 136.5 119.9 147.245 119.9 160.5C119.9 173.755 130.646 184.5 143.9 184.5Z" fill="#1D1D1D"/>
<path d="M139.9 139.398C153.2 139.398 163.9 150.198 163.9 163.398C163.9 176.698 153.1 187.398 139.9 187.398C126.6 187.398 115.9 176.598 115.9 163.398C115.8 150.198 126.6 139.398 139.9 139.398Z" fill="#E8D16C" stroke="#1D1D1D" stroke-width="2"/>
<path d="M132.7 152.398C132.2 152.498 131.9 152.698 131.7 152.898C131.4 153.198 131.1 153.698 131 154.598C130.9 155.498 130.9 156.698 130.9 158.498V168.198C131.3 167.898 131.8 167.698 132.4 167.498C132.5 167.498 132.7 167.398 132.8 167.398V152.398H132.7Z" fill="#1D1D1D"/>
<path d="M134.601 167.399H148.901V158.599C148.901 156.899 148.901 155.599 148.801 154.699C148.701 153.799 148.501 153.299 148.101 152.999C147.801 152.699 147.301 152.399 146.401 152.299C145.501 152.199 144.201 152.199 142.401 152.199H137.401C136.301 152.199 135.401 152.199 134.601 152.199V167.399Z" fill="#1D1D1D"/>
<path d="M134.8 169.198C133.6 169.198 133.2 169.198 132.8 169.298C131.9 169.498 131.2 170.198 130.9 170.998C130.9 171.398 130.9 171.798 131 172.098C131.1 172.998 131.3 173.498 131.7 173.798C132 174.098 132.5 174.398 133.4 174.498C134.3 174.598 135.6 174.598 137.4 174.598H142.4C144.2 174.598 145.4 174.598 146.4 174.498C147.3 174.398 147.8 174.198 148.1 173.798C148.4 173.498 148.7 172.998 148.8 172.098C148.9 171.398 148.9 170.398 148.9 169.098H134.8V169.198Z" fill="#1D1D1D"/>
<path d="M77.7002 222C80.1002 218 85.4002 216.7 89.4002 219.2C93.4002 221.6 94.7002 226.9 92.2002 230.9" stroke="black" stroke-width="2" stroke-miterlimit="10" stroke-linecap="round" stroke-linejoin="round"/>
<path d="M102.301 239C104.701 235 110.001 233.7 114.001 236.2C118.001 238.6 119.301 243.9 116.801 247.9" stroke="black" stroke-width="2" stroke-miterlimit="10" stroke-linecap="round" stroke-linejoin="round"/>
<path d="M100.7 253.699C96.4003 257.099 90.2003 257.599 85.3003 254.599C80.2003 251.499 77.9003 245.599 79.1003 240.199" stroke="black" stroke-width="2" stroke-miterlimit="10" stroke-linecap="round" stroke-linejoin="round"/>
</svg>
