<svg width="18" height="18" viewBox="0 0 18 18" fill="none" xmlns="http://www.w3.org/2000/svg">
<path d="M6.09154 0.666021H11.9083C12.102 0.665973 12.2506 0.665937 12.3804 0.678638C13.3036 0.768945 14.0592 1.324 14.3796 2.07166H3.62019C3.94062 1.324 4.69625 0.768945 5.61943 0.678638C5.74927 0.665937 5.8978 0.665973 6.09154 0.666021Z" fill="#1D1D1D"/>
<path d="M4.25872 2.93528C3.09987 2.93528 2.14965 3.63507 1.83254 4.56344C1.82593 4.58279 1.8196 4.60225 1.81354 4.62179C2.14533 4.52132 2.49063 4.45568 2.84019 4.41086C3.7405 4.29544 4.87828 4.2955 6.19998 4.29557H11.9434C13.2651 4.2955 14.4029 4.29544 15.3032 4.41086C15.6527 4.45568 15.998 4.52132 16.3298 4.62179C16.3238 4.60225 16.3174 4.58279 16.3108 4.56344C15.9937 3.63507 15.0435 2.93528 13.8846 2.93528H4.25872Z" fill="#1D1D1D"/>
<path d="M8.37496 13.166C8.37496 12.8208 8.09514 12.541 7.74996 12.541C7.40478 12.541 7.12496 12.8208 7.12496 13.166C7.12496 13.5112 7.40478 13.791 7.74996 13.791C8.09514 13.791 8.37496 13.5112 8.37496 13.166Z" fill="#1D1D1D"/>
<path fill-rule="evenodd" clip-rule="evenodd" d="M6.22695 5.28439H11.773C14.5853 5.28439 15.9915 5.28439 16.7814 6.10674C17.5712 6.92909 17.3854 8.19965 17.0137 10.7406L16.6612 13.1503C16.3697 15.143 16.224 16.1393 15.4763 16.736C14.7287 17.3327 13.6259 17.3327 11.4205 17.3327H6.57941C4.37396 17.3327 3.27123 17.3327 2.52357 16.736C1.77592 16.1393 1.63018 15.143 1.33869 13.1503L0.986218 10.7406C0.614528 8.19961 0.428683 6.9291 1.21856 6.10674C2.00843 5.28439 3.41461 5.28439 6.22695 5.28439ZM9.62496 7.74935C9.62496 7.40417 9.34514 7.12435 8.99996 7.12435C8.65478 7.12435 8.37496 7.40417 8.37496 7.74935V11.3977C8.17947 11.3286 7.96911 11.291 7.74996 11.291C6.71443 11.291 5.87496 12.1305 5.87496 13.166C5.87496 14.2016 6.71443 15.041 7.74996 15.041C8.78549 15.041 9.62496 14.2016 9.62496 13.166V10.0991C10.1835 10.5521 10.8847 10.8743 11.5 10.8743C11.8451 10.8743 12.125 10.5945 12.125 10.2493C12.125 9.90417 11.8451 9.62435 11.5 9.62435C11.2454 9.62435 10.7621 9.44217 10.3196 9.04959C9.8878 8.66654 9.62496 8.19819 9.62496 7.74935Z" fill="#1D1D1D"/>
</svg>
