<svg width="18" height="14" viewBox="0 0 18 14" fill="none" xmlns="http://www.w3.org/2000/svg">
<path d="M8.03097 5.78853C8.03097 5.45381 7.77067 5.18247 7.44957 5.18247H6.15113C6.42048 3.79929 7.59359 2.75823 8.99996 2.75823C10.4063 2.75823 11.5794 3.79929 11.8488 5.18247H9.77515C9.45406 5.18247 9.19376 5.45381 9.19376 5.78853C9.19376 6.12325 9.45406 6.39459 9.77515 6.39459H11.9069V7.60671H9.77515C9.45406 7.60671 9.19376 7.87805 9.19376 8.21277C9.19376 8.54749 9.45406 8.81883 9.77515 8.81883H11.8488C11.6176 10.0062 10.7204 10.9414 9.58136 11.1825V13.0613C9.58136 13.396 9.32106 13.6673 8.99996 13.6673C8.67886 13.6673 8.41856 13.396 8.41856 13.0613V11.1825C7.27954 10.9414 6.38234 10.0062 6.15113 8.81883H7.44957C7.77067 8.81883 8.03097 8.54749 8.03097 8.21277C8.03097 7.87805 7.77067 7.60671 7.44957 7.60671H6.09298V6.39459H7.44957C7.77067 6.39459 8.03097 6.12325 8.03097 5.78853Z" fill="#1D1D1D"/>
<path d="M8.99995 0.333984C6.22541 0.333984 3.95524 2.58505 3.77848 5.43072C3.48505 5.27209 3.15177 5.18247 2.79841 5.18247C1.62106 5.18247 0.666626 6.17739 0.666626 7.40469V9.02085C0.666626 10.2482 1.62106 11.2431 2.79841 11.2431C2.83843 11.2431 2.87819 11.2419 2.91767 11.2397V11.2431C4.02915 11.2431 4.93019 10.3038 4.93019 9.14517V5.78852C4.93019 3.4455 6.75228 1.54611 8.99995 1.54611C11.2476 1.54611 13.0697 3.4455 13.0697 5.78852V9.14517C13.0697 10.3038 13.9707 11.2431 15.0822 11.2431V11.2397C15.1217 11.2419 15.1615 11.2431 15.2015 11.2431C16.3789 11.2431 17.3333 10.2482 17.3333 9.02085V7.40469C17.3333 6.17739 16.3789 5.18247 15.2015 5.18247C14.8481 5.18247 14.5148 5.2721 14.2214 5.43074C14.0447 2.58506 11.7745 0.333984 8.99995 0.333984Z" fill="#1D1D1D"/>
</svg>
