<svg width="14" height="18" viewBox="0 0 14 18" fill="none" xmlns="http://www.w3.org/2000/svg">
<path d="M1.71268 0.855448C1.35212 0.949661 1.11988 1.08286 0.93936 1.25972C0.684865 1.50905 0.518938 1.85912 0.428222 2.52018C0.334839 3.20067 0.333374 4.10258 0.333374 5.39575V12.5362C0.657269 12.3144 1.02232 12.1457 1.41586 12.0424C1.51084 12.0175 1.60923 11.9979 1.71268 11.9826V0.855448Z" fill="#1D1D1D"/>
<path d="M3.09199 11.9272C3.10176 11.9272 3.11156 11.9273 3.1214 11.9273L13.6667 11.9273V5.39575C13.6667 4.10258 13.6652 3.20067 13.5719 2.52018C13.4811 1.85912 13.3152 1.50905 13.0607 1.25972C12.8062 1.01038 12.4489 0.847818 11.7742 0.758941C11.0796 0.667451 10.159 0.666016 8.83912 0.666016H5.16096C4.32619 0.666016 3.65115 0.66659 3.09199 0.690155V11.9272Z" fill="#1D1D1D"/>
<path d="M3.22788 13.2786C2.32833 13.2786 2.01385 13.2844 1.77285 13.3477C1.11141 13.5213 0.584111 14.003 0.357978 14.6292C0.371956 14.9479 0.393869 15.2282 0.428222 15.4785C0.518938 16.1396 0.684865 16.4896 0.93936 16.739C1.19385 16.9883 1.55116 17.1509 2.2259 17.2398C2.92047 17.3313 3.84104 17.3327 5.16096 17.3327H8.83912C10.159 17.3327 11.0796 17.3313 11.7742 17.2398C12.4489 17.1509 12.8062 16.9883 13.0607 16.739C13.3152 16.4896 13.4811 16.1396 13.5719 15.4785C13.648 14.9233 13.6631 14.2208 13.666 13.2786H3.22788Z" fill="#1D1D1D"/>
</svg>
