<svg width="20" height="20" viewBox="0 0 20 20" fill="none" xmlns="http://www.w3.org/2000/svg">
<path fill-rule="evenodd" clip-rule="evenodd" d="M9.99984 18.3327C14.6022 18.3327 18.3332 14.6017 18.3332 9.99935C18.3332 5.39698 14.6022 1.66602 9.99984 1.66602C5.39746 1.66602 1.6665 5.39698 1.6665 9.99935C1.6665 14.6017 5.39746 18.3327 9.99984 18.3327ZM10.6248 7.49935C10.6248 7.15417 10.345 6.87435 9.99984 6.87435C9.65466 6.87435 9.37484 7.15417 9.37484 7.49935L9.37484 9.37437H7.49984C7.15466 9.37437 6.87484 9.65419 6.87484 9.99937C6.87484 10.3445 7.15466 10.6244 7.49984 10.6244H9.37484V12.4993C9.37484 12.8445 9.65466 13.1243 9.99984 13.1243C10.345 13.1243 10.6248 12.8445 10.6248 12.4993L10.6248 10.6244H12.4998C12.845 10.6244 13.1248 10.3445 13.1248 9.99937C13.1248 9.65419 12.845 9.37437 12.4998 9.37437H10.6248V7.49935Z" fill="#864AE3"/>
</svg>
