<svg width="40" height="40" viewBox="0 0 40 40" fill="none" xmlns="http://www.w3.org/2000/svg">
<path d="M0 20C0 8.95431 8.95431 0 20 0C31.0457 0 40 8.95431 40 20C40 31.0457 31.0457 40 20 40C8.95431 40 0 31.0457 0 20Z" fill="#DFD8D3"/>
<path d="M24.1429 9.25C23.7286 9.25 23.3929 9.58579 23.3929 10C23.3929 10.4142 23.7286 10.75 24.1429 10.75H28.1893L22.4697 16.4697C22.1768 16.7626 22.1768 17.2374 22.4697 17.5303C22.7626 17.8232 23.2374 17.8232 23.5303 17.5303L29.25 11.8107V15.8571C29.25 16.2714 29.5858 16.6071 30 16.6071C30.4142 16.6071 30.75 16.2714 30.75 15.8571V10C30.75 9.58579 30.4142 9.25 30 9.25H24.1429Z" fill="#1D1D1D"/>
<path d="M15.8571 30.75C16.2714 30.75 16.6071 30.4142 16.6071 30C16.6071 29.5858 16.2714 29.25 15.8571 29.25H11.8107L17.5303 23.5303C17.8232 23.2374 17.8232 22.7626 17.5303 22.4697C17.2374 22.1768 16.7626 22.1768 16.4697 22.4697L10.75 28.1893V24.1429C10.75 23.7286 10.4142 23.3929 10 23.3929C9.58579 23.3929 9.25 23.7286 9.25 24.1429V30C9.25 30.4142 9.58579 30.75 10 30.75H15.8571Z" fill="#1D1D1D"/>
</svg>
