<svg width="40" height="40" viewBox="0 0 40 40" fill="none" xmlns="http://www.w3.org/2000/svg">
<path d="M0 20C0 8.95431 8.95431 0 20 0C31.0457 0 40 8.95431 40 20C40 31.0457 31.0457 40 20 40C8.95431 40 0 31.0457 0 20Z" fill="#DFD8D3"/>
<path d="M28.8571 17.75C29.2714 17.75 29.6071 17.4142 29.6071 17C29.6071 16.5858 29.2714 16.25 28.8571 16.25H24.8107L30.5303 10.5303C30.8232 10.2374 30.8232 9.76256 30.5303 9.46967C30.2374 9.17678 29.7626 9.17678 29.4697 9.46967L23.75 15.1893V11.1429C23.75 10.7286 23.4142 10.3929 23 10.3929C22.5858 10.3929 22.25 10.7286 22.25 11.1429V17C22.25 17.4142 22.5858 17.75 23 17.75H28.8571Z" fill="#1D1D1D"/>
<path d="M11.1429 22.25C10.7286 22.25 10.3929 22.5858 10.3929 23C10.3929 23.4142 10.7286 23.75 11.1429 23.75H15.1893L9.46967 29.4697C9.17678 29.7626 9.17678 30.2374 9.46967 30.5303C9.76256 30.8232 10.2374 30.8232 10.5303 30.5303L16.25 24.8107V28.8571C16.25 29.2714 16.5858 29.6071 17 29.6071C17.4142 29.6071 17.75 29.2714 17.75 28.8571V23C17.75 22.5858 17.4142 22.25 17 22.25H11.1429Z" fill="#1D1D1D"/>
</svg>
